<svg xmlns="http://www.w3.org/2000/svg" xmlns:xlink="http://www.w3.org/1999/xlink" id="Layer_1" x="0px" y="0px" viewBox="0 0 155 100" style="enable-background:new 0 0 155 100;" xml:space="preserve"><style type="text/css">	.st0{fill:url(#SVGID_1_);}	.st1{fill:#0E284A;}</style><g>	<linearGradient id="SVGID_1_" gradientUnits="userSpaceOnUse" x1="89.6945" y1="89.7077" x2="142.3112" y2="14.5633">		<stop offset="0.05" style="stop-color:#0E284A"></stop>		<stop offset="0.3" style="stop-color:#9F2421"></stop>		<stop offset="0.52" style="stop-color:#DA5B26"></stop>		<stop offset="0.75" style="stop-color:#EF7522"></stop>		<stop offset="1" style="stop-color:#EFA01F"></stop>	</linearGradient>	<path class="st0" d="M143.02,21.07c0.33-0.33,1.33,0.76,1.93,1.64c0.87,1.28,1.26,2.53,0.77,2.48  C145,25.12,142.68,21.89,143.02,21.07z M142.47,22.58c0.56,0.09,0.4-0.92-0.6-2.22c-0.62-0.81-1.74-1.88-2.17-1.59  C139.22,19.47,141.62,22.44,142.47,22.58z M140.53,24.34C140.53,24.34,140.53,24.34,140.53,24.34  C140.53,24.34,140.53,24.34,140.53,24.34C140.53,24.34,140.53,24.34,140.53,24.34C140.53,24.34,140.53,24.34,140.53,24.34  C140.53,24.34,140.53,24.34,140.53,24.34C140.53,24.34,140.53,24.34,140.53,24.34C140.53,24.33,140.53,24.33,140.53,24.34  C140.53,24.33,140.53,24.33,140.53,24.34c0.55-0.45-0.12-1.73-0.55-2.34c-0.6-0.87-1.75-1.96-2.41-1.7  c-0.04,0.03-0.09,0.08-0.12,0.13C137,21.3,139.33,24.84,140.53,24.34z M142.64,18.56c-0.61-0.73-1.61-1.68-1.8-1.38  c-0.1,0.69,2.27,3.43,2.83,3.49C144.07,20.7,143.55,19.64,142.64,18.56z M127.21,8.33C127.21,8.33,127.21,8.33,127.21,8.33  C127.21,8.33,127.21,8.33,127.21,8.33C127.21,8.33,127.21,8.33,127.21,8.33C127.21,8.33,127.21,8.33,127.21,8.33  C127.21,8.33,127.21,8.33,127.21,8.33C127.21,8.33,127.21,8.33,127.21,8.33C127.21,8.33,127.21,8.33,127.21,8.33  C127.21,8.33,127.21,8.33,127.21,8.33c-0.01,0.01-0.01,0.02-0.02,0.03c-0.06,0.27,2.59,2.29,3.09,1.98c0,0,0,0,0,0c0,0,0,0,0,0  c0,0,0,0,0,0c0,0,0,0,0,0c0,0,0,0,0,0c0,0,0,0,0,0c0,0,0,0,0,0c0,0,0,0,0,0c0.12-0.22-0.61-0.82-1.13-1.17  C128.41,8.67,127.43,8.2,127.21,8.33z M136.25,21.62c0.79,0.11,0.71-0.96-0.17-2.12c-0.61-0.8-1.79-1.8-2.44-1.59c0,0,0,0,0,0  c0,0,0,0,0,0c0,0,0,0,0,0c0,0,0,0,0,0s0,0,0,0c0,0,0,0,0,0c0,0,0,0,0,0c0,0,0,0,0,0c-0.02,0.01-0.05,0.03-0.07,0.05  C132.89,18.57,135,21.44,136.25,21.62z M133.25,25.07c-0.44-0.89-1.52-2.06-2.53-1.87c0,0,0,0,0,0c0,0,0,0,0,0c0,0,0,0,0,0  c0,0,0,0,0,0c0,0,0,0,0,0c0,0,0,0,0,0c0,0,0,0,0,0c0,0,0,0,0,0c-0.14,0.06-0.28,0.11-0.41,0.3c-0.75,1.13,0.98,4.17,2.66,3.83  c0,0,0,0,0,0c0,0,0,0,0,0c0,0,0,0,0,0c0,0,0,0,0,0c0,0,0,0,0,0c0,0,0,0,0,0c0,0,0,0,0,0c0,0,0,0,0,0  C133.89,26.96,133.58,25.73,133.25,25.07z M136.72,25.96c1.05,0.29,1.25-0.94,0.39-2.36c-0.54-0.89-1.69-2.04-2.54-1.81  c-0.03,0.02-0.07,0.03-0.1,0.05C133.55,22.49,135.21,25.53,136.72,25.96z M138.88,20.04c0.65,0.08,0.35-0.97-0.61-2.07  c-0.64-0.74-1.8-1.71-2.28-1.46C135.42,17.15,137.96,19.93,138.88,20.04z M140.32,38.68C140.32,38.68,140.32,38.68,140.32,38.68  C140.32,38.68,140.32,38.68,140.32,38.68C140.32,38.68,140.33,38.68,140.32,38.68C140.33,38.68,140.33,38.68,140.32,38.68  C140.33,38.68,140.33,38.68,140.32,38.68C140.33,38.68,140.33,38.68,140.32,38.68C140.33,38.68,140.33,38.68,140.32,38.68  C140.33,38.68,140.33,38.68,140.32,38.68c1.16-0.52,0.99-2.2,0.74-3.01c-0.36-1.16-1.43-2.66-2.67-2.35c0,0,0,0,0,0c0,0,0,0,0,0  c0,0,0,0,0,0c0,0,0,0,0,0c0,0,0,0,0,0c0,0,0,0,0,0c0,0,0,0,0,0c0,0,0,0,0,0c-0.16,0.07-0.43,0.19-0.63,0.57  C136.85,35.56,138.44,39.16,140.32,38.68z M131.13,9.97c0,0.01-0.01,0.02-0.01,0.03c-0.03,0.34,2.74,2.69,3.18,2.29c0,0,0,0,0,0  c0,0,0,0,0,0c0,0,0,0,0,0s0,0,0,0s0,0,0,0s0,0,0,0c0,0,0,0,0,0c0,0,0,0,0,0c0.07-0.25-0.59-0.9-1.25-1.4  C132.38,10.4,131.34,9.8,131.13,9.97z M133.29,9.56c-0.72-0.5-1.57-0.94-1.64-0.78c0.1,0.45,2.69,2.12,2.95,2.06  C134.8,10.79,134.13,10.14,133.29,9.56z M129.9,11.14C129.9,11.14,129.9,11.14,129.9,11.14C129.9,11.14,129.9,11.14,129.9,11.14  C129.9,11.14,129.9,11.14,129.9,11.14C129.9,11.14,129.9,11.14,129.9,11.14C129.9,11.14,129.9,11.14,129.9,11.14  C129.9,11.15,129.9,11.15,129.9,11.14C129.9,11.15,129.9,11.15,129.9,11.14C129.9,11.15,129.9,11.15,129.9,11.14  c-0.41,0.5,2.33,2.63,3.02,2.61c0.46-0.01,0.04-0.74-0.86-1.51C131.4,11.7,130.27,10.97,129.9,11.14z M143.71,19.36  c0.01,0.6,2.21,3.7,2.65,3.73c0.26,0.02-0.32-1.14-1.16-2.29C144.53,19.87,143.77,19.06,143.71,19.36z M133.84,13.06  c-0.01,0.01-0.02,0.03-0.03,0.04c-0.11,0.29,0.65,1.2,1.42,1.88c0.23,0.2,1.4,1.21,1.78,0.96c0,0,0,0,0,0c0,0,0,0,0,0c0,0,0,0,0,0  c0,0,0,0,0,0s0,0,0,0s0,0,0,0c0,0,0,0,0,0c0,0,0,0,0,0c0.22-0.34-0.59-1.24-1.05-1.67C135.31,13.66,134.18,12.85,133.84,13.06z   M138.12,13.58C138.12,13.58,138.12,13.58,138.12,13.58C138.12,13.58,138.12,13.58,138.12,13.58  C138.12,13.58,138.12,13.58,138.12,13.58C138.12,13.58,138.12,13.58,138.12,13.58C138.12,13.58,138.12,13.58,138.12,13.58  C138.12,13.58,138.12,13.58,138.12,13.58C138.12,13.58,138.12,13.58,138.12,13.58C138.12,13.58,138.12,13.58,138.12,13.58  c0.01,0.06,0.02,0.11,0.12,0.27c0.5,0.78,2.77,3,2.87,2.58c0,0,0,0,0,0c0,0,0,0,0,0s0,0,0,0c0,0,0,0,0,0c0,0,0,0,0,0c0,0,0,0,0,0  c0,0,0,0,0,0c0,0,0,0,0,0c-0.06-0.36-0.84-1.24-1.35-1.73C139.03,13.98,138.17,13.35,138.12,13.58z M136.65,12.77  c-0.68-0.58-1.7-1.27-1.85-1.05c-0.11,0.42,2.57,2.74,3.05,2.65C138.14,14.32,137.55,13.54,136.65,12.77z M132.8,29.44  c-0.49-1.31-1.71-2.28-2.61-2.07c-0.04,0.01-0.1,0.03-0.15,0.05c-1.26,0.53-0.72,3.58,1.18,4.37  C132.56,32.34,133.41,31.07,132.8,29.44z M137.51,15.06c-0.16,0.43,1.1,1.78,1.11,1.8c1.11,1.19,1.73,1.47,1.92,1.45  c0.38-0.04-0.13-1.01-1.03-1.95h0C138.85,15.65,137.78,14.81,137.51,15.06z M140.66,28.95c1.03,0.31,1.23-1.06,0.38-2.6  c-0.53-0.96-1.69-2.25-2.51-1.95c0,0-0.01,0-0.01,0C137.45,25.03,139.08,28.47,140.66,28.95z M106.84,57.29  c-0.19-0.66-0.71-1.32-1.79-1.38c0,0,0,0,0,0c0,0,0,0,0,0s0,0,0,0s0,0,0,0c0,0,0,0,0,0c0,0,0,0,0,0c0,0,0,0,0,0c0,0,0,0,0,0  c-1.03,0.05-1.62,0.67-1.81,1.39l3.28,0C106.64,57.31,106.74,57.3,106.84,57.29z M111.53,75.42c1,1.37,3.53,0.65,3.82-1.09v0  c0.13-0.81-0.39-1.96-1.96-1.96C111.42,72.56,110.8,74.41,111.53,75.42z M115.82,85.64C115.82,85.64,115.82,85.64,115.82,85.64  C115.82,85.64,115.82,85.64,115.82,85.64C115.82,85.64,115.82,85.64,115.82,85.64C115.82,85.64,115.82,85.64,115.82,85.64  C115.82,85.64,115.82,85.64,115.82,85.64C115.82,85.64,115.83,85.64,115.82,85.64C115.83,85.64,115.83,85.64,115.82,85.64  C115.83,85.64,115.83,85.64,115.82,85.64c1.28-0.15,1.87-0.98,2.03-1.44c0.25-0.76-0.18-1.54-1.47-1.49c0,0,0,0,0,0c0,0,0,0,0,0  c0,0,0,0,0,0c0,0,0,0,0,0c0,0,0,0,0,0c0,0,0,0,0,0s0,0,0,0c0,0,0,0,0,0c-0.67,0.08-1.22,0.35-1.63,0.79  C113.87,84.43,114.29,85.69,115.82,85.64z M112.57,82.82C112.57,82.82,112.57,82.82,112.57,82.82  C112.57,82.82,112.57,82.82,112.57,82.82C112.57,82.82,112.57,82.82,112.57,82.82C112.57,82.82,112.58,82.82,112.57,82.82  C112.58,82.82,112.58,82.82,112.57,82.82c0.01,0,0.01,0,0.01,0c0,0,0,0,0,0c0,0,0,0,0,0c1.31-0.12,1.86-0.97,1.98-1.45  c0.16-0.63-0.16-1.63-1.67-1.62c0,0,0,0,0,0c0,0,0,0,0,0c0,0,0,0,0,0c0,0,0,0,0,0c0,0,0,0,0,0c0,0,0,0,0,0c0,0,0,0,0,0c0,0,0,0,0,0  c-0.23,0.02-0.92,0.09-1.47,0.62C110.54,81.23,110.79,82.82,112.57,82.82z M113.52,68.45C113.52,68.45,113.52,68.45,113.52,68.45  C113.52,68.45,113.52,68.45,113.52,68.45C113.53,68.45,113.53,68.45,113.52,68.45C113.53,68.45,113.53,68.45,113.52,68.45  C113.53,68.45,113.53,68.45,113.52,68.45c0.01,0,0.01,0,0.01,0c0,0,0,0,0,0c0,0,0,0,0,0c1.58-0.16,2.13-1.37,2.2-2.06  c0.12-1.1-0.59-2.26-2.13-2.26c-0.6,0.03-1.17,0.3-1.6,0.74C110.74,66.2,111.39,68.45,113.52,68.45z M110.98,33.46  c1.03,1,2.57,0.25,2.5-1.21c-0.03-0.7-0.54-1.81-1.74-1.82C110.3,30.51,110,32.52,110.98,33.46z M115.4,8.66  c0.3,0.02,0.22-0.31-0.17-0.72c-0.38-0.39-0.98-0.79-1.24-0.75c-0.02,0.01-0.04,0.01-0.06,0.03C113.68,7.47,114.86,8.63,115.4,8.66  z M96.67,56.14C96.67,56.14,96.67,56.14,96.67,56.14C96.67,56.14,96.67,56.14,96.67,56.14C96.67,56.14,96.67,56.14,96.67,56.14  C96.67,56.14,96.66,56.14,96.67,56.14C96.66,56.14,96.66,56.14,96.67,56.14C96.66,56.14,96.66,56.14,96.67,56.14  C96.66,56.14,96.66,56.14,96.67,56.14C96.66,56.14,96.66,56.14,96.67,56.14c-0.83,0.01-1.33,0.54-1.46,1.17l2.81,0  C97.89,56.77,97.5,56.23,96.67,56.14z M93.71,53.58h-2.07c0.05,0.1,0.1,0.2,0.17,0.28C92.4,54.58,93.39,54.37,93.71,53.58z   M132.47,45.04C132.47,45.04,132.47,45.04,132.47,45.04C132.47,45.04,132.47,45.04,132.47,45.04  C132.47,45.04,132.47,45.04,132.47,45.04C132.47,45.04,132.48,45.04,132.47,45.04C132.48,45.04,132.48,45.04,132.47,45.04  C132.48,45.04,132.48,45.04,132.47,45.04c0.01,0,0.01,0,0.01,0c0,0,0,0,0,0c1.55-0.41,1.73-2,1.6-2.88  c-0.18-1.15-1.15-2.68-2.74-2.46c0,0,0,0,0,0c0,0,0,0,0,0c0,0,0,0,0,0c0,0,0,0,0,0c0,0,0,0,0,0c0,0,0,0,0,0c0,0,0,0,0,0  c0,0,0,0,0,0c-0.27,0.07-0.68,0.18-1.07,0.67C128.97,42.02,130.15,45.34,132.47,45.04z M132.45,55.75  c0.02-1.12-0.65-2.83-2.57-2.63c0,0,0,0,0,0c0,0,0,0,0,0c0,0,0,0,0,0c0,0,0,0,0,0c0,0,0,0,0,0c0,0,0,0,0,0c0,0,0,0,0,0c0,0,0,0,0,0  c-0.32,0.07-1.07,0.24-1.7,1.09c-1.37,1.86-0.45,4.77,1.99,4.5c0,0,0,0,0,0c0,0,0,0,0,0s0,0,0,0c0,0,0,0,0,0c0,0,0,0,0,0  c0,0,0,0,0,0c0,0,0,0,0,0c0,0,0,0,0,0C131.93,58.31,132.43,56.66,132.45,55.75z M131.55,72.44c0.26-1.05-0.15-2.43-1.87-2.24  c-0.72,0.12-1.43,0.56-1.96,1.2c-1.33,1.6-0.9,3.78,1.25,3.54c0,0,0,0,0,0s0,0,0,0c0,0,0,0,0,0c0,0,0,0,0,0c0,0,0,0,0,0  c0,0,0,0,0,0c0,0,0,0,0,0c0,0,0,0,0,0C130.61,74.58,131.36,73.2,131.55,72.44z M132.47,64.47c0.17-1.2-0.44-2.8-2.3-2.6  c-0.68,0.12-1.3,0.49-1.78,1.08c-1.38,1.67-1.03,4.59,1.56,4.3c0,0,0,0,0,0c0,0,0,0,0,0c0,0,0,0,0,0c0,0,0,0,0,0c0,0,0,0,0,0  c0,0,0,0,0,0c0,0,0,0,0,0c0,0,0,0,0,0C131.69,66.86,132.35,65.32,132.47,64.47z M131.5,47.11c-0.08-1.17-0.98-2.73-2.71-2.56  c0,0,0,0,0,0c0,0,0,0,0,0c0,0,0,0,0,0c0,0,0,0,0,0c0,0,0,0,0,0c0,0,0,0,0,0c0,0,0,0,0,0c0,0,0,0,0,0  c-2.25,0.51-2.57,3.49-1.01,4.86C129.4,50.84,131.66,49.44,131.5,47.11z M129.79,79.6c0.47-1.19-0.19-2.06-1.43-1.86  c-1.76,0.37-2.97,2.15-2.59,3.2C126.31,82.44,129.02,81.54,129.79,79.6z M125.22,83.39c0.47-1.01-0.16-1.77-1.34-1.62  c-1.83,0.31-2.73,1.83-2.42,2.66C121.92,85.68,124.49,84.97,125.22,83.39z M122.44,80.69c0.27-0.79-0.07-1.86-1.66-1.76  c0,0,0,0,0,0c0,0,0,0,0,0c0,0,0,0,0,0c0,0,0,0,0,0c0,0,0,0,0,0c0,0,0,0,0,0c0,0,0,0,0,0c0,0,0,0,0,0c-1.87,0.28-2.7,1.9-2.24,2.81  C119.2,83.08,121.87,82.36,122.44,80.69z M119.09,77.68c0.19-0.81-0.25-1.93-1.83-1.89c0,0,0,0,0,0c0,0,0,0,0,0c0,0,0,0,0,0  c0,0,0,0,0,0c0,0,0,0,0,0c0,0,0,0,0,0c0,0,0,0,0,0c0,0,0,0,0,0c-1.84,0.22-2.77,1.95-2.03,3  C116.16,80.12,118.69,79.39,119.09,77.68z M127.07,76.81c0.41-1.28-0.4-2.22-1.78-2.04c-2.1,0.37-2.97,2.24-2.52,3.27  C123.49,79.66,126.42,78.82,127.07,76.81z M110.78,92.92C110.78,92.92,110.78,92.92,110.78,92.92  C110.78,92.92,110.78,92.92,110.78,92.92C110.78,92.92,110.78,92.92,110.78,92.92C110.78,92.92,110.78,92.92,110.78,92.92  C110.78,92.92,110.78,92.92,110.78,92.92C110.78,92.92,110.78,92.92,110.78,92.92C110.78,92.92,110.78,92.92,110.78,92.92  C110.78,92.92,110.78,92.92,110.78,92.92c0.81-0.07,1.21-0.49,1.32-0.74c0.22-0.48-0.21-0.87-0.91-0.84  c-0.61,0.05-0.95,0.29-1.13,0.47C109.64,92.26,109.76,92.94,110.78,92.92z M127.32,85.72c0.36-0.63,0.41-1.57-0.97-1.4c0,0,0,0,0,0  c0,0,0,0,0,0c0,0,0,0,0,0c0,0,0,0,0,0c0,0,0,0,0,0c0,0,0,0,0,0s0,0,0,0c0,0,0,0,0,0c-1.65,0.34-2.68,1.77-2.48,2.52  C124.16,87.95,126.48,87.2,127.32,85.72z M131.77,82.16c0.57-1.13,0.12-1.89-0.99-1.68c-1.67,0.41-2.97,2.2-2.62,3.15  C128.58,84.79,130.91,83.84,131.77,82.16z M137.27,80.7c0.46-0.82,0.72-2.02-0.57-1.73c-1.56,0.53-3.01,2.64-2.75,3.57  C134.24,83.57,136.29,82.44,137.27,80.7z M130.66,86.3C130.66,86.3,130.66,86.3,130.66,86.3C130.66,86.3,130.66,86.3,130.66,86.3  C130.66,86.3,130.66,86.3,130.66,86.3C130.66,86.3,130.66,86.3,130.66,86.3C130.66,86.3,130.66,86.29,130.66,86.3  C130.66,86.29,130.66,86.29,130.66,86.3C130.67,86.29,130.67,86.29,130.66,86.3C130.67,86.29,130.67,86.29,130.66,86.3  c1.12-0.32,2-1.27,2.34-1.79c0.51-0.77,0.69-1.74-0.52-1.51c0,0,0,0,0,0c0,0,0,0,0,0c0,0,0,0,0,0c0,0,0,0,0,0c0,0,0,0,0,0  c0,0,0,0,0,0c0,0,0,0,0,0c0,0,0,0,0,0c-1.35,0.39-2.2,1.59-2.29,1.73C129.67,85.49,129.46,86.52,130.66,86.3z M126.42,89.33  C126.42,89.33,126.42,89.33,126.42,89.33C126.42,89.33,126.42,89.33,126.42,89.33C126.42,89.33,126.42,89.33,126.42,89.33  C126.43,89.33,126.43,89.33,126.42,89.33C126.43,89.33,126.43,89.33,126.42,89.33c0.01,0,0.01,0,0.01,0c0,0,0,0,0,0c0,0,0,0,0,0  c1.06-0.26,1.9-1.08,2.19-1.48c0.54-0.72,0.49-1.4-0.54-1.24c-0.75,0.15-1.63,0.75-2.15,1.44C125.38,88.8,125.4,89.49,126.42,89.33  z M124.17,90.8c0.03-0.03,0.06-0.08,0.09-0.11c0.31-0.43,0.41-1.02-0.59-0.89c0,0,0,0,0,0c0,0,0,0,0,0c0,0,0,0,0,0c0,0,0,0,0,0  c0,0,0,0,0,0c0,0,0,0,0,0c0,0,0,0,0,0c0,0,0,0,0,0c-1.19,0.24-2.27,1.22-2.24,1.8C121.47,92.39,123.29,91.86,124.17,90.8z   M120.64,86.67c0.25-0.59,0.03-1.38-1.24-1.3c-1.33,0.14-2.48,1.35-2.08,2.19C117.81,88.6,120.08,87.99,120.64,86.67z   M124.81,92.41c0.11-0.1,0.21-0.21,0.26-0.28c0.05-0.07,0.51-0.69-0.38-0.55c0,0,0,0,0,0c0,0,0,0,0,0c0,0,0,0,0,0c0,0,0,0,0,0  c0,0,0,0,0,0c0,0,0,0,0,0c0,0,0,0,0,0c0,0,0,0,0,0c-1.13,0.26-2.27,1.27-2.26,1.68C122.44,93.76,123.93,93.22,124.81,92.41z   M122.91,94.64C122.91,94.64,122.91,94.64,122.91,94.64C122.91,94.64,122.91,94.64,122.91,94.64  C122.91,94.64,122.91,94.64,122.91,94.64C122.91,94.64,122.91,94.64,122.91,94.64C122.91,94.64,122.91,94.64,122.91,94.64  C122.91,94.64,122.91,94.64,122.91,94.64C122.91,94.64,122.91,94.64,122.91,94.64C122.91,94.64,122.91,94.64,122.91,94.64  c0.68-0.18,1.43-0.64,1.78-0.88c0.37-0.26,0.5-0.43,0.54-0.48c0.11-0.18,0.01-0.24-0.31-0.17c-0.87,0.23-2.06,1.03-2.27,1.38  C122.49,94.73,122.79,94.67,122.91,94.64z M123.9,10.29C123.9,10.29,123.9,10.29,123.9,10.29C123.9,10.29,123.9,10.29,123.9,10.29  C123.9,10.29,123.9,10.29,123.9,10.29C123.89,10.29,123.89,10.29,123.9,10.29C123.89,10.29,123.89,10.29,123.9,10.29  C123.89,10.29,123.89,10.29,123.9,10.29C123.89,10.29,123.89,10.29,123.9,10.29C123.89,10.29,123.89,10.29,123.9,10.29  c-0.03,0.02-0.06,0.04-0.08,0.07c-0.24,0.46,1.94,2.51,2.79,2.28c0,0,0,0,0,0c0,0,0,0,0,0c0,0,0,0,0,0c0,0,0,0,0,0c0,0,0,0,0,0  c0,0,0,0,0,0c0,0,0,0,0,0c0,0,0,0,0,0c0.37-0.22-0.25-0.91-0.67-1.28C125.39,10.86,124.35,10.17,123.9,10.29z M132.98,48.03  c-2.26,0.6-2.64,3.8-1.11,5.23c1.58,1.48,3.88-0.08,3.78-2.56C135.58,49.01,134.33,47.76,132.98,48.03z M137.08,32.57  c-0.36-1.05-1.46-2.48-2.7-2.23c0,0-0.01,0-0.01,0c-1.52,0.53-0.89,3.83,0.9,4.79C136.7,35.89,137.72,34.45,137.08,32.57z   M116.21,89.66c0.22-0.47,0.03-1.12-1.08-1.08c-1.29,0.14-1.9,1.05-1.73,1.59C113.68,91.09,115.7,90.73,116.21,89.66z   M135.04,76.26c-1.19,0.34-1.93,1.32-2.19,1.73c-0.8,1.22-0.85,2.82,0.71,2.53c0,0,0,0,0,0s0,0,0,0c0,0,0,0,0,0c0,0,0,0,0,0  c0,0,0,0,0,0c0,0,0,0,0,0c0,0,0,0,0,0c0,0,0,0,0,0c1.32-0.39,2.2-1.62,2.51-2.29v0C136.6,77.1,136.35,76.03,135.04,76.26z   M135.95,37.35c-0.35-1.53-1.63-2.66-2.72-2.41c-0.19,0.06-0.51,0.16-0.79,0.51c-1.23,1.53,0.12,5.03,2.32,4.68c0,0,0,0,0,0  c0,0,0,0,0,0c0,0,0,0,0,0c0,0,0,0,0,0c0,0,0,0,0,0c0,0,0,0,0,0c0,0,0,0,0,0c0,0,0,0,0,0C136.11,39.71,136.14,38.18,135.95,37.35z   M132.68,73.35C132.68,73.35,132.68,73.35,132.68,73.35C132.68,73.35,132.67,73.35,132.68,73.35  C132.67,73.35,132.67,73.35,132.68,73.35C132.67,73.35,132.67,73.35,132.68,73.35C132.67,73.35,132.67,73.35,132.68,73.35  C132.67,73.35,132.67,73.35,132.68,73.35C132.67,73.35,132.67,73.35,132.68,73.35C132.67,73.35,132.67,73.36,132.68,73.35  c-0.8,0.2-1.47,0.66-2.01,1.36c-1.17,1.53-0.89,3.43,0.93,3.16c0,0,0,0,0,0c0,0,0,0,0,0c0,0,0,0,0,0c0,0,0,0,0,0c0,0,0,0,0,0  c0,0,0,0,0,0c0,0,0,0,0,0c0,0,0,0,0,0c1.49-0.38,2.31-1.68,2.56-2.4C134.59,74.29,134.14,73.14,132.68,73.35z M135.69,67.86  c0.24-1.16-0.22-2.76-1.98-2.51c-0.72,0.15-1.42,0.65-1.93,1.38c-1.28,1.82-0.78,4.26,1.36,3.95c0,0,0,0,0,0c0,0,0,0,0,0  c0,0,0,0,0,0c0,0,0,0,0,0c0,0,0,0,0,0c0,0,0,0,0,0c0,0,0,0,0,0c0,0,0,0,0,0C134.78,70.23,135.51,68.7,135.69,67.86z M136.2,59.42  c0.09-1.2-0.49-3-2.4-2.73c-2.18,0.45-3.02,3.63-1.81,5.15C133.33,63.55,136.01,62.01,136.2,59.42z M137.45,27.98  c-0.46-0.99-1.58-2.28-2.62-2.02c0,0,0,0,0,0c0,0,0,0,0,0c0,0,0,0,0,0c0,0,0,0,0,0c0,0,0,0,0,0c0,0,0,0,0,0c0,0,0,0,0,0  c0,0,0,0,0,0c-1.33,0.52-0.22,3.81,1.53,4.5C137.66,30.98,138.23,29.66,137.45,27.98z M138.15,45.6c-0.17-1.49-1.29-2.88-2.68-2.59  c-2.08,0.68-2.18,3.9-0.61,5.27C136.12,49.39,138.51,48.69,138.15,45.6z M114.8,9.78C114.8,9.78,114.8,9.78,114.8,9.78  C114.8,9.78,114.8,9.78,114.8,9.78C114.8,9.78,114.8,9.78,114.8,9.78C114.8,9.78,114.79,9.78,114.8,9.78  C114.79,9.78,114.79,9.78,114.8,9.78C114.79,9.78,114.79,9.78,114.8,9.78C114.79,9.78,114.79,9.78,114.8,9.78  C114.79,9.78,114.79,9.78,114.8,9.78c-0.03,0.01-0.07,0.02-0.1,0.04c-0.38,0.27,0.5,1.69,1.32,1.79c0.39,0.05,0.52-0.32,0.1-0.92  C115.84,10.29,115.24,9.75,114.8,9.78z M113.53,5.51c-0.32-0.23-0.86-0.54-1.06-0.52c-0.02,0.01-0.03,0.02-0.03,0.02  c-0.07,0.2,1.25,1.11,1.52,1.05C114.1,6.02,113.91,5.78,113.53,5.51z M110.84,5.41c-0.01,0-0.03,0.01-0.03,0.02  c-0.12,0.14,0.67,0.97,1.02,0.95c0.12-0.01,0.06-0.22-0.21-0.48C111.35,5.63,110.97,5.4,110.84,5.41z M111.6,7.71  c-0.04,0.01-0.06,0.02-0.06,0.02c-0.24,0.18,0.37,1.18,0.9,1.27c0.29,0.05,0.31-0.27,0.04-0.65C112.3,8.08,111.88,7.7,111.6,7.71z   M115.13,5.05c-0.41-0.24-1.1-0.55-1.3-0.53c0,0-0.01,0.01-0.01,0.01c-0.13,0.17,1.71,1.19,1.96,1.09  C115.9,5.58,115.61,5.32,115.13,5.05z M119.86,8.39c-0.02,0.01-0.05,0.03-0.06,0.05c-0.22,0.38,1.77,1.98,2.4,1.92  c0.35-0.03,0.11-0.52-0.53-1.06C121.16,8.87,120.24,8.32,119.86,8.39z M123.61,8.44c-0.59-0.41-1.57-0.92-1.88-0.83c0,0,0,0,0,0  s0,0,0,0c0,0,0,0,0,0c0,0,0,0,0,0c0,0,0,0,0,0c0,0,0,0,0,0c0,0,0,0,0,0c0,0,0,0,0,0c-0.01,0.01-0.02,0.01-0.03,0.02  c-0.16,0.21,2.09,2.04,2.76,1.83c0,0,0,0,0,0c0,0,0,0,0,0c0,0,0,0,0,0c0,0,0,0,0,0c0,0,0,0,0,0c0,0,0,0,0,0c0,0,0,0,0,0  c0,0,0,0,0,0C124.68,9.28,124,8.72,123.61,8.44z M116.01,6.62c-0.01,0-0.02,0.01-0.03,0.02c-0.25,0.22,1.48,1.55,1.98,1.51  c0.28-0.02,0.06-0.39-0.49-0.81C117.06,7.02,116.32,6.57,116.01,6.62z M119.3,6.68c-0.58-0.36-1.4-0.73-1.63-0.69  c-0.01,0-0.02,0.01-0.02,0.01c-0.18,0.22,1.95,1.55,2.39,1.49C120.29,7.47,119.95,7.09,119.3,6.68z M110.34,25.63  c0.83,0.71,1.87,0.09,1.76-1.05c-0.08-0.84-0.71-1.52-1.39-1.49C109.56,23.22,109.47,24.89,110.34,25.63z M110.19,84.65  c0.16-0.74-0.5-1.36-1.44-1.34c-1.35,0.09-1.98,1.14-1.49,1.89C107.93,86.23,109.93,85.85,110.19,84.65z M115.06,18.39  C115.06,18.39,115.06,18.39,115.06,18.39C115.06,18.39,115.06,18.39,115.06,18.39C115.06,18.39,115.06,18.39,115.06,18.39  C115.07,18.39,115.07,18.39,115.06,18.39C115.07,18.39,115.07,18.39,115.06,18.39C115.07,18.39,115.07,18.39,115.06,18.39  C115.07,18.39,115.07,18.39,115.06,18.39C115.07,18.39,115.07,18.39,115.06,18.39c0.67-0.12,0.62-0.82,0.49-1.21  c-0.17-0.49-0.69-1.25-1.41-1.22c-0.1,0.01-0.25,0.06-0.37,0.19C113.23,16.78,113.99,18.43,115.06,18.39z M107.04,90.37  c0.41,0.8,2.07,0.58,2.35-0.31c0.12-0.38-0.15-0.96-1.11-0.97C107.17,89.16,106.8,89.91,107.04,90.37z M113.47,87.31  c0.18-0.59-0.26-1.22-1.3-1.21c0,0,0,0,0,0c0,0,0,0,0,0c0,0,0,0,0,0c0,0,0,0,0,0c0,0,0,0,0,0c0,0,0,0,0,0c0,0,0,0,0,0c0,0,0,0,0,0  c-1.31,0.12-1.99,1.1-1.6,1.79C111.14,88.95,113.14,88.37,113.47,87.31z M108.59,34.59C108.59,34.59,108.59,34.59,108.59,34.59  C108.59,34.59,108.59,34.59,108.59,34.59C108.59,34.59,108.59,34.59,108.59,34.59C108.59,34.59,108.59,34.59,108.59,34.59  C108.59,34.59,108.59,34.59,108.59,34.59C108.59,34.59,108.58,34.59,108.59,34.59c-0.01,0-0.01,0-0.01,0c0,0,0,0,0,0  c-0.33,0.03-0.6,0.14-0.82,0.31c0.73,0.09,1.45,0.23,2.14,0.44C109.63,34.93,109.21,34.61,108.59,34.59z M114.23,93.95  c0.22-0.31,0.15-0.74-0.68-0.7c0,0,0,0,0,0c0,0,0,0,0,0c0,0,0,0,0,0c0,0,0,0,0,0c0,0,0,0,0,0c0,0,0,0,0,0c0,0,0,0,0,0c0,0,0,0,0,0  c-0.95,0.11-1.45,0.68-1.37,1.03C112.29,94.86,113.75,94.63,114.23,93.95z M109.56,16.52c-0.02,0-0.05,0-0.07,0.01  c-0.67,0.13-0.69,1.36-0.02,1.85c0.54,0.4,1.19,0.05,1.07-0.8C110.45,16.99,110,16.5,109.56,16.52z M111.18,15.06  c0.52,0.29,0.92-0.14,0.74-0.8c-0.11-0.38-0.49-0.95-0.97-0.95c-0.02,0-0.05,0.01-0.07,0.01  C110.31,13.46,110.52,14.69,111.18,15.06z M107.08,20.14c-0.61,0.57-0.3,1.92,0.64,1.96c0,0,0,0,0,0s0,0,0,0c0,0,0,0,0,0  c0,0,0,0,0,0c0,0,0,0,0,0c0,0,0,0,0,0c0,0,0,0,0,0c0,0,0,0,0,0c0.64-0.06,0.78-0.66,0.76-1.02c-0.02-0.42-0.3-1.11-0.95-1.14  C107.43,19.96,107.26,19.97,107.08,20.14z M143.72,18.6C143.72,18.6,143.72,18.6,143.72,18.6  C143.72,18.59,143.72,18.59,143.72,18.6C143.72,18.59,143.72,18.59,143.72,18.6C143.72,18.59,143.72,18.59,143.72,18.6  C143.72,18.59,143.72,18.59,143.72,18.6C143.72,18.59,143.72,18.59,143.72,18.6c-0.15-0.4-0.91-1.33-1.38-1.86  c-0.57-0.64-1.21-1.27-1.35-1.23c-0.01,0.02-0.01,0.04,0,0.06c0,0,0,0,0,0c0,0,0,0,0,0c0,0,0,0,0,0c0,0,0,0,0,0c0,0,0,0,0,0  c0,0,0,0,0,0c0,0,0,0,0,0c0,0,0,0,0,0c0.23,0.59,2.5,3.16,2.73,3.09C143.72,18.64,143.72,18.61,143.72,18.6  C143.72,18.6,143.72,18.6,143.72,18.6C143.72,18.6,143.72,18.6,143.72,18.6z M130.84,7.72c-0.01-0.15-0.73-0.61-1.24-0.9  c-0.6-0.33-1.32-0.65-1.43-0.59c0,0.01,0,0.01,0,0.02C128.31,6.55,130.69,7.85,130.84,7.72z M124.06,5.93  C124.06,5.93,124.06,5.93,124.06,5.93C124.06,5.93,124.06,5.93,124.06,5.93C124.06,5.93,124.06,5.93,124.06,5.93  C124.06,5.93,124.06,5.93,124.06,5.93C124.06,5.93,124.06,5.93,124.06,5.93C124.06,5.93,124.06,5.93,124.06,5.93  C124.06,5.93,124.06,5.93,124.06,5.93C124.06,5.93,124.06,5.93,124.06,5.93c0,0.01,0,0.02,0,0.02c0.03,0.21,2.58,1.68,2.87,1.44  c0,0,0,0,0,0c0,0,0,0,0,0c0,0,0,0,0,0c0,0,0,0,0,0c0,0,0,0,0,0c0,0,0,0,0,0c0,0,0,0,0,0c0,0,0,0,0,0c0.03-0.16-0.58-0.56-1.17-0.87  C125.04,6.16,124.19,5.83,124.06,5.93z M125.99,5.55c-0.67-0.31-1.44-0.59-1.49-0.49c0.07,0.21,2.36,1.29,2.61,1.23  C127.27,6.25,126.72,5.89,125.99,5.55z M125.83,9.33c-0.01,0.01-0.02,0.02-0.03,0.03c-0.18,0.29,2.26,2.49,3.02,2.19c0,0,0,0,0,0  c0,0,0,0,0,0c0,0,0,0,0,0c0,0,0,0,0,0c0,0,0,0,0,0c0,0,0,0,0,0c0,0,0,0,0,0c0,0,0,0,0,0c0.25-0.23-0.5-0.92-0.94-1.25  C127.15,9.73,126.15,9.21,125.83,9.33z M128,7.3C128,7.3,128,7.3,128,7.3C128,7.3,128,7.3,128,7.3C128,7.3,128,7.3,128,7.3  C128,7.3,128,7.3,128,7.3C128,7.3,128,7.3,128,7.3C128,7.3,128,7.3,128,7.3C128,7.3,128,7.3,128,7.3C128,7.3,128,7.3,128,7.3  c0,0.01,0,0.02,0,0.03c0.04,0.18,0.83,0.73,1.58,1.16c0.38,0.22,1.27,0.71,1.38,0.55c0,0,0,0,0,0c0,0,0,0,0,0c0,0,0,0,0,0  c0,0,0,0,0,0c0,0,0,0,0,0c0,0,0,0,0,0c0,0,0,0,0,0c0,0,0,0,0,0c0.01-0.22-0.75-0.75-1.27-1.06C128.96,7.55,128.11,7.17,128,7.3z   M109.36,6.49c0.12,0.03,0.15-0.09,0-0.31c-0.09-0.13-0.26-0.32-0.39-0.32c-0.01,0-0.02,0-0.02,0  C108.82,5.92,109.1,6.43,109.36,6.49z M126.16,58.19c-2.35,0.44-3.17,3.17-1.93,4.62c1.42,1.67,4.2,0.43,4.43-1.97v0  C128.81,59.21,127.67,58,126.16,58.19z M118.36,91.63c0.32-0.49,0.09-0.97-0.82-0.91c0,0,0,0,0,0s0,0,0,0c0,0,0,0,0,0c0,0,0,0,0,0  s0,0,0,0s0,0,0,0c0,0,0,0,0,0c0,0,0,0,0,0c-0.81,0.11-1.28,0.5-1.48,0.72c-0.49,0.52-0.5,1.23,0.6,1.16c0,0,0,0,0,0c0,0,0,0,0,0  c0,0,0,0,0,0c0,0,0,0,0,0s0,0,0,0c0,0,0,0,0,0s0,0,0,0s0,0,0,0C117.59,92.46,118.18,91.91,118.36,91.63z M114.84,12.71  c-0.08,0.01-0.12,0.03-0.14,0.04c-0.57,0.31,0.09,1.77,0.95,2.09c0.64,0.23,0.95-0.32,0.59-1.05  C116.01,13.32,115.39,12.68,114.84,12.71z M108.59,4.24c0.03,0.01,0.04,0,0.03-0.03c-0.01-0.02-0.01-0.02-0.09-0.18  c-0.01-0.02-0.01-0.02-0.21-0.13c-0.07-0.04-0.09-0.04-0.11-0.04c0,0,0,0-0.01,0C108.16,3.89,108.48,4.21,108.59,4.24z   M109.09,76.46c-1.48,0.04-2.41,1.47-1.62,2.51c0.91,1.2,3.1,0.68,3.34-0.8C110.93,77.47,110.47,76.49,109.09,76.46z M134.32,15.65  c-0.74-0.76-1.81-1.48-2.25-1.3c-0.02,0.01-0.04,0.03-0.06,0.05c-0.44,0.6,2.03,3.17,3,3.12C135.57,17.5,135.23,16.58,134.32,15.65  z M130.47,19.24c-0.03,0.01-0.07,0.03-0.09,0.04c-0.96,0.59,0.82,3.49,2.3,3.73c0.91,0.15,1.05-0.88,0.28-2.08  C132.24,19.83,131.08,19.04,130.47,19.24z M129.56,15.59C129.56,15.59,129.56,15.59,129.56,15.59  C129.56,15.59,129.56,15.59,129.56,15.59C129.56,15.59,129.56,15.59,129.56,15.59C129.56,15.59,129.56,15.59,129.56,15.59  C129.56,15.59,129.56,15.59,129.56,15.59C129.56,15.59,129.56,15.59,129.56,15.59C129.56,15.59,129.56,15.59,129.56,15.59  C129.56,15.59,129.56,15.59,129.56,15.59c-0.02,0.01-0.05,0.03-0.07,0.04c-0.66,0.51,1.36,3.07,2.57,3.25  c0.78,0.12,0.71-0.79-0.14-1.83C131.34,16.33,130.19,15.42,129.56,15.59z M112.56,11.15c-0.16-0.33-0.55-0.8-0.92-0.79  c-0.06,0.01-0.09,0.03-0.1,0.03c-0.37,0.22,0.05,1.33,0.7,1.53C112.6,12.03,112.83,11.71,112.56,11.15z M116.34,96.07  C116.34,96.07,116.34,96.07,116.34,96.07C116.33,96.07,116.33,96.07,116.34,96.07C116.33,96.07,116.33,96.07,116.34,96.07  C116.33,96.07,116.33,96.07,116.34,96.07C116.33,96.07,116.33,96.07,116.34,96.07C116.33,96.07,116.33,96.07,116.34,96.07  C116.33,96.07,116.33,96.07,116.34,96.07C116.33,96.07,116.33,96.07,116.34,96.07c-0.66,0.1-1.27,0.46-1.42,0.66  c-0.06,0.08-0.14,0.24,0.31,0.2c0,0,0,0,0,0s0,0,0,0c0,0,0,0,0,0c0,0,0,0,0,0c0,0,0,0,0,0c0,0,0,0,0,0c0,0,0,0,0,0c0,0,0,0,0,0  c0.54-0.08,1.02-0.33,1.22-0.46h0c0.12-0.08,0.18-0.14,0.21-0.17C116.72,96.22,116.87,96.01,116.34,96.07z M150.48,30.48  c0.01-0.02,0.02-0.06,0.02-0.08c0,0,0,0,0,0c0,0,0,0,0,0s0,0,0,0c0,0,0,0,0,0c0,0,0,0,0,0c0,0,0,0,0,0c0,0,0,0,0,0c0,0,0,0,0,0  c-0.04-0.53-0.61-1.87-0.99-2.64c-0.45-0.91-1.02-1.88-1.21-1.85c-0.01,0.02-0.02,0.05-0.02,0.08  C148.29,26.56,150.09,30.57,150.48,30.48z M109.28,68.67C109.27,68.67,109.27,68.67,109.28,68.67  C109.27,68.67,109.27,68.67,109.28,68.67C109.27,68.67,109.27,68.67,109.28,68.67C109.27,68.67,109.27,68.67,109.28,68.67  C109.27,68.67,109.27,68.67,109.28,68.67C109.27,68.67,109.27,68.67,109.28,68.67C109.27,68.67,109.27,68.67,109.28,68.67  C109.27,68.67,109.27,68.67,109.28,68.67c-1.9,0.14-2.41,1.94-1.72,2.95c0.99,1.45,3.43,0.84,3.67-0.91  C111.34,69.89,110.81,68.71,109.28,68.67z M112.76,21.9c0.82,0.54,1.61-0.08,1.4-1.12c-0.16-0.79-0.8-1.42-1.41-1.38  c-0.03,0-0.07,0.01-0.1,0.01C111.81,19.61,111.73,21.22,112.76,21.9z M145.92,23.48C145.92,23.48,145.92,23.48,145.92,23.48  C145.92,23.48,145.92,23.48,145.92,23.48C145.92,23.48,145.92,23.48,145.92,23.48C145.92,23.48,145.92,23.48,145.92,23.48  C145.92,23.48,145.92,23.48,145.92,23.48C145.92,23.48,145.92,23.48,145.92,23.48C145.92,23.48,145.92,23.48,145.92,23.48  C145.92,23.48,145.92,23.48,145.92,23.48c-0.01,0.08-0.03,0.19,0.07,0.53c0.38,1.29,2.22,4.32,2.52,3.73c0,0,0,0,0,0c0,0,0,0,0,0  c0,0,0,0,0,0c0,0,0,0,0,0c0,0,0,0,0,0c0,0,0,0,0,0c0,0,0,0,0,0c0,0,0,0,0,0c0.1-0.54-0.58-1.89-0.96-2.53  C146.9,24.11,146.1,23.15,145.92,23.48z M109.36,9.09C109.36,9.09,109.36,9.09,109.36,9.09C109.36,9.09,109.36,9.09,109.36,9.09  C109.36,9.09,109.36,9.09,109.36,9.09C109.36,9.09,109.36,9.09,109.36,9.09C109.36,9.09,109.36,9.09,109.36,9.09  C109.36,9.09,109.36,9.09,109.36,9.09C109.36,9.09,109.36,9.09,109.36,9.09C109.36,9.09,109.36,9.09,109.36,9.09  c0.24-0.04,0.1-0.4,0.08-0.44c-0.11-0.26-0.31-0.45-0.46-0.44c-0.03,0-0.06,0.01-0.08,0.04C108.73,8.44,109.02,9.09,109.36,9.09z   M138.87,71.75c-2.21,0.9-3.31,4.29-1.98,4.8c0.95,0.36,2.53-0.94,3.19-2.62h0C140.64,72.5,140.29,71.28,138.87,71.75z   M151.72,33.29c-0.01,0.03-0.02,0.06-0.02,0.09c0,0.6,1.13,5,1.48,5.14c0.09-0.22-0.26-1.76-0.64-3.07  C152.4,34.96,151.93,33.36,151.72,33.29z M141.55,77.27c-0.81,0.34-1.97,1.65-2.53,2.86c-0.08,0.17-0.72,1.62,0.34,1.25  c0,0,0,0,0,0c0,0,0,0,0,0c0,0,0,0,0,0c0,0,0,0,0,0c0,0,0,0,0,0c0,0,0,0,0,0c0,0,0,0,0,0c0,0,0,0,0,0c0.98-0.46,1.93-1.74,2.29-2.34  c0.07-0.12,0.17-0.29,0.23-0.42C142.19,78,142.5,76.94,141.55,77.27z M140.18,72.04c0-0.01,0-0.01,0-0.02c0,0-0.01,0-0.01,0l0,0  C140.17,72.03,140.17,72.03,140.18,72.04C140.18,72.04,140.18,72.04,140.18,72.04z M153.44,39.17c-0.22-1.07-0.46-2.16-0.59-2.67  C153.02,37.29,153.24,38.25,153.44,39.17z M154.37,46.52c-0.07-1.39-0.3-3.23-0.44-4.62c-0.06-0.45-0.08-0.47-0.11-0.55  c-0.01,0.03-0.01,0.07-0.01,0.1c0,0.8,0.42,5.22,0.57,5.55C154.38,46.97,154.39,46.91,154.37,46.52z M154.16,46.65  c-0.02,0.03-0.04,0.07-0.05,0.1c-0.27,0.85-0.29,5.33-0.02,5.91c0.01,0.01,0.03,0.01,0.05,0.02c0.2-0.28,0.28-2.26,0.28-3.51  c0-0.49-0.02-2.12-0.2-2.5C154.19,46.66,154.17,46.65,154.16,46.65z M153.11,38.81c-0.26-0.73-0.36-0.51-0.4-0.44c0,0,0,0,0,0  c0,0,0,0,0,0c0,0,0,0,0,0c0,0,0,0,0,0c0,0,0,0,0,0c0,0,0,0,0,0c0,0,0,0,0,0c0,0,0,0,0,0c-0.22,0.91,0.35,4.19,0.76,5.26  c0.21,0.55,0.3,0.37,0.33,0.28c0,0,0,0,0,0c0,0,0,0,0,0s0,0,0,0c0,0,0,0,0,0c0,0,0,0,0,0c0,0,0,0,0,0c0,0,0,0,0,0s0,0,0,0  c0.16-0.67-0.09-2.41-0.24-3.24C153.49,40.23,153.32,39.4,153.11,38.81z M120.4,94.07c-0.93,0.18-1.86,0.86-1.9,1.17  c-0.04,0.41,1.27,0.04,2.04-0.58c0.15-0.12,0.23-0.21,0.27-0.27C120.88,94.3,121.06,93.98,120.4,94.07z M153.74,40.7  c-0.08-0.47-0.18-0.99-0.3-1.53c0.14,0.7,0.28,1.39,0.36,1.9L153.74,40.7z M129.28,90.44c-1.1,0.35-2.62,1.65-2.62,2  c0,0.36,1.42-0.37,2.31-1.1c0.42-0.35,0.58-0.57,0.62-0.65C129.71,90.49,129.69,90.32,129.28,90.44z M129.08,88.64  C129.08,88.64,129.08,88.64,129.08,88.64C129.08,88.64,129.08,88.64,129.08,88.64C129.08,88.64,129.08,88.64,129.08,88.64  C129.08,88.64,129.08,88.64,129.08,88.64C129.08,88.64,129.08,88.64,129.08,88.64C129.08,88.64,129.08,88.64,129.08,88.64  C129.08,88.64,129.08,88.64,129.08,88.64C129.08,88.64,129.08,88.64,129.08,88.64c-1.19,0.33-2.59,1.63-2.56,2.2  c0.03,0.66,1.74-0.16,2.66-1.13v0c0.13-0.13,0.25-0.28,0.3-0.37C129.54,89.25,130.07,88.45,129.08,88.64z M122.78,88.89  c0.46-0.74,0.03-1.29-0.92-1.16c-1.36,0.23-2.39,1.33-2.19,2.01C119.94,90.67,122.04,90.1,122.78,88.89z M133.62,87.31  C133.62,87.31,133.62,87.31,133.62,87.31C133.61,87.31,133.61,87.31,133.62,87.31C133.61,87.31,133.61,87.31,133.62,87.31  C133.61,87.31,133.61,87.31,133.62,87.31C133.61,87.31,133.61,87.31,133.62,87.31C133.61,87.31,133.61,87.31,133.62,87.31  C133.61,87.31,133.61,87.31,133.62,87.31C133.61,87.31,133.61,87.31,133.62,87.31c-1.18,0.45-2.84,2.11-2.83,2.53  c0.02,0.41,1.46-0.4,2.49-1.41c0.46-0.45,0.62-0.73,0.67-0.82C134.11,87.3,133.99,87.2,133.62,87.31z M137.63,81.45  c-1.45,0.57-2.94,2.63-2.84,3.35c0.11,0.77,1.85-0.31,2.91-1.79c0.14-0.19,0.27-0.41,0.33-0.53  C138.46,81.67,138.29,81.23,137.63,81.45z M133.43,85.25c-1.42,0.47-2.87,2.2-2.75,2.81c0.13,0.69,1.91-0.36,2.86-1.51v0  c0.11-0.14,0.24-0.32,0.32-0.45C133.92,85.99,134.47,85,133.43,85.25z M140.65,74.57c-1.2,0.48-2.04,1.88-2.19,2.15  c-0.78,1.38-0.79,2.69,0.37,2.37c0,0,0,0,0,0c0,0,0,0,0,0c0,0,0,0,0,0c0,0,0,0,0,0c0,0,0,0,0,0c0,0,0,0,0,0c0,0,0,0,0,0  c0,0,0,0,0,0c1.16-0.47,2.08-1.86,2.4-2.53C141.71,75.56,141.85,74.24,140.65,74.57z M141.71,79.77c-1.06,0.59-2.51,2.49-2.82,3.32  c-0.22,0.58,0.15,0.43,0.29,0.37c0,0,0,0,0,0c0,0,0,0,0,0c0,0,0,0,0,0c0,0,0,0,0,0c0,0,0,0,0,0c0,0,0,0,0,0c0,0,0,0,0,0  c0,0,0,0,0,0c0.8-0.44,1.74-1.55,2.17-2.14c0.46-0.63,0.63-1.02,0.68-1.15C142.28,79.53,141.85,79.71,141.71,79.77z M137.79,83.74  C137.79,83.74,137.79,83.74,137.79,83.74C137.79,83.74,137.79,83.74,137.79,83.74C137.79,83.74,137.79,83.74,137.79,83.74  C137.78,83.74,137.78,83.74,137.79,83.74C137.78,83.74,137.78,83.74,137.79,83.74C137.78,83.74,137.78,83.74,137.79,83.74  C137.78,83.74,137.78,83.74,137.79,83.74C137.78,83.75,137.78,83.75,137.79,83.74c-1.25,0.58-2.93,2.55-2.91,3.07  c0.02,0.5,1.48-0.48,2.56-1.73c0.48-0.55,0.65-0.88,0.7-1C138.3,83.72,138.18,83.6,137.79,83.74z M108.37,11.94  c0.29,0.18,0.53-0.1,0.43-0.5c-0.05-0.22-0.24-0.57-0.53-0.58c0,0,0,0,0,0s0,0,0,0c0,0,0,0,0,0c0,0,0,0,0,0c0,0,0,0,0,0  c0,0,0,0,0,0c0,0,0,0,0,0c0,0,0,0,0,0c-0.01,0-0.03,0-0.04,0.01C107.9,10.94,108,11.71,108.37,11.94z M125.45,13.34  c-0.02,0.01-0.05,0.02-0.07,0.04c-0.66,0.47,1.35,2.78,2.47,2.84c0.57,0.03,0.6-0.64-0.23-1.58  C127.1,14.03,126.04,13.21,125.45,13.34z M130.17,13.44c-0.62-0.59-1.73-1.32-2.19-1.17c-0.06,0.03-0.08,0.07-0.08,0.09  c-0.22,0.56,2.19,2.98,3.06,2.69c0,0,0,0,0,0c0,0,0,0,0,0c0,0,0,0,0,0c0,0,0,0,0,0c0,0,0,0,0,0c0,0,0,0,0,0c0,0,0,0,0,0  c0,0,0,0,0,0C131.34,14.76,130.69,13.93,130.17,13.44z M126.88,28.35c1.19,0.49,2.15-0.44,1.51-2.05c-0.32-0.8-1.25-2-2.41-1.85  c0,0,0,0,0,0c0,0,0,0,0,0c0,0,0,0,0,0c0,0,0,0,0,0c0,0,0,0,0,0c0,0,0,0,0,0c0,0,0,0,0,0c0,0,0,0,0,0c-0.04,0.01-0.1,0.02-0.14,0.04  C124.51,24.97,125.24,27.68,126.88,28.35z M124.52,28.67c-1.4,0.43-1.37,3.03,0.43,4.02c1.4,0.77,2.64-0.34,2.21-1.98  c-0.23-0.87-1.1-2.2-2.47-2.08C124.63,28.64,124.56,28.66,124.52,28.67z M130.5,36.55C130.5,36.55,130.5,36.55,130.5,36.55  C130.51,36.55,130.51,36.55,130.5,36.55C130.51,36.55,130.51,36.55,130.5,36.55C130.51,36.55,130.51,36.55,130.5,36.55  C130.51,36.55,130.51,36.55,130.5,36.55c0.01,0,0.01,0,0.01,0s0,0,0,0c0,0,0,0,0,0c1.3-0.37,1.3-1.82,1.12-2.53  c-0.25-1.01-1.28-2.42-2.66-2.24c-0.21,0.04-0.51,0.16-0.76,0.45C127.02,33.64,128.32,36.84,130.5,36.55z M128.16,41.28  C128.16,41.28,128.16,41.28,128.16,41.28C128.16,41.28,128.16,41.28,128.16,41.28C128.16,41.28,128.16,41.28,128.16,41.28  C128.16,41.28,128.16,41.28,128.16,41.28C128.16,41.28,128.16,41.28,128.16,41.28C128.17,41.28,128.17,41.28,128.16,41.28  C128.17,41.28,128.17,41.28,128.16,41.28C128.17,41.28,128.17,41.28,128.16,41.28c1.48-0.34,1.65-1.82,1.54-2.56  c-0.16-1.05-1.12-2.53-2.67-2.37c-0.41,0.07-0.76,0.28-1.04,0.61C124.73,38.48,125.9,41.5,128.16,41.28z M122.42,17.79  c-0.04,0.01-0.12,0.04-0.12,0.04c-0.89,0.37-0.08,2.66,1.42,3.14c0.98,0.31,1.39-0.54,0.79-1.65  C124.15,18.62,123.25,17.69,122.42,17.79z M128.72,20.04C128.72,20.04,128.72,20.04,128.72,20.04  C128.72,20.04,128.72,20.04,128.72,20.04C128.72,20.04,128.72,20.04,128.72,20.04C128.72,20.04,128.72,20.04,128.72,20.04  C128.72,20.04,128.73,20.04,128.72,20.04C128.73,20.03,128.73,20.03,128.72,20.04C128.73,20.03,128.73,20.03,128.72,20.04  C128.73,20.03,128.73,20.03,128.72,20.04c0.7-0.29,0.26-1.26-0.1-1.79c-0.48-0.7-1.51-1.63-2.27-1.49  c-0.07,0.03-0.16,0.06-0.23,0.15C125.56,17.66,127.37,20.3,128.72,20.04z M128.61,24.16C128.61,24.16,128.61,24.16,128.61,24.16  C128.61,24.16,128.61,24.16,128.61,24.16C128.61,24.16,128.61,24.16,128.61,24.16C128.61,24.16,128.61,24.16,128.61,24.16  C128.61,24.16,128.61,24.16,128.61,24.16C128.61,24.16,128.61,24.16,128.61,24.16C128.62,24.16,128.62,24.16,128.61,24.16  c0.01,0,0.01,0,0.01,0c0.87-0.29,0.57-1.41,0.29-1.96c-0.41-0.82-1.47-1.88-2.39-1.74c0,0,0,0,0,0c0,0,0,0,0,0c0,0,0,0,0,0  c0,0,0,0,0,0c0,0,0,0,0,0c0,0,0,0,0,0c0,0,0,0,0,0c0,0,0,0,0,0c-0.13,0.05-0.25,0.09-0.37,0.25  C125.45,21.72,127.06,24.39,128.61,24.16z M116.28,22.47c-1.15,0.28-0.99,2.3,0.24,3c0.96,0.55,2.03-0.1,1.7-1.42  c-0.16-0.64-0.79-1.65-1.82-1.6C116.37,22.45,116.32,22.46,116.28,22.47z M117.56,9.13c-0.03,0.01-0.06,0.02-0.08,0.04  c-0.37,0.37,1.22,1.94,1.93,1.9c0.38-0.02,0.26-0.48-0.26-1.02C118.74,9.63,117.98,9.07,117.56,9.13z M118.38,21.58  c0.89,0.41,1.69-0.22,1.27-1.4c-0.24-0.65-0.96-1.53-1.83-1.47c0,0,0,0,0,0s0,0,0,0c0,0,0,0,0,0c0,0,0,0,0,0c0,0,0,0,0,0s0,0,0,0  c0,0,0,0,0,0c0,0,0,0,0,0c-0.06,0.01-0.15,0.03-0.21,0.06C116.68,19.18,117.2,21.04,118.38,21.58z M118.39,12  c-0.08,0.02-0.12,0.05-0.13,0.06c-0.46,0.37,0.6,2.06,1.62,2.27c0.64,0.13,0.74-0.48,0.2-1.22C119.72,12.61,118.96,11.94,118.39,12  z M124.37,41.05c-2.12,0.4-2.43,3.12-0.96,4.41c1.56,1.37,3.76,0.2,3.62-1.93C126.93,42.04,125.69,40.88,124.37,41.05z   M121.41,11.18c-0.03,0.01-0.08,0.03-0.1,0.06c-0.42,0.44,1.32,2.29,2.22,2.36c0.56,0.04,0.47-0.57-0.18-1.29  C122.87,11.78,121.93,11.1,121.41,11.18z M123.34,25.08C123.34,25.08,123.34,25.08,123.34,25.08  C123.34,25.08,123.34,25.08,123.34,25.08C123.34,25.08,123.34,25.08,123.34,25.08C123.34,25.08,123.34,25.08,123.34,25.08  C123.34,25.08,123.34,25.08,123.34,25.08C123.34,25.08,123.34,25.08,123.34,25.08C123.34,25.08,123.34,25.08,123.34,25.08  C123.34,25.08,123.34,25.08,123.34,25.08c0.98-0.24,0.85-1.32,0.65-1.85c-0.28-0.74-1.17-1.79-2.18-1.7c0,0,0,0,0,0c0,0,0,0,0,0  c0,0,0,0,0,0c0,0,0,0,0,0c0,0,0,0,0,0c0,0,0,0,0,0c0,0,0,0,0,0c0,0,0,0,0,0c-0.13,0.03-0.35,0.09-0.52,0.31  C120.51,22.85,121.74,25.23,123.34,25.08z M122.28,14.32C122.28,14.32,122.28,14.32,122.28,14.32  C122.28,14.32,122.28,14.32,122.28,14.32C122.27,14.32,122.27,14.32,122.28,14.32C122.27,14.32,122.27,14.32,122.28,14.32  C122.27,14.32,122.27,14.32,122.28,14.32C122.27,14.32,122.27,14.32,122.28,14.32C122.27,14.32,122.27,14.32,122.28,14.32  C122.27,14.32,122.27,14.32,122.28,14.32c-0.05,0.02-0.11,0.04-0.15,0.07c-0.57,0.45,0.69,2.53,1.93,2.78  c0.77,0.15,0.88-0.63,0.22-1.54C123.87,15.05,122.95,14.23,122.28,14.32z M120.28,16.53c-0.3-0.6-1.1-1.39-1.8-1.34  c-0.06,0.01-0.19,0.04-0.29,0.17c-0.55,0.69,0.64,2.66,1.83,2.56c0,0,0,0,0,0c0,0,0,0,0,0c0,0,0,0,0,0c0,0,0,0,0,0c0,0,0,0,0,0  c0,0,0,0,0,0c0,0,0,0,0,0c0,0,0,0,0,0C120.69,17.75,120.48,16.94,120.28,16.53L120.28,16.53z M120.43,25.52  C120.43,25.52,120.43,25.52,120.43,25.52C120.43,25.52,120.43,25.52,120.43,25.52C120.43,25.52,120.43,25.52,120.43,25.52  C120.43,25.52,120.43,25.52,120.43,25.52C120.43,25.52,120.43,25.52,120.43,25.52C120.43,25.52,120.43,25.52,120.43,25.52  C120.43,25.52,120.43,25.52,120.43,25.52c-0.2,0.04-0.49,0.1-0.74,0.42c-0.79,1,0.08,3.49,1.93,3.36c0,0,0,0,0,0c0,0,0,0,0,0  c0,0,0,0,0,0c0,0,0,0,0,0c0,0,0,0,0,0c0,0,0,0,0,0c0,0,0,0,0,0c0,0,0,0,0,0c1.12-0.22,1.17-1.3,1.02-1.91  C122.46,26.59,121.62,25.44,120.43,25.52C120.43,25.52,120.43,25.52,120.43,25.52z M107.85,44.14c0-0.29-0.06-0.52-0.18-0.72  c-0.44,0.52-0.57,1.26-0.37,1.92c0.04-0.03,0.08-0.06,0.12-0.1C107.72,44.95,107.85,44.61,107.85,44.14z M121.86,54.43  c-0.3,0.05-0.91,0.14-1.51,0.74c-1.55,1.56-0.79,4.48,1.68,4.38c0,0,0,0,0,0c0,0,0,0,0,0c0,0,0,0,0,0c0,0,0,0,0,0c0,0,0,0,0,0  c0,0,0,0,0,0c0,0,0,0,0,0c0,0,0,0,0,0c1.73-0.27,2.28-1.72,2.33-2.54C124.47,55.47,123.32,54.29,121.86,54.43z M121.15,45.82  c-2.33,0.36-2.54,3.18-1.24,4.36c1.48,1.33,3.81,0.16,3.79-1.91C123.69,47.21,122.89,45.74,121.15,45.82z M119.89,52.99  c0.02-0.94-0.61-2.42-2.39-2.38c0,0,0,0,0,0c0,0,0,0,0,0c0,0,0,0,0,0c0,0,0,0,0,0c0,0,0,0,0,0c0,0,0,0,0,0c0,0,0,0,0,0c0,0,0,0,0,0  c-0.23,0.03-0.43,0.09-0.63,0.16c0.19,0.22,0.38,0.44,0.54,0.67c0.74,1.04,1.18,2.25,1.31,3.61  C119.38,54.67,119.87,53.94,119.89,52.99z M119.1,44.37c-0.02-0.88-0.69-2.13-2.05-2.26c0.17,0.66,0.26,1.34,0.26,2.05  c0,0.88-0.13,1.69-0.36,2.44C118.06,46.64,119.13,45.73,119.1,44.37z M119.93,67.2c1.19,1.75,4.15,0.74,4.46-1.52  c0.14-1.01-0.37-2.58-2.33-2.48C119.94,63.53,118.99,65.83,119.93,67.2z M102.53,44.95c0.11-0.94-0.54-1.76-1.42-1.78  c-1.41,0.04-1.82,1.6-1.26,2.5h2.42C102.4,45.47,102.5,45.23,102.53,44.95z M94.26,44.59c0.12-0.63-0.32-1.27-0.9-1.32  c-0.98-0.01-1.4,1.16-0.89,1.86C93.03,45.9,94.1,45.45,94.26,44.59z M122.29,37.11c1.46,1.01,3.13-0.11,2.84-1.91  c-0.15-0.9-0.95-2.29-2.48-2.19c0,0,0,0,0,0c0,0,0,0,0,0c0,0,0,0,0,0c0,0,0,0,0,0c0,0,0,0,0,0c0,0,0,0,0,0c0,0,0,0,0,0c0,0,0,0,0,0  C120.72,33.38,120.77,36.05,122.29,37.11z M119.98,37.53C119.98,37.53,119.98,37.53,119.98,37.53  C119.98,37.53,119.98,37.53,119.98,37.53C119.98,37.53,119.98,37.53,119.98,37.53C119.97,37.53,119.97,37.53,119.98,37.53  C119.97,37.53,119.97,37.53,119.98,37.53C119.97,37.53,119.97,37.53,119.98,37.53c-0.01,0-0.01,0-0.01,0  c-0.25,0.04-0.77,0.12-1.21,0.64c-1.07,1.26-0.35,3.97,1.91,3.86c0,0,0,0,0,0c0,0,0,0,0,0c0,0,0,0,0,0c0,0,0,0,0,0c0,0,0,0,0,0  c0,0,0,0,0,0c0,0,0,0,0,0c0,0,0,0,0,0c1.47-0.24,1.77-1.53,1.71-2.25C122.31,38.8,121.51,37.46,119.98,37.53  C119.98,37.53,119.98,37.53,119.98,37.53z M115.68,71.44c1.06,1.59,3.86,0.79,4.21-1.21c0.23-1.31-0.76-2.37-2.12-2.27  C115.6,68.22,114.93,70.31,115.68,71.44z M121.25,75.76C121.25,75.76,121.25,75.76,121.25,75.76  C121.25,75.76,121.25,75.76,121.25,75.76C121.25,75.76,121.25,75.76,121.25,75.76C121.25,75.76,121.25,75.76,121.25,75.76  C121.25,75.76,121.25,75.76,121.25,75.76C121.25,75.76,121.25,75.76,121.25,75.76C121.25,75.76,121.25,75.76,121.25,75.76  C121.25,75.76,121.25,75.76,121.25,75.76c1.63-0.25,2.34-1.49,2.49-2.11c0.27-1.11-0.44-2.25-2.05-2.16  c-0.29,0.04-1.16,0.18-1.86,0.98C118.72,73.74,119.01,75.89,121.25,75.76z M120.17,61.78c0.1-1.16-0.61-2.36-2.09-2.45  c-0.06,0.14-0.11,0.27-0.18,0.41c-0.54,1.08-1.32,2.03-2.31,2.83c0.09,0.3,0.23,0.58,0.44,0.83  C117.36,64.97,119.98,63.94,120.17,61.78z M125.57,49.51C125.57,49.51,125.57,49.51,125.57,49.51  C125.57,49.51,125.57,49.51,125.57,49.51C125.56,49.51,125.56,49.51,125.57,49.51C125.56,49.51,125.56,49.51,125.57,49.51  C125.56,49.51,125.56,49.51,125.57,49.51c-0.01,0-0.01,0-0.01,0c0,0,0,0,0,0c0,0,0,0,0,0c-0.3,0.06-0.92,0.18-1.48,0.79  c-1.53,1.67-0.61,4.68,1.93,4.48c0,0,0,0,0,0c0,0,0,0,0,0c0,0,0,0,0,0c0,0,0,0,0,0c0,0,0,0,0,0c0,0,0,0,0,0c0,0,0,0,0,0  c0,0,0,0,0,0c1.74-0.34,2.21-1.85,2.21-2.7C128.24,51,127.52,49.35,125.57,49.51z M128.26,69.23c0.29-1.46-0.74-2.57-2.19-2.39  c-2.31,0.42-3.1,2.79-2.35,4.01C124.8,72.59,127.81,71.51,128.26,69.23z M102.5,53.6c0-0.01,0-0.01,0-0.02h-3.24  c0.03,0.37,0.17,0.73,0.44,1.03C100.66,55.68,102.36,55.07,102.5,53.6z M114.37,26.37c-0.04,0.01-0.1,0.01-0.14,0.02  c-1.22,0.25-1.36,2.18-0.22,3.05c1.08,0.82,2.32,0.05,2.15-1.32C116.03,27.11,115.21,26.31,114.37,26.37z M109.26,55.48  c-0.03-0.53-0.22-0.94-0.62-1.29c-0.33-0.29-0.8-0.47-1.39-0.55C107.34,54.57,108.03,55.43,109.26,55.48z M114.88,37.47  c1.23,1.19,3.05,0.31,2.95-1.43c-0.05-0.86-0.76-2.11-2.12-2.09C114.02,34.18,113.74,36.36,114.88,37.47z M118.37,29.68  c-1.69,0.27-1.68,2.62-0.35,3.6c1.26,0.93,2.76-0.01,2.54-1.59C120.44,30.84,119.67,29.62,118.37,29.68z M107.4,29.43  c0.75,0.78,2.07,0.34,2.04-0.98c-0.01-0.57-0.39-1.47-1.34-1.5C107.01,26.98,106.57,28.56,107.4,29.43z M102.45,94.3  c0.01-0.14-0.12-0.35-0.53-0.38c0,0,0,0,0,0c0,0,0,0,0,0c0,0,0,0,0,0c0,0,0,0,0,0c0,0,0,0,0,0c0,0,0,0,0,0c0,0,0,0,0,0c0,0,0,0,0,0  c-0.41,0-0.56,0.24-0.4,0.44C101.75,94.65,102.42,94.61,102.45,94.3z M106.9,66.73c0.05-0.44-0.08-1.04-0.51-1.48h-2.7  c-0.65,0.67-0.67,1.78-0.11,2.45C104.61,68.93,106.72,68.31,106.9,66.73z M102.46,70.77c0.09-0.9-0.69-1.75-1.65-1.78  c-1.5,0.04-2.04,1.56-1.25,2.51C100.47,72.62,102.31,72.15,102.46,70.77z M104.99,76.08C104.99,76.08,104.99,76.08,104.99,76.08  C104.99,76.08,104.99,76.08,104.99,76.08C104.99,76.08,104.99,76.08,104.99,76.08C104.99,76.08,104.99,76.08,104.99,76.08  C104.99,76.08,104.99,76.08,104.99,76.08C104.99,76.08,104.99,76.08,104.99,76.08C104.99,76.08,105,76.08,104.99,76.08  C105,76.08,105,76.08,104.99,76.08c1.24-0.06,1.7-0.95,1.77-1.42c0.12-0.82-0.51-1.74-1.74-1.8c-0.48,0-0.94,0.18-1.27,0.5  C102.75,74.3,103.3,76,104.99,76.08z M104.54,98.19c0.01,0.01,0.02,0.02,0.04,0.03c0.01,0,0.02,0.01,0.03,0.01  c0.01,0,0.01,0,0.12-0.02c0,0,0.01,0,0.01,0c-0.11-0.03-0.11-0.03-0.13-0.03C104.61,98.17,104.61,98.17,104.54,98.19z   M104.73,95.64c-0.25,0.01-0.37,0.09-0.42,0.15c-0.16,0.16,0.01,0.39,0.4,0.4c0,0,0,0,0,0c0,0,0,0,0,0c0,0,0,0,0,0c0,0,0,0,0,0  c0,0,0,0,0,0c0,0,0,0,0,0c0,0,0,0,0,0c0,0,0,0,0,0c0.39-0.02,0.45-0.21,0.46-0.24C105.22,95.78,105.02,95.64,104.73,95.64z   M99.57,95.78c0.02,0.02,0.05,0.04,0.07,0.06c0.01,0.01,0.03,0.02,0.04,0.02c0.01,0,0.03,0,0.03,0c0.04-0.01,0.07-0.02,0.11-0.03  c0,0,0.01,0,0.01,0c-0.17-0.07-0.17-0.07-0.19-0.07C99.64,95.75,99.64,95.75,99.57,95.78z M100.99,79.36  C100.99,79.36,100.99,79.36,100.99,79.36C100.99,79.36,100.99,79.36,100.99,79.36C100.99,79.36,100.99,79.36,100.99,79.36  C100.99,79.36,100.99,79.36,100.99,79.36C100.99,79.36,100.99,79.36,100.99,79.36C100.99,79.36,100.99,79.36,100.99,79.36  C101,79.36,101,79.36,100.99,79.36C101,79.36,101,79.36,100.99,79.36c1.05-0.02,1.41-0.7,1.45-1.1c0.07-0.57-0.36-1.4-1.51-1.48  c-0.2,0-0.65,0.01-1.04,0.35C99.15,77.79,99.48,79.25,100.99,79.36z M102.44,90.09c0.02-0.27-0.22-0.7-0.95-0.75  c-0.76-0.01-1.05,0.55-0.69,0.97C101.27,90.87,102.39,90.72,102.44,90.09z M101.25,85.57C101.25,85.57,101.25,85.57,101.25,85.57  C101.25,85.57,101.25,85.57,101.25,85.57C101.25,85.57,101.25,85.57,101.25,85.57C101.25,85.57,101.25,85.57,101.25,85.57  C101.25,85.57,101.25,85.57,101.25,85.57C101.25,85.57,101.25,85.57,101.25,85.57C101.25,85.57,101.25,85.57,101.25,85.57  c0.85-0.02,1.15-0.55,1.19-0.84c0.07-0.57-0.55-1.12-1.28-1.14c-0.16,0-0.52,0.01-0.83,0.26C99.63,84.4,100.05,85.48,101.25,85.57  C101.25,85.57,101.25,85.57,101.25,85.57z M102.44,97.13c-0.01,0-0.03,0.01-0.06,0.02c-0.03,0.02-0.06,0.04-0.09,0.06  c0.04,0.01,0.07,0.03,0.1,0.05c0.01,0,0.04,0.01,0.06,0.01c0.02,0,0.04-0.01,0.06-0.01c0.03-0.01,0.06-0.03,0.09-0.05  c0,0,0.01,0,0.01-0.01c-0.05-0.02-0.09-0.04-0.14-0.06C102.46,97.14,102.45,97.14,102.44,97.13z M108.42,94.26  c0.1-0.27-0.15-0.57-0.73-0.57c-0.61,0.02-1.08,0.43-0.88,0.78C107.07,94.95,108.22,94.8,108.42,94.26z M104.82,91.69  c-0.27,0-0.53,0.09-0.7,0.23c-0.43,0.36-0.14,0.95,0.68,0.98c0,0,0,0,0,0c0,0,0,0,0,0c0,0,0,0,0,0c0,0,0,0,0,0s0,0,0,0c0,0,0,0,0,0  c0,0,0,0,0,0c0,0,0,0,0,0c0.61-0.03,0.84-0.35,0.87-0.54C105.72,92.1,105.49,91.71,104.82,91.69z M108.6,97.96  C108.6,97.96,108.6,97.96,108.6,97.96C108.6,97.96,108.6,97.96,108.6,97.96C108.6,97.96,108.6,97.96,108.6,97.96  C108.6,97.96,108.6,97.96,108.6,97.96C108.6,97.96,108.6,97.96,108.6,97.96C108.6,97.96,108.6,97.96,108.6,97.96  C108.6,97.96,108.6,97.96,108.6,97.96C108.6,97.96,108.6,97.96,108.6,97.96c-0.32,0.02-0.47,0.14-0.46,0.21  c0.01,0.13,0.51,0.07,0.67-0.07c0,0,0.01-0.01,0.01-0.01C108.86,98.02,108.84,97.95,108.6,97.96z M109.63,98.58  c0.01-0.01,0.02-0.04-0.12-0.03c0,0,0,0,0,0c0,0,0,0,0,0c0,0,0,0,0,0c0,0,0,0,0,0c0,0,0,0,0,0c0,0,0,0,0,0c0,0,0,0,0,0c0,0,0,0,0,0  c-0.2,0.02-0.4,0.08-0.43,0.11c-0.01,0.01,0,0.03,0.12,0.02c0,0,0,0,0,0c0,0,0,0,0,0s0,0,0,0c0,0,0,0,0,0c0,0,0,0,0,0c0,0,0,0,0,0  c0,0,0,0,0,0c0,0,0,0,0,0c0.21-0.02,0.35-0.07,0.37-0.08C109.6,98.61,109.62,98.59,109.63,98.58z M106.99,96.98  c-0.32,0.02-0.53,0.17-0.48,0.29c0.08,0.21,0.7,0.16,0.82-0.06C107.39,97.08,107.23,96.97,106.99,96.98z M106.11,98.79  c0.01,0,0.01,0.01,0.02,0.01c0,0,0.01,0,0.02,0c0.04,0,0.07-0.01,0.11-0.01c0,0,0.01,0,0.01,0c-0.08-0.02-0.08-0.02-0.09-0.02  C106.15,98.78,106.13,98.78,106.11,98.79z M104.91,86.5C104.91,86.5,104.91,86.5,104.91,86.5C104.9,86.5,104.9,86.5,104.91,86.5  C104.9,86.5,104.9,86.5,104.91,86.5C104.9,86.5,104.9,86.5,104.91,86.5C104.9,86.5,104.9,86.5,104.91,86.5  C104.9,86.5,104.9,86.5,104.91,86.5C104.9,86.5,104.9,86.5,104.91,86.5C104.9,86.5,104.9,86.5,104.91,86.5  c-1.07,0.04-1.53,0.83-1.12,1.41c0.59,0.83,2.18,0.59,2.33-0.35C106.18,87.18,105.9,86.55,104.91,86.5z M106.94,99  c0.03,0,0.06,0,0.11,0c0,0,0.01,0,0.01,0c0,0-0.01,0-0.01,0C107.01,99,106.97,99,106.94,99z M104.97,80.2  c-1.38,0.06-1.93,1.25-1.27,2.04c0.88,1.05,2.66,0.47,2.8-0.63C106.56,81.05,106.14,80.25,104.97,80.2z M93.81,83.64  c-0.02,0-0.05,0-0.07,0c-0.6,0.01-0.71,0.58-0.33,0.95c0.47,0.45,1.26,0.32,1.25-0.22C94.64,84.01,94.26,83.68,93.81,83.64z   M93.72,70.41c0.04-0.5-0.31-1.25-1.19-1.36c-1.09-0.02-1.42,1.07-0.82,1.8C92.41,71.69,93.65,71.42,93.72,70.41z M89.68,80.34  c-0.02,0-0.04,0-0.05,0c-0.38,0-0.58,0.38-0.25,0.72c0.36,0.37,0.92,0.29,0.92-0.12C90.3,80.67,90.07,80.38,89.68,80.34z   M91.04,86.64c-0.07-0.01-0.16,0.06-0.2,0.14c-0.02,0.05-0.03,0.06,0.03,0.12c0,0,0.13,0.13,0.24,0.15c0,0,0.04,0.01,0.1-0.01  c0.09-0.03,0.17-0.08,0.26-0.11c0.01,0,0.02-0.01,0.04-0.01c-0.12-0.07-0.24-0.16-0.36-0.23C91.09,86.65,91.06,86.64,91.04,86.64z   M98.62,91.84C98.62,91.84,98.62,91.84,98.62,91.84C98.62,91.84,98.62,91.84,98.62,91.84C98.62,91.84,98.62,91.84,98.62,91.84  C98.62,91.84,98.62,91.84,98.62,91.84C98.62,91.84,98.62,91.84,98.62,91.84C98.62,91.84,98.62,91.84,98.62,91.84  C98.62,91.84,98.62,91.84,98.62,91.84C98.62,91.84,98.62,91.84,98.62,91.84c-0.02,0-0.04,0-0.05,0c-0.3,0.02-0.48,0.26-0.24,0.48  c0.29,0.28,0.85,0.23,0.83-0.09C99.15,92.06,98.95,91.86,98.62,91.84z M80.76,55.99c-0.02,0-0.03,0-0.05,0.02  c-0.03,0.03-0.05,0.06-0.08,0.09c0.03,0.05,0.05,0.11,0.09,0.16c0.02,0.03,0.04,0.04,0.06,0.04c0.01,0,0.03,0,0.06-0.01  c0.06-0.03,0.11-0.08,0.17-0.11c0.01,0,0.02-0.01,0.02-0.01c-0.06-0.04-0.12-0.09-0.19-0.13C80.79,56,80.77,56,80.76,55.99z   M84.66,68.97c-0.03,0-0.05,0-0.06,0c-0.32,0.01-0.54,0.42-0.21,0.78c0.31,0.34,0.72,0.19,0.74-0.17  C85.16,69.33,84.97,69.02,84.66,68.97z M81.34,72.62c-0.04,0.07-0.08,0.14-0.12,0.21c0.17,0.13,0.17,0.13,0.2,0.14  c0.03,0,0.08-0.05,0.08-0.09c0-0.02-0.02-0.06-0.03-0.08C81.43,72.74,81.38,72.69,81.34,72.62z M85.51,76.73  c-0.03,0-0.06,0.01-0.1,0.03c-0.11,0.07-0.16,0.22-0.16,0.24c0.02,0.06,0.18,0.23,0.3,0.26c0,0,0,0,0,0c0,0,0,0,0,0c0,0,0,0,0,0  c0,0,0,0,0,0c0,0,0,0,0,0c0,0,0,0,0,0s0,0,0,0c0,0,0,0,0,0c0.04,0,0.07,0,0.13-0.03c0.09-0.04,0.18-0.1,0.27-0.14  c0.01-0.01,0.03-0.01,0.04-0.02c-0.13-0.09-0.25-0.2-0.38-0.29C85.56,76.74,85.53,76.74,85.51,76.73z M86.92,83.48  c-0.01,0-0.02,0-0.05,0.01c-0.05,0.02-0.1,0.04-0.16,0.06c0.06,0.04,0.12,0.08,0.18,0.12c0.04,0.02,0.06,0.03,0.06,0.03  c0.07,0.02,0.11-0.04,0.11-0.05C87.08,83.63,86.98,83.49,86.92,83.48z M89.3,65.92c0.01-0.2-0.06-0.46-0.21-0.68h-1.44  c-0.17,0.33-0.14,0.78,0.18,1.13C88.38,66.99,89.26,66.71,89.3,65.92z M98.14,74.52c0.06-0.55-0.39-1.37-1.4-1.47  c-1.08-0.05-1.66,1.03-1.02,1.89C96.45,75.91,98.02,75.63,98.14,74.52z M92.75,91.69c-0.01,0-0.02,0-0.04,0  c-0.04,0.01-0.08,0.03-0.13,0.04c0.2,0.1,0.2,0.1,0.22,0.1c0.06,0.01,0.09-0.03,0.09-0.03C92.9,91.79,92.81,91.69,92.75,91.69z   M98.38,81.48c0.03-0.56-0.56-1.1-1.23-1.13c-1.03,0-1.34,0.93-0.76,1.54C97.08,82.6,98.34,82.34,98.38,81.48z M98.72,87.4  c-0.02-0.38-0.44-0.71-0.93-0.73c-0.03,0-0.06,0-0.08,0c-0.65,0.02-0.9,0.59-0.45,1.01C97.79,88.19,98.75,88,98.72,87.4z   M96.35,93.94c-0.02,0.01-0.03,0.03-0.04,0.04c0.03,0.02,0.06,0.05,0.1,0.06c0.02,0.01,0.04,0.02,0.05,0.02  c0.01,0,0.02,0,0.04-0.01c0.03-0.01,0.06-0.03,0.09-0.05c0,0,0.01,0,0.01-0.01c-0.2-0.06-0.2-0.06-0.22-0.07  C96.37,93.93,96.36,93.93,96.35,93.94z M109.44,98.81l0.23-0.02c-0.02,0-0.03,0-0.05,0C109.56,98.8,109.5,98.81,109.44,98.81z   M98.03,66.58c0.05-0.53-0.17-1.02-0.54-1.33h-1.91c-0.53,0.48-0.61,1.32-0.12,1.95C96.3,68.24,97.9,67.86,98.03,66.58z   M94.06,77.9L94.06,77.9c0.03-0.53-0.47-1.04-1.06-1.08c-0.83-0.02-1.19,0.77-0.63,1.39C92.97,78.88,94.02,78.69,94.06,77.9z   M94.97,89.41C94.97,89.41,94.97,89.41,94.97,89.41C94.97,89.41,94.97,89.41,94.97,89.41C94.97,89.41,94.97,89.41,94.97,89.41  C94.97,89.41,94.97,89.41,94.97,89.41C94.97,89.41,94.97,89.41,94.97,89.41C94.97,89.41,94.96,89.41,94.97,89.41  C94.96,89.41,94.96,89.41,94.97,89.41C94.96,89.41,94.96,89.41,94.97,89.41c-0.03,0-0.07,0-0.11,0.01  c-0.24,0.05-0.31,0.28-0.04,0.47c0.28,0.2,0.63,0.12,0.6-0.13C95.4,89.64,95.25,89.45,94.97,89.41z M89.64,73.91  c0.01-0.33-0.27-0.82-0.84-0.91c0,0-0.01,0-0.01,0c-0.69-0.04-0.88,0.69-0.46,1.17C88.83,74.76,89.62,74.5,89.64,73.91z   M145.16,77.83c0.17-0.04,1.12-1.41,1.81-2.56c0.29-0.48,0.96-1.62,0.93-1.85c-0.04,0.01-0.05,0.01-0.13,0.09  C147.11,74.26,145.13,77.52,145.16,77.83z M148.35,70.76c-0.95,0.76-2.67,4.25-2.46,4.75c0.16,0.37,1.27-1.12,2.1-2.79  c0.32-0.64,0.54-1.22,0.62-1.59C148.74,70.5,148.45,70.7,148.35,70.76z M150.32,68.76c-0.42,0.7-2.26,4.46-2.26,4.7  c0.05-0.06,0.13-0.19,0.38-0.64l1.62-3.26c0.34-0.76,0.34-0.81,0.34-0.88C150.36,68.7,150.33,68.73,150.32,68.76z M149,70.93  C149,70.93,149.01,70.93,149,70.93C149.01,70.93,149.01,70.93,149,70.93C149.01,70.93,149.01,70.93,149,70.93  C149.01,70.93,149.01,70.93,149,70.93C149.01,70.93,149.01,70.93,149,70.93C149.01,70.93,149.01,70.93,149,70.93  C149.01,70.93,149.01,70.93,149,70.93C149.01,70.93,149.01,70.93,149,70.93c0.54-0.62,1.23-2.21,1.52-2.97  c0.4-1.03,0.55-1.69,0.57-1.97c0.02-0.36-0.15-0.2-0.23-0.13c0,0,0,0,0,0c0,0,0,0,0,0c0,0,0,0,0,0c0,0,0,0,0,0c0,0,0,0,0,0  c0,0,0,0,0,0c0,0,0,0,0,0c0,0,0,0,0,0c-0.77,0.91-2.02,4.14-2.07,4.96C148.77,71.15,148.92,71.01,149,70.93z M145.27,75.43  c-1.17,0.8-2.84,3.63-2.74,4.2c0.08,0.51,1.42-0.85,2.38-2.43c0.44-0.72,0.6-1.16,0.65-1.31C145.7,75.4,145.61,75.25,145.27,75.43z   M145.1,72.73C145.1,72.73,145.1,72.73,145.1,72.73C145.1,72.73,145.1,72.73,145.1,72.73C145.1,72.73,145.1,72.73,145.1,72.73  C145.1,72.73,145.1,72.73,145.1,72.73C145.09,72.73,145.09,72.73,145.1,72.73C145.09,72.73,145.09,72.73,145.1,72.73  C145.09,72.73,145.09,72.73,145.1,72.73C145.09,72.73,145.09,72.73,145.1,72.73c-1.42,0.82-2.87,3.79-2.61,4.55  c0.26,0.76,1.82-0.71,2.74-2.58c0.07-0.14,0.15-0.33,0.21-0.48C145.71,73.54,145.99,72.35,145.1,72.73z M144.68,77.97  c-0.71,0.55-2.89,3.49-2.85,3.84c0.01,0,0.01,0.01,0.02,0.01c0.05-0.01,0.06-0.02,0.14-0.08c0,0,0,0,0,0c0,0,0,0,0,0c0,0,0,0,0,0  c0,0,0,0,0,0c0,0,0,0,0,0c0,0,0,0,0,0c0,0,0,0,0,0c0,0,0,0,0,0c0.54-0.45,1.45-1.57,1.92-2.22c0.17-0.23,1-1.38,0.95-1.62  C144.82,77.88,144.8,77.89,144.68,77.97z M152.22,63.79l0.01-0.04l-0.13,0.39C152.16,63.99,152.2,63.87,152.22,63.79z   M146.42,76.19c-0.72,1.03-1.65,2.41-2.42,3.41C144.88,78.47,146.03,76.8,146.42,76.19z M154.02,55.47c0.15-1.21,0.38-4.5,0.4-5.39  C154.32,51.7,154.21,53.86,154.02,55.47z M153.17,58.09c-0.07,0.01-0.16,0.03-0.23,0.04c-0.13,2.24-0.85,4.72-1.54,5.33  c-0.07-0.02-0.16-0.06-0.22-0.08c-0.31,2.49-1.46,4.82-2.2,5.08c-0.06-0.05-0.15-0.11-0.21-0.16c-0.31,2.18-1.82,4.79-2.78,4.82  c-0.24-0.36-0.24-0.36,0.68-3.33c-0.79,0.85-1.09,0.81-1.48,0.64c-0.41,3.39-2.62,4.52-2.65,4.53c-0.02,0.01-2.09,0.61,0.05-3.6  c-0.42,0.41-0.64,0.57-0.81,0.67c-1.07,0.66-1.59-0.08-1.6-0.08c-0.26-0.73-0.26-0.73,0.4-3.31c-1.2,1-1.7,0.79-2.41,0.38  L138.13,69c-0.01,0-0.03-0.01-0.04-0.03c-0.76-1.56-0.08-2.95,0.32-3.77c-0.88,0.73-2.16,1.56-3.11,0.24  c-1.03-1.43-0.18-5.68,3.19-5.16c-0.41-1.26-0.41-2.04,0.02-3.5c-1.81,1.53-2.83,0.52-3.27-0.22c-0.96-1.6-0.3-5.78,2.87-4.96  c-1.26-4.47,0.37-5.07,2.3-5.34c-0.63-1.24-0.77-2.63-0.48-3.63c0.01-0.03,0.02-0.07,0.04-0.11c0.32-0.97,1.07-1.55,2.19-1.2  c-0.43-0.91-1.73-3.67-0.14-4.94c0.44-0.22,1.97-0.62,2.87,3.51c0.68-0.63,0.68-0.63,1.44-0.65c-1.47-2.82-0.76-4.35-0.73-4.41  c0.68-1.39,1.64-0.32,2.86,3.19c0.55-0.89,0.57-0.92,1.22-0.42c-1.46-2.52-1.57-4.59-1.08-5.12c0.9,0.02,1.54,1.73,1.78,2.47  c0.01,0.04,1.13,3.73-0.55,2.81c0.42,0.71,0.42,0.71,1.12,3.34c0.15-0.5,0.16-0.51,0.39-0.76c0.24-0.01,0.4,0.03,0.54,0.2  c0.03,0.06,0.07,0.11,0.1,0.15c0.23,0.44,0.42,1.41,0.84,3.53c0.13-0.64,0.13-0.64,0.37-0.81c0.16,0.17,0.54,0.58,0.7,2.72  c0.06,0.81,0.15,2.76-0.33,3.44c-0.07,0.01-0.15,0.01-0.22,0.02c0.16,1.14,0.17,1.97,0.03,3.4c0.15-0.46,0.15-0.46,0.3-0.8  c0.07-0.02,0.17-0.04,0.24-0.06C154.21,53.65,153.69,57.29,153.17,58.09z M145.91,50.7c-0.3,0.09-0.57,0.17-1.01,0.3  c0,0.02,0,0.04,0.01,0.06c0,0.02,0,0.04,0.01,0.06c0,0.02,0,0.04,0.01,0.06c0,0.02,0,0.04,0.01,0.06c0,0.02,0,0.04,0.01,0.06  c0,0.02,0,0.04,0.01,0.06c0,0.02,0,0.04,0.01,0.06c0,0.02,0,0.04,0.01,0.06c0,0.02,0,0.04,0.01,0.06c0,0.02,0,0.04,0.01,0.06  c0,0.02,0,0.04,0.01,0.06s0,0.04,0.01,0.06c0,0.02,0,0.04,0.01,0.06c0,0.02,0,0.04,0.01,0.06s0,0.04,0.01,0.06  c0,0.02,0,0.04,0.01,0.06c0,0.02,0,0.04,0.01,0.06c0,0.02,0,0.04,0.01,0.06c0,0.02,0,0.04,0.01,0.06c0,0.02,0,0.04,0,0.06  c0,0.02,0,0.04,0,0.06c0,0.02,0,0.04,0,0.06c0,0.02,0,0.04,0,0.06c0,0.02,0,0.04,0,0.06c0,0.02,0,0.04,0,0.06c0,0.02,0,0.04,0,0.06  c0,0.02,0,0.04,0,0.06s0,0.04,0,0.06c0,0.02,0,0.04,0,0.06c0,0.02,0,0.04,0,0.06c0,0.02,0,0.04,0,0.06c0,0.02,0,0.04,0,0.06  c0.4-0.19,0.68-0.33,1-0.49c0-0.04-0.01-0.07-0.01-0.11c0-0.04-0.01-0.07-0.01-0.11c0-0.04-0.01-0.07-0.01-0.11  c0-0.04-0.01-0.07-0.01-0.11c0-0.04-0.01-0.07-0.01-0.11c0-0.04-0.01-0.07-0.01-0.11c0-0.04-0.01-0.07-0.01-0.11  c0-0.04-0.01-0.07-0.01-0.11c0-0.04-0.01-0.07-0.01-0.11c0-0.04-0.01-0.07-0.01-0.11c0-0.04-0.01-0.07-0.01-0.11  c0-0.04-0.01-0.07-0.01-0.11c0-0.04-0.01-0.07-0.01-0.11c0-0.04-0.01-0.07-0.01-0.11c0-0.04-0.01-0.07-0.01-0.11  C145.91,50.77,145.91,50.74,145.91,50.7z M142.85,41.97c0.58,0.88,0.82,1.71,0.87,2.97c0.42-0.58,0.84-0.79,1.44-0.72  c-0.38-1.43-0.38-1.43-0.55-2.62c-0.01-0.06-0.02-0.14-0.03-0.2C144.19,42.11,143.67,42.28,142.85,41.97z M142.52,57.46  c0,0.3,0,0.3-0.1,1.2c0.53-0.24,0.91-0.42,1.35-0.63c0-0.04,0-0.09,0-0.13c0-0.04,0-0.09,0-0.13c0-0.03,0-0.06,0-0.08  c0-0.02,0-0.03,0-0.05c0-0.04,0-0.09,0-0.13c0-0.04,0-0.09,0-0.13c0-0.04,0-0.09,0-0.13c0-0.04,0-0.09,0-0.13c0-0.04,0-0.09,0-0.13  c0-0.04,0-0.09,0-0.13c0-0.04,0-0.09,0-0.13c0-0.04,0-0.09,0-0.13c0-0.04,0-0.08,0-0.13c0-0.04,0-0.08,0-0.13c0-0.04,0-0.08,0-0.12  c0-0.04,0-0.08,0-0.12c0-0.04,0-0.08,0-0.12c-0.45,0.09-0.88,0.18-1.35,0.27C142.52,57.22,142.52,57.22,142.52,57.46z   M141.23,47.17c0.51,0.87,0.68,1.7,0.6,2.96c0.64-0.66,1.11-0.76,1.63-0.69c-0.18-0.63-0.38-1.4-0.35-2.61c0-0.03,0-0.07,0-0.1  C142.59,47.31,142.02,47.44,141.23,47.17z M138.89,52.33c0.26,0.52,0.39,0.97,0.43,1.55c0.03,0.59-0.03,1.12-0.21,1.82  c0.77-0.76,1.34-1,2.09-0.86c-0.2-0.68-0.37-1.48-0.23-2.7c0.01-0.06,0.02-0.15,0.03-0.21C140.26,52.52,139.61,52.64,138.89,52.33z   M141.24,60.8c-0.85,0.4-0.85,0.4-1.03,0.44c-0.17,0.02-0.17,0.02-1.04-0.07c0.28,0.77,0.44,1.72-0.33,3.41  c0.62-0.62,1.37-1.22,2.27-0.98c0,0,0,0,0.01,0C141.04,62.21,141.04,62.21,141.24,60.8z M143.27,66.78L143.27,66.78  c0.03,0.01,0.06,0.01,0.08,0.02c-0.04-1.05-0.04-1.05,0.28-2.63c-0.57,0.48-1.1,0.62-1.74,0.46c0.19,0.93,0.05,1.76-0.53,3.07  C142.1,66.93,142.69,66.65,143.27,66.78z M145.54,67.07c-0.52,0.51-1,0.82-1.67,0.66c0.07,0.75-0.04,1.54-0.76,2.95  c0.76-0.79,1.33-1.07,1.82-0.87c0,0,0.01,0,0.01,0C144.95,68.84,145.19,68.01,145.54,67.07z M146.19,59.55  c-0.02,0.01-0.04,0.02-0.07,0.03c-0.02,0.01-0.04,0.02-0.07,0.03c-0.02,0.01-0.04,0.02-0.07,0.03c-0.02,0.01-0.04,0.02-0.07,0.03  c-0.02,0.01-0.04,0.02-0.07,0.03c-0.02,0.01-0.04,0.02-0.07,0.03c-0.02,0.01-0.04,0.02-0.07,0.03c-0.02,0.01-0.04,0.02-0.07,0.03  c-0.02,0.01-0.04,0.02-0.07,0.03c-0.02,0.01-0.04,0.02-0.07,0.03c-0.02,0.01-0.04,0.02-0.07,0.03c-0.02,0.01-0.04,0.02-0.07,0.03  c-0.02,0.01-0.04,0.02-0.07,0.03c-0.02,0.01-0.04,0.02-0.06,0.03c-0.02,0.01-0.04,0.02-0.06,0.03c-0.02,0.01-0.04,0.02-0.06,0.03  c-0.06,0.73-0.12,1.3-0.21,1.97c0.37-0.18,0.71-0.35,1.13-0.56c0-0.04,0.01-0.08,0.01-0.11c0-0.04,0.01-0.08,0.01-0.11  c0-0.04,0.01-0.08,0.01-0.11c0-0.04,0.01-0.08,0.01-0.11s0.01-0.08,0.01-0.11c0-0.04,0.01-0.08,0.01-0.11  c0-0.04,0.01-0.08,0.01-0.11c0-0.04,0.01-0.08,0.01-0.11c0-0.04,0.01-0.08,0.01-0.11c0-0.04,0.01-0.08,0.01-0.11  c0-0.04,0.01-0.08,0.01-0.12c0-0.04,0-0.08,0.01-0.12c0-0.04,0-0.08,0.01-0.12c0-0.04,0-0.08,0.01-0.12c0-0.04,0-0.08,0.01-0.12  C146.19,59.63,146.19,59.59,146.19,59.55z M149.94,43.36c0.32,0.81,0.48,1.55,0.55,2.62c0.26-0.52,0.49-0.67,0.89-0.59  c-0.23-0.74-0.39-1.45-0.51-2.82h0c0-0.04-0.01-0.08-0.01-0.12C150.61,43.33,150.26,43.41,149.94,43.36z M150.23,57.46  c-0.01,0.01-0.03,0.02-0.04,0.03c-0.01,0.01-0.03,0.02-0.04,0.03c-0.01,0.01-0.03,0.02-0.04,0.03c-0.01,0.01-0.03,0.02-0.04,0.03  c-0.01,0.01-0.03,0.02-0.04,0.03c-0.02,0.01-0.03,0.02-0.05,0.03c-0.02,0.01-0.03,0.02-0.05,0.03c-0.02,0.01-0.03,0.02-0.05,0.03  c-0.02,0.01-0.03,0.02-0.05,0.03c-0.02,0.01-0.03,0.02-0.05,0.03c-0.02,0.01-0.03,0.02-0.05,0.03c-0.02,0.01-0.03,0.02-0.05,0.03  c-0.02,0.01-0.03,0.02-0.05,0.03c-0.02,0.01-0.03,0.02-0.05,0.03c-0.02,0.01-0.03,0.02-0.05,0.03c-0.05,0.67-0.11,1.22-0.18,1.88  c0.19-0.09,0.49-0.23,0.79-0.4c0.01,0,0.02-0.01,0.02-0.01c0.05-0.67,0.08-1.23,0.1-1.92C150.26,57.45,150.25,57.45,150.23,57.46z   M149.3,49.02c0,0.04,0.01,0.07,0.01,0.11c0,0.04,0.01,0.07,0.01,0.11c0,0.04,0.01,0.07,0.01,0.11c0,0.04,0.01,0.07,0.01,0.11  c0,0.04,0.01,0.07,0.01,0.11c0,0.04,0.01,0.07,0.01,0.11c0,0.04,0.01,0.07,0.01,0.11c0,0.04,0.01,0.07,0.01,0.11  c0,0.04,0.01,0.07,0.01,0.11c0,0.04,0.01,0.07,0.01,0.11c0,0.04,0.01,0.07,0.01,0.11c0,0.04,0.01,0.07,0.01,0.11  c0,0.04,0.01,0.07,0.01,0.11c0,0.04,0.01,0.07,0.01,0.11c0,0.04,0.01,0.07,0.01,0.11c0,0.04,0.01,0.08,0.01,0.11  c0.02-0.01,0.03-0.02,0.05-0.03c0.02-0.01,0.03-0.02,0.05-0.03c0.02-0.01,0.03-0.02,0.05-0.03c0.02-0.01,0.03-0.02,0.05-0.03  c0.02-0.01,0.03-0.02,0.05-0.03c0.02-0.01,0.03-0.02,0.05-0.03c0.01-0.01,0.03-0.02,0.04-0.03c0.01-0.01,0.03-0.02,0.04-0.03  c0.01-0.01,0.03-0.02,0.04-0.03c0.01-0.01,0.03-0.02,0.04-0.03c0.01-0.01,0.03-0.02,0.04-0.03c0.01-0.01,0.03-0.02,0.04-0.03  c0.01-0.01,0.03-0.02,0.04-0.03c0.01-0.01,0.03-0.02,0.04-0.03c0.01-0.01,0.03-0.02,0.04-0.03c0.01-0.01,0.03-0.02,0.04-0.03  c-0.01-0.23-0.06-0.95-0.15-1.85c0-0.02,0-0.04-0.01-0.06C149.77,48.67,149.56,48.83,149.3,49.02z M147.13,40.12  c0.47,0.85,0.71,1.64,0.83,2.75c0.34-0.54,0.67-0.73,1.13-0.61c-0.28-0.67-0.56-1.48-0.71-2.83c0-0.03-0.01-0.08-0.01-0.11  C148.16,40.08,147.78,40.33,147.13,40.12z M147.66,55.98c0,0.02,0,0.03,0,0.05c0,0.02,0,0.03,0,0.05c0,0.01,0,0.02,0,0.02  c0,0.01,0,0.01,0,0.02c0,0.02,0,0.03,0,0.05c0,0.02,0,0.03,0,0.05c0.02-0.01,0.03-0.02,0.05-0.02c0.02-0.01,0.03-0.02,0.05-0.02  c0.02-0.01,0.03-0.02,0.05-0.02c0.02-0.01,0.03-0.02,0.05-0.02c0.02-0.01,0.03-0.02,0.05-0.02c0.02-0.01,0.03-0.02,0.05-0.02  c0.02-0.01,0.03-0.02,0.05-0.02c0.02-0.01,0.03-0.02,0.05-0.02c0.02-0.01,0.03-0.01,0.05-0.02c0.01-0.01,0.03-0.01,0.04-0.02  c0.01-0.01,0.03-0.01,0.04-0.02c0.01-0.01,0.03-0.01,0.04-0.02c0.01-0.01,0.03-0.01,0.04-0.02c0.01-0.01,0.03-0.01,0.04-0.02  c0.01-0.01,0.03-0.01,0.04-0.02c0.01-0.01,0.03-0.01,0.04-0.02c0-0.02,0-0.03,0-0.05c0-0.02,0-0.03,0-0.05c0,0,0-0.01,0-0.01  c0-0.01,0-0.02,0-0.04c0-0.02,0-0.03,0-0.05c0-0.02,0-0.03,0-0.05c0-0.02,0-0.03,0-0.05c0-0.02,0-0.03,0-0.05c0-0.02,0-0.03,0-0.05  c0-0.02,0-0.03,0-0.05c0-0.02,0-0.03,0-0.05c0-0.02,0-0.03,0-0.05c0-0.02,0-0.03,0-0.05c0-0.02,0-0.03,0-0.05c0-0.02,0-0.03,0-0.05  c0-0.02,0-0.03,0-0.05c0-0.02,0-0.03,0-0.05c0-0.02,0-0.03,0-0.05c0-0.02,0-0.03,0-0.05c0-0.02,0-0.03,0-0.05c0-0.02,0-0.03,0-0.05  c0-0.02,0-0.03,0-0.05c0-0.02,0-0.03,0-0.05c0-0.02,0-0.03,0-0.05c0-0.02,0-0.03,0-0.05c0-0.02,0-0.03,0-0.05c0-0.02,0-0.03,0-0.05  c0-0.02,0-0.03,0-0.05c0-0.02,0-0.03,0-0.05c0-0.02,0-0.03,0-0.05c0-0.02,0-0.03,0-0.05c0-0.02,0-0.03,0-0.05c0-0.02,0-0.03,0-0.05  c-0.02,0.01-0.03,0.02-0.05,0.02c-0.01,0.01-0.03,0.02-0.04,0.02c-0.01,0.01-0.03,0.02-0.04,0.02c-0.01,0.01-0.03,0.01-0.04,0.02  c-0.01,0.01-0.03,0.01-0.04,0.02c-0.01,0.01-0.03,0.01-0.04,0.02c-0.01,0.01-0.03,0.01-0.04,0.02c-0.01,0.01-0.03,0.01-0.04,0.02  c-0.01,0.01-0.03,0.01-0.04,0.02c-0.01,0.01-0.03,0.01-0.05,0.02c-0.02,0.01-0.03,0.01-0.05,0.02c-0.02,0.01-0.03,0.01-0.05,0.02  c-0.02,0.01-0.03,0.01-0.05,0.02c-0.02,0.01-0.03,0.02-0.05,0.02c-0.02,0.01-0.03,0.02-0.05,0.02c-0.02,0.01-0.03,0.02-0.05,0.02  c0,0.02,0,0.04,0,0.05c0,0.02,0,0.03,0,0.05c0,0.02,0,0.03,0,0.05c0,0.02,0,0.03,0,0.05c0,0.02,0,0.03,0,0.05c0,0.02,0,0.03,0,0.05  c0,0.02,0,0.03,0,0.05c0,0.02,0,0.03,0,0.05c0,0.02,0,0.03,0,0.05c0,0.02,0,0.03,0,0.05c0,0.02,0,0.03,0,0.05c0,0.02,0,0.03,0,0.05  c0,0.02,0,0.03,0,0.05c0,0.02,0,0.03,0,0.05c0,0.02,0,0.03,0,0.05c0,0.02,0,0.03,0,0.05c0,0.02,0,0.03,0,0.05c0,0.02,0,0.03,0,0.05  c0,0.02,0,0.03,0,0.05c0,0.02,0,0.03,0,0.05c0,0.02,0,0.03,0,0.05c0,0.02,0,0.03,0,0.05c0,0.02,0,0.03,0,0.05c0,0.02,0,0.03,0,0.05  c0,0.02,0,0.03,0,0.05c0,0.02,0,0.03,0,0.05C147.66,55.95,147.66,55.97,147.66,55.98z M146.49,45.63c0.15,0.66,0.27,1.21,0.41,1.92  c0.02-0.01,0.04-0.02,0.06-0.03c0.02-0.01,0.04-0.02,0.06-0.03c0.02-0.01,0.04-0.02,0.06-0.03c0.02-0.01,0.04-0.02,0.06-0.03  c0.02-0.01,0.04-0.02,0.06-0.03c0.02-0.01,0.04-0.02,0.06-0.03c0.02-0.01,0.04-0.02,0.06-0.03c0.02-0.01,0.04-0.02,0.06-0.03  c0.02-0.01,0.04-0.02,0.06-0.03c0.02-0.01,0.04-0.02,0.06-0.03c0.02-0.01,0.04-0.02,0.06-0.03c0.02-0.01,0.04-0.02,0.06-0.03  c0.02-0.01,0.04-0.02,0.06-0.03c0.02-0.01,0.04-0.02,0.06-0.03c0.02-0.01,0.04-0.02,0.06-0.03c0.02-0.01,0.04-0.02,0.06-0.03  c-0.03-0.27-0.12-0.98-0.26-1.86c-0.01-0.04-0.01-0.09-0.02-0.12c-0.02,0.01-0.04,0.02-0.06,0.03c-0.02,0.01-0.04,0.02-0.06,0.03  c-0.02,0.01-0.04,0.02-0.06,0.03c-0.02,0.01-0.04,0.02-0.07,0.03c-0.02,0.01-0.04,0.02-0.07,0.03s-0.04,0.02-0.07,0.03  c-0.02,0.01-0.04,0.02-0.07,0.03c-0.02,0.01-0.04,0.02-0.07,0.03c-0.02,0.01-0.04,0.02-0.07,0.03c-0.02,0.01-0.04,0.02-0.07,0.03  c-0.02,0.01-0.04,0.02-0.07,0.03c-0.02,0.01-0.04,0.02-0.07,0.03c-0.02,0.01-0.04,0.02-0.07,0.03c-0.02,0.01-0.04,0.02-0.07,0.03  c-0.02,0.01-0.04,0.02-0.07,0.03C146.54,45.61,146.52,45.62,146.49,45.63z M147.76,64.74c0.01,0,0.01,0,0.02,0  c0.11-0.74,0.19-1.35,0.27-2.12c-0.02,0.01-0.04,0.02-0.06,0.03c-0.02,0.01-0.04,0.02-0.06,0.03c-0.02,0.01-0.04,0.02-0.06,0.03  c-0.02,0.01-0.04,0.02-0.06,0.03c-0.02,0.01-0.04,0.02-0.06,0.03c-0.02,0.01-0.04,0.02-0.06,0.03c-0.02,0.01-0.04,0.02-0.06,0.03  c-0.02,0.01-0.04,0.02-0.06,0.03c-0.02,0.01-0.04,0.02-0.06,0.03c-0.02,0.01-0.04,0.02-0.06,0.03c-0.02,0.01-0.04,0.02-0.06,0.03  c-0.02,0.01-0.04,0.02-0.06,0.03c-0.02,0.01-0.04,0.02-0.06,0.03c-0.02,0.01-0.04,0.02-0.06,0.03c-0.02,0.01-0.04,0.02-0.06,0.03  c-0.02,0.01-0.04,0.02-0.06,0.03c-0.14,0.81-0.27,1.46-0.44,2.23C146.78,65.16,147.25,64.65,147.76,64.74z M149.4,65  c-0.47,0.66-0.82,0.88-1.21,0.77c-0.06,0.94-0.29,1.79-0.85,3c0.67-0.9,1.09-1.17,1.38-0.88c0,0,0.01,0.01,0.01,0.01  C148.77,67.06,149.01,66.16,149.4,65z M151.57,59.85c-0.35,0.64-0.61,0.88-0.93,0.86c-0.04,0.92-0.19,1.73-0.51,2.77  c0.4-0.61,0.73-0.95,1-0.65c0,0,0,0,0,0C151.15,61.89,151.3,61.05,151.57,59.85z M151.95,53.95c-0.09-1.02-0.06-1.79-0.03-2.4  c-0.25,0.28-0.45,0.49-0.7,0.74c0,0.04,0,0.08,0,0.13c0,0.04,0,0.08,0,0.13c0,0.04,0,0.08,0,0.13c0,0.04,0,0.09,0,0.13  c0,0.04,0,0.09,0,0.13c0,0.04,0,0.09,0,0.13c0,0.04,0,0.09,0,0.13c0,0.04,0,0.09,0,0.13c0,0.04,0,0.09,0,0.13c0,0.04,0,0.09,0,0.13  c0,0.04,0,0.09,0,0.13c0,0.04,0,0.09,0,0.13c0,0.04,0,0.09,0,0.13c0,0.01,0,0.03,0,0.04c0,0.03,0,0.06,0,0.09c0,0.04,0,0.08,0,0.13  c0,0.04,0,0.08,0,0.13c0.11-0.05,0.36-0.18,0.66-0.36v0C151.92,53.97,151.94,53.96,151.95,53.95z M151.99,46.5  c0.24,0.86,0.33,1.61,0.32,2.77c0.39-0.54,0.39-0.54,0.74-0.55c-0.17-0.83-0.28-1.66-0.31-3.19c0-0.04,0-0.09,0-0.13  C152.55,46.43,152.27,46.54,151.99,46.5z M153.14,54.17c-0.32,1.08-0.57,1.13-0.77,1.04c0.04,1-0.02,1.81-0.23,2.88  c0.46-0.62,0.46-0.62,0.71-0.61c0.01,0,0.03,0,0.04,0C152.88,56.49,152.97,55.55,153.14,54.17z M153.95,55.43  c-0.24,0.79-1.08,5.25-1,5.61c0.03-0.06,0.07-0.15,0.2-0.73l0.46-2.24l0.3-1.86c0.11-0.81,0.09-0.85,0.07-0.88  C153.98,55.36,153.96,55.4,153.95,55.43z M140.42,83.75c0.01-0.01,0.01-0.01,0.02-0.02c0.88-0.91,1.97-2.21,2.8-3.17  c0.19-0.24,0.19-0.24,0.21-0.29c-0.02,0.02-0.05,0.05-0.07,0.07C143.05,80.7,140.49,83.66,140.42,83.75z M152.5,40.9  C152.5,40.9,152.5,40.9,152.5,40.9C152.5,40.9,152.5,40.9,152.5,40.9C152.5,40.9,152.5,40.9,152.5,40.9  C152.5,40.9,152.5,40.9,152.5,40.9C152.5,40.9,152.5,40.9,152.5,40.9C152.5,40.9,152.5,40.9,152.5,40.9  C152.5,40.9,152.5,40.9,152.5,40.9C152.5,40.9,152.5,40.9,152.5,40.9c0.33-0.66,0.01-2.34-0.23-3.23c-0.32-1.2-0.95-2.69-1.34-2.24  c-0.05,0.11-0.16,0.33-0.12,1.07c0.07,1.26,0.58,3.19,1.07,4.05c0.03,0.04,0.07,0.09,0.1,0.15  C152.17,40.97,152.35,41.07,152.5,40.9z M138.1,68.97C138.1,68.97,138.1,68.97,138.1,68.97c-0.55-0.34-0.78-0.48-1.41-0.35  c-1.8,0.47-3.23,3.09-2.47,4.53c0.81,1.52,3.27,0.25,3.99-2.06c0.28-0.89,0.16-1.31-0.06-2.08c-0.01,0-0.01-0.01-0.01-0.01  L138.1,68.97C138.1,68.98,138.1,68.97,138.1,68.97z M152.84,60.63c-0.03,0.02-0.06,0.06-0.08,0.09c0,0,0,0,0,0c0,0,0,0,0,0  c0,0,0,0,0,0c0,0,0,0,0,0c0,0,0,0,0,0c0,0,0,0,0,0c0,0,0,0,0,0c0,0,0,0,0,0c-0.57,0.99-1.73,5.07-1.54,5.45  c0.2-0.06,0.81-1.73,1.22-3.2c0.13-0.45,0.53-1.95,0.45-2.32C152.87,60.65,152.85,60.64,152.84,60.63z M150.78,67.79l-0.34,0.86  C150.53,68.43,150.65,68.13,150.78,67.79z M139.94,40.45c-0.34-1.38-1.43-2.64-2.66-2.36c-1.98,0.72-1.48,4.42,0.27,5.43  c0.75,0.43,1.93,0.24,2.37-0.89c0.01-0.04,0.02-0.07,0.04-0.11C140.13,42.01,140.15,41.34,139.94,40.45z M151.46,66.05l0.64-1.92  c-0.28,0.81-0.88,2.48-1.32,3.65L151.46,66.05z M120.67,96.35l1.14-0.4c0.12-0.04,0.26-0.1,0.37-0.14c0.19-0.08,0.83-0.33,0.92-0.4  c-0.02,0-0.03,0-0.1,0.03C122.62,95.56,120.69,96.34,120.67,96.35z M141.13,82.09c-0.94,0.62-3.05,3.05-2.97,3.33  c0.18,0.09,1.37-1,2.21-1.96c0.67-0.76,0.95-1.2,0.98-1.35C141.38,81.95,141.24,82.03,141.13,82.09z M116.6,97  C116.6,97,116.59,97,116.6,97C116.59,97,116.59,97,116.6,97C116.59,97,116.59,97,116.6,97C116.59,97,116.59,97,116.6,97  C116.59,97,116.59,97,116.6,97C116.59,97,116.59,97,116.6,97C116.59,97,116.59,97,116.6,97C116.59,97,116.59,97,116.6,97  c-0.55,0.1-1.35,0.45-1.46,0.58c-0.06,0.07,0.11,0.05,0.18,0.04c0,0,0,0,0,0c0,0,0,0,0,0s0,0,0,0s0,0,0,0s0,0,0,0s0,0,0,0  c0,0,0,0,0,0c0,0,0,0,0,0c0.37-0.07,0.83-0.22,1.1-0.34c0.2-0.09,0.34-0.17,0.38-0.22C116.87,96.96,116.66,96.99,116.6,97z   M114.56,98.02l0.8-0.17c0.03-0.01,0.13-0.03,0.25-0.06c0.47-0.12,0.5-0.16,0.51-0.17c-0.02,0-0.04,0-0.1,0.01  C115.67,97.7,114.62,98,114.56,98.02z M120.08,96.27c-0.5,0.12-1.84,0.68-1.95,0.77c0,0,0,0.01,0,0.01c0.13,0,0.92-0.25,1.47-0.47  c0.39-0.16,0.6-0.27,0.64-0.33C120.21,96.25,120.18,96.25,120.08,96.27z M112.9,97.68c0.02-0.02,0.12-0.15-0.24-0.12  c-0.46,0.05-0.95,0.3-0.97,0.41c-0.02,0.15,0.74-0.01,1.09-0.2C112.85,97.73,112.88,97.7,112.9,97.68z M112.03,96.92  c0.12-0.13,0.12-0.32-0.35-0.3c-0.38,0.03-0.75,0.21-0.89,0.37c-0.13,0.14-0.11,0.33,0.33,0.31c0,0,0,0,0,0c0,0,0,0,0,0  c0,0,0,0,0,0c0,0,0,0,0,0c0,0,0,0,0,0c0,0,0,0,0,0c0,0,0,0,0,0c0,0,0,0,0,0c0.46-0.05,0.76-0.24,0.87-0.34  C112.01,96.94,112.02,96.93,112.03,96.92z M120.9,95.43c0.07-0.09,0.08-0.18-0.25-0.13c-0.68,0.14-1.88,0.8-1.93,1.01  c-0.05,0.21,1.06-0.17,1.73-0.55C120.76,95.58,120.87,95.47,120.9,95.43z M112.88,98.17c-0.38,0.05-0.89,0.21-0.95,0.25  c0,0,0,0.01,0,0.01c0.06,0.02,0.55-0.07,0.85-0.16c0.15-0.04,0.24-0.08,0.25-0.1C113.02,98.16,113.01,98.15,112.88,98.17z   M115.77,95.28c0.16-0.21,0.17-0.51-0.49-0.47c-0.71,0.08-1.4,0.56-1.42,0.88c-0.02,0.47,1.31,0.22,1.86-0.35  C115.74,95.33,115.76,95.3,115.77,95.28z M119.91,93.22c0.24-0.31,0.3-0.77-0.57-0.68c-0.93,0.13-1.86,0.85-1.88,1.31  c-0.03,0.64,1.64,0.26,2.37-0.54C119.86,93.28,119.89,93.24,119.91,93.22z M137.43,85.89c0.08-0.2-0.12-0.11-0.22-0.06  c-0.98,0.53-3.09,2.57-2.97,2.8c0.21,0.07,1.41-0.85,2.26-1.65C137.09,86.4,137.37,86.04,137.43,85.89z M132.85,90.13  c0.03-0.01,0.04-0.02,0.1-0.05c0,0,0,0,0,0c0,0,0,0,0,0c0,0,0,0,0,0c0,0,0,0,0,0c0,0,0,0,0,0c0,0,0,0,0,0c0,0,0,0,0,0c0,0,0,0,0,0  c0.42-0.27,1.24-0.86,1.9-1.38c0.12-0.09,1.15-0.91,1.15-1.03c-0.03,0.01-0.05,0.02-0.12,0.06  C135.26,88.13,132.89,90.03,132.85,90.13z M136.78,87.15c0.2-0.13,1.14-0.95,1.94-1.71c0.12-0.11,1.15-1.09,1.21-1.26  c-0.03,0.01-0.04,0.02-0.11,0.07C139.3,84.66,136.8,87.05,136.78,87.15z M133.26,89.19c0.07-0.16-0.12-0.09-0.23-0.05  c-1.01,0.45-2.83,1.98-2.88,2.22c-0.05,0.24,1.2-0.49,2.19-1.28C132.93,89.62,133.2,89.32,133.26,89.19z M127.37,93.35  C127.37,93.35,127.37,93.35,127.37,93.35C127.37,93.35,127.37,93.35,127.37,93.35C127.37,93.35,127.37,93.35,127.37,93.35  C127.37,93.35,127.37,93.35,127.37,93.35C127.37,93.35,127.37,93.35,127.37,93.35C127.37,93.35,127.37,93.35,127.37,93.35  C127.37,93.35,127.37,93.35,127.37,93.35C127.37,93.35,127.37,93.35,127.37,93.35c-0.48,0.2-2.6,1.32-2.69,1.4  c0.02-0.01,0.04-0.01,0.09-0.03c0,0,0,0,0,0c0,0,0,0,0,0c0,0,0,0,0,0c0,0,0,0,0,0c0,0,0,0,0,0c0,0,0,0,0,0c0,0,0,0,0,0c0,0,0,0,0,0  c0.35-0.15,1.07-0.48,1.7-0.8c0.14-0.07,0.86-0.45,1.01-0.59c0,0,0-0.01,0-0.01C127.45,93.32,127.44,93.32,127.37,93.35z   M131.7,90.78c-0.41,0.2-2.8,1.74-2.91,1.89c0.15-0.04,1.15-0.62,1.96-1.14c0.15-0.1,0.93-0.61,1.07-0.78c0-0.01,0-0.01-0.01-0.02  C131.79,90.74,131.77,90.74,131.7,90.78z M141.41,30.91c-0.43-1.01-1.51-2.48-2.59-2.16c0,0,0,0,0,0c0,0,0,0,0,0c0,0,0,0,0,0  s0,0,0,0c0,0,0,0,0,0c0,0,0,0,0,0c0,0,0,0,0,0s0,0,0,0c-0.15,0.08-0.28,0.15-0.41,0.39c-0.76,1.44,1.02,5.1,2.73,4.59c0,0,0,0,0,0  c0,0,0,0,0,0c0,0,0,0,0,0c0,0,0,0,0,0c0,0,0,0,0,0c0,0,0,0,0,0c0,0,0,0,0,0c0,0,0,0,0,0C142.08,33.22,141.75,31.72,141.41,30.91z   M124.35,94.39C124.35,94.39,124.35,94.39,124.35,94.39C124.35,94.39,124.35,94.39,124.35,94.39  C124.35,94.39,124.35,94.39,124.35,94.39C124.35,94.39,124.35,94.39,124.35,94.39C124.35,94.39,124.35,94.39,124.35,94.39  C124.35,94.39,124.35,94.39,124.35,94.39C124.35,94.39,124.35,94.39,124.35,94.39C124.35,94.39,124.35,94.39,124.35,94.39  c-0.73,0.23-2.22,1.04-2.36,1.22c0,0.01,0,0.02,0,0.02c0.16,0.03,1.13-0.39,1.78-0.73c0.18-0.09,0.77-0.41,0.77-0.53  C124.52,94.35,124.48,94.35,124.35,94.39z M128.92,92.04c0.06-0.12-0.13-0.06-0.22-0.03c-0.77,0.27-2.65,1.53-2.66,1.73  c0.1,0.1,1.29-0.51,2.08-1.03C128.64,92.35,128.87,92.13,128.92,92.04z M110,95.33c-0.57,0.05-0.98,0.37-0.94,0.61  c0.06,0.43,1.17,0.32,1.48-0.15C110.71,95.53,110.45,95.31,110,95.33z M120.63,2.6C120.63,2.6,120.63,2.6,120.63,2.6  C120.63,2.6,120.63,2.6,120.63,2.6C120.63,2.6,120.63,2.6,120.63,2.6L120.63,2.6C120.63,2.6,120.63,2.6,120.63,2.6  C120.63,2.6,120.63,2.6,120.63,2.6c0.09,0.07,1.28,0.46,1.37,0.41c-0.04-0.06-0.44-0.19-0.65-0.26c-0.25-0.08-0.65-0.18-0.72-0.17  C120.63,2.59,120.63,2.6,120.63,2.6C120.63,2.6,120.63,2.6,120.63,2.6C120.63,2.6,120.63,2.6,120.63,2.6z M120.75,3.28  c0.1,0.14,1.96,0.78,2.12,0.73c0,0,0-0.01,0-0.01c-0.06-0.08-0.54-0.29-0.97-0.44C121.55,3.43,120.84,3.22,120.75,3.28z   M120.54,3.98c0,0.1,0.9,0.47,1.31,0.63c0.41,0.16,1.11,0.41,1.2,0.33c-0.01-0.11-0.57-0.38-1.08-0.57  C121.36,4.13,120.62,3.91,120.54,3.98C120.55,3.98,120.54,3.98,120.54,3.98z M120.28,1.98c-0.05-0.01-0.05-0.01-0.25-0.05  c0.27,0.08,0.27,0.08,0.54,0.14C120.48,2.04,120.38,2.01,120.28,1.98z M124.4,4.17c0,0,0,0.01,0,0.01  c0.17,0.19,2.13,1.01,2.23,0.94c-0.02-0.08-0.56-0.36-1.06-0.57h0C125.07,4.33,124.47,4.12,124.4,4.17z M124.25,7.74  c1.29,0.78,1.66,0.77,1.72,0.76c0.29-0.04-0.23-0.55-1.06-1.03c-0.69-0.4-1.62-0.79-1.8-0.69C122.98,6.97,124.2,7.71,124.25,7.74z   M122.61,5.87c0.15-0.05-0.31-0.36-1.01-0.68c-0.66-0.3-1.5-0.59-1.64-0.51C119.89,4.87,122.31,5.97,122.61,5.87z M126.57,4.27  C126.57,4.27,126.57,4.27,126.57,4.27C126.57,4.27,126.57,4.27,126.57,4.27C126.57,4.27,126.57,4.27,126.57,4.27  C126.57,4.27,126.57,4.27,126.57,4.27C126.57,4.27,126.57,4.27,126.57,4.27C126.57,4.27,126.57,4.27,126.57,4.27  C126.57,4.27,126.57,4.27,126.57,4.27c0.13,0.08,1.36,0.69,1.41,0.69c-0.01-0.01-0.02-0.01-0.03-0.02c0,0,0,0,0,0c0,0,0,0,0,0  c0,0,0,0,0,0c0,0,0,0,0,0c0,0,0,0,0,0c0,0,0,0,0,0c0,0,0,0,0,0c0,0,0,0,0,0c-0.15-0.09-0.51-0.27-0.82-0.43  c-0.13-0.06-0.54-0.26-0.58-0.26C126.55,4.26,126.56,4.26,126.57,4.27C126.57,4.27,126.57,4.27,126.57,4.27z M125.31,3.93  C125.32,3.93,125.32,3.92,125.31,3.93c-0.07-0.07-0.44-0.24-0.76-0.36c-0.3-0.12-0.65-0.24-0.73-0.24c0,0,0,0.01,0,0.01  c0,0,0.01,0.01,0.01,0.01C123.97,3.45,125.19,3.93,125.31,3.93z M117.18,5.07c0.08-0.04-0.2-0.26-0.8-0.55  c-0.54-0.25-1.26-0.51-1.42-0.48c0,0-0.01,0.01-0.01,0.01C114.95,4.23,117,5.16,117.18,5.07z M127.69,5.23c0,0,0.01,0.01,0.01,0.01  c0.17,0.17,1.95,1.1,2.15,1.12c0,0,0-0.01,0.01-0.01c-0.09-0.11-0.66-0.45-1.15-0.7c-0.39-0.2-0.87-0.42-1-0.43  C127.7,5.22,127.69,5.22,127.69,5.23z M113.33,1.18c-0.04-0.01-0.09-0.01-0.13-0.02c-0.05-0.01-0.12,0-0.12,0  c0.05,0.01,0.26,0.04,0.29,0.03C113.35,1.18,113.34,1.18,113.33,1.18z M118.18,4.43c-0.03-0.1-0.51-0.32-0.93-0.49  c-0.55-0.21-1.3-0.44-1.44-0.4c0,0,0,0.01,0,0.01C115.91,3.75,118.1,4.56,118.18,4.43z M113.93,1.67  c-0.03-0.03-0.27-0.07-0.35-0.08c-0.17-0.03-0.17-0.03-0.73-0.09C113.84,1.68,113.88,1.69,113.93,1.67z M117.13,1.52  c-0.02-0.01-0.08-0.02-0.11-0.03c-0.09-0.02-0.17-0.03-0.26-0.04c0.07,0.02,0.15,0.04,0.22,0.05  C116.99,1.51,117.11,1.52,117.13,1.52z M116.98,1.99c0.03,0.04,1.03,0.29,1.19,0.27c0,0,0-0.01,0.01-0.01  c-0.05-0.04-0.39-0.13-0.58-0.17C117.43,2.05,117.01,1.96,116.98,1.99z M116.8,2.51c0.06,0.09,1.86,0.57,1.92,0.51  c-0.03-0.06-0.47-0.21-0.88-0.31C117.4,2.58,116.85,2.47,116.8,2.51z M114.2,2.17c-0.03-0.03-0.35-0.11-0.65-0.17  c-0.22-0.05-0.73-0.14-0.81-0.12C112.74,1.89,114.07,2.22,114.2,2.17z M118.68,3.74c0-0.07-0.47-0.26-0.95-0.42  c-0.54-0.17-1.2-0.34-1.28-0.29c0,0,0,0,0,0c-0.01,0.08,1.16,0.46,1.22,0.47C118,3.62,118.59,3.79,118.68,3.74z M121.6,6.73  c0.21-0.04-0.24-0.41-0.93-0.78c-0.64-0.34-1.5-0.67-1.69-0.61c0,0-0.01,0.01-0.01,0.02C118.89,5.59,121.23,6.81,121.6,6.73z   M80.75,64.71c-0.02-0.02-0.05-0.03-0.07-0.04c-0.02,0-0.02,0-0.05,0.01c-0.03,0.02-0.06,0.04-0.09,0.06  c0.03,0.05,0.05,0.11,0.08,0.16c0.02,0.03,0.04,0.05,0.05,0.05c0.02,0.01,0.04,0,0.05,0c0.06-0.02,0.12-0.05,0.18-0.07h0  c0.01,0,0.02,0,0.02-0.01C80.88,64.83,80.82,64.77,80.75,64.71z M149.62,32.78c0.57,0.21,0.38-1.29-0.37-2.92  c-0.56-1.22-1.37-2.32-1.7-1.97c0,0,0,0,0,0c0,0,0,0,0,0c0,0,0,0,0,0c0,0,0,0,0,0c0,0,0,0,0,0c0,0,0,0,0,0c0,0,0,0,0,0c0,0,0,0,0,0  C147.13,28.81,148.85,32.5,149.62,32.78z M151.86,33.19c0-0.03-0.01-0.06-0.02-0.08c0,0,0,0,0,0c0,0,0,0,0,0c0,0,0,0,0,0  c0,0,0,0,0,0s0,0,0,0c0,0,0,0,0,0c0,0,0,0,0,0c0,0,0,0,0,0c-0.03-0.1-0.04-0.11-0.08-0.23l-0.06-0.19  c-0.39-1.13-1.02-2.6-1.46-3.72c-0.16-0.36-0.17-0.38-0.22-0.44c0,0.03,0.01,0.06,0.02,0.08C150.15,28.98,151.65,32.9,151.86,33.19  z M148.4,25.21l-0.28-0.5c0.13,0.23,0.27,0.5,0.42,0.78L148.4,25.21z M147.51,34.98c0.85,0.27,0.97-1.32,0.22-3.09  c-0.47-1.12-1.45-2.52-2.13-2.12c0,0,0,0,0,0c0,0,0,0,0,0c0,0,0,0,0,0c0,0,0,0,0,0c0,0,0,0,0,0c0,0,0,0,0,0c0,0,0,0,0,0  c0,0,0,0,0,0C144.67,30.72,146.34,34.62,147.51,34.98z M144.8,31.92C144.8,31.92,144.8,31.92,144.8,31.92  C144.8,31.92,144.8,31.92,144.8,31.92C144.8,31.92,144.8,31.92,144.8,31.92C144.8,31.92,144.8,31.92,144.8,31.92  C144.8,31.92,144.8,31.92,144.8,31.92C144.81,31.92,144.81,31.92,144.8,31.92C144.81,31.92,144.81,31.92,144.8,31.92  C144.81,31.91,144.81,31.91,144.8,31.92c0.68-0.55,0.2-2.03-0.19-2.82c-0.52-1.06-1.6-2.39-2.37-2.05  c-0.07,0.06-0.16,0.12-0.22,0.27C141.47,28.61,143.42,32.54,144.8,31.92z M143.73,27.14c0.84,0.23,0.74-1.11-0.2-2.6  c-0.59-0.93-1.67-2.1-2.25-1.77C140.55,23.37,142.47,26.8,143.73,27.14z M146.94,29.96c0.71,0.23,0.58-1.22-0.26-2.77  c-0.55-1.03-1.57-2.26-2.05-1.9c0,0,0,0,0,0c0,0,0,0,0,0c0,0,0,0,0,0c0,0,0,0,0,0c0,0,0,0,0,0c0,0,0,0,0,0c0,0,0,0,0,0c0,0,0,0,0,0  C144.04,26.15,145.97,29.65,146.94,29.96z M132.51,7.71c-0.09-0.08-0.68-0.48-1.2-0.8c-0.18-0.11-0.79-0.49-0.88-0.5  c0.01,0.01,0.02,0.02,0.03,0.03C130.58,6.52,132.4,7.68,132.51,7.71z M144.73,36.92C144.73,36.92,144.73,36.92,144.73,36.92  C144.73,36.92,144.73,36.91,144.73,36.92C144.73,36.91,144.73,36.91,144.73,36.92C144.73,36.91,144.73,36.91,144.73,36.92  C144.73,36.91,144.73,36.91,144.73,36.92C144.73,36.91,144.73,36.91,144.73,36.92C144.73,36.91,144.73,36.91,144.73,36.92  C144.73,36.91,144.73,36.91,144.73,36.92c0.9-0.56,0.59-2.18,0.27-3.04c-0.43-1.16-1.48-2.64-2.46-2.27  c-0.14,0.09-0.27,0.17-0.39,0.44C141.42,33.62,143.11,37.52,144.73,36.92z M148.54,25.48l1.12,2.2  C149.36,27.06,148.93,26.22,148.54,25.48z M136.43,11.25c-0.7-0.56-1.47-1.05-1.45-0.86c0.09,0.29,2.48,2.33,2.82,2.26  C137.88,12.54,137.16,11.83,136.43,11.25L136.43,11.25z M140.46,14.6c-0.01-0.13-0.77-0.92-1.44-1.55  c-0.11-0.1-1.06-0.98-1.24-0.99c0,0.02,0.01,0.04,0.02,0.05C138.06,12.5,140.24,14.58,140.46,14.6z M131.46,7.6  c0.14,0.21,2.38,1.74,2.58,1.68c0-0.01,0-0.03-0.01-0.04c0,0,0,0,0,0c0,0,0,0,0,0c0,0,0,0,0,0c0,0,0,0,0,0c0,0,0,0,0,0c0,0,0,0,0,0  c0,0,0,0,0,0c0,0,0,0,0,0c-0.15-0.21-0.78-0.67-1.32-1.02c-0.54-0.35-1.15-0.69-1.26-0.66C131.45,7.57,131.45,7.59,131.46,7.6z   M136.7,10.94c-0.01-0.01-0.02-0.03-0.03-0.04c0,0,0,0,0,0c0,0,0,0,0,0c0,0,0,0,0,0c0,0,0,0,0,0c0,0,0,0,0,0c0,0,0,0,0,0  c0,0,0,0,0,0c0,0,0,0,0,0c-0.24-0.25-0.89-0.78-1.38-1.15c-0.04-0.03-0.97-0.74-1.07-0.73c0.01,0.01,0.02,0.03,0.03,0.04  C134.5,9.31,136.59,10.94,136.7,10.94z M148.45,25.56c0.01-0.19-0.66-1.42-1.26-2.4c-0.16-0.26-0.96-1.55-1.14-1.57  c0,0.02,0,0.05,0.01,0.07C146.17,22.05,148.17,25.51,148.45,25.56z M148.12,24.71c-0.08-0.15-0.16-0.29-0.22-0.4L148.12,24.71z   M142.44,16.56c-0.24-0.28-0.87-0.99-2.37-2.58c-0.02-0.02-0.04-0.04-0.06-0.06L142.44,16.56L142.44,16.56z M145.76,20.92  c-0.02-0.03-0.05-0.11-0.46-0.69l-1.31-1.77c-0.3-0.39-0.67-0.85-0.73-0.87c0.01,0.02,0.02,0.04,0.03,0.06  C143.52,18.01,145.58,20.78,145.76,20.92z M151.7,35.63c0.41,0.24,0.16-1.33-0.48-3.04c-0.47-1.26-1.1-2.38-1.29-1.99  C149.72,31.55,151.15,35.31,151.7,35.63z M105.36,17.69c0.01-0.39-0.23-0.72-0.52-0.72c-0.53,0.03-0.67,0.86-0.31,1.22  C104.85,18.51,105.36,18.29,105.36,17.69z M105.83,24.77c0.03-0.48-0.24-1.18-0.92-1.22c-0.89,0.05-1.15,1.34-0.59,1.95  C104.87,26.09,105.78,25.65,105.83,24.77z M102.66,14.82c0.05-0.09,0.1-0.19,0.14-0.28c0.02-0.05,0.03-0.08,0.03-0.1  c0.01-0.09-0.08-0.22-0.13-0.22c-0.04,0-0.19,0.12-0.2,0.25c0,0,0,0.04,0.02,0.09C102.57,14.64,102.62,14.73,102.66,14.82z   M102.83,14.43L102.83,14.43L102.83,14.43L102.83,14.43z M106.24,32.5c0.05-0.64-0.36-1.55-1.27-1.61  c-1.09,0.01-1.65,1.58-0.88,2.47C104.83,34.23,106.14,33.7,106.24,32.5z M104.64,1.04c-0.04-0.01-0.09-0.02-0.13-0.03  c0.07,0.01,0.15,0.03,0.22,0.04C104.7,1.05,104.67,1.04,104.64,1.04z M114.1,2.67c-0.05-0.05-0.45-0.17-0.8-0.26  c-0.43-0.11-0.93-0.21-1-0.19C112.31,2.23,114.02,2.74,114.1,2.67z M104.55,1.03c-0.01-0.01-0.03-0.01-0.04-0.02  c0.07,0.03,0.14,0.05,0.21,0.08C104.66,1.07,104.61,1.05,104.55,1.03z M104.77,11.3c-0.06,0-0.14,0.16-0.15,0.22  c-0.01,0.05,0.08,0.2,0.13,0.2c0.01,0,0.03,0,0.06-0.02c0.06-0.04,0.1-0.09,0.16-0.14c0.01-0.01,0.01-0.01,0.02-0.02  c-0.06-0.07-0.1-0.14-0.16-0.2C104.8,11.31,104.79,11.3,104.77,11.3z M99.47,24.63c0.06-0.28,0-0.71-0.42-0.76c0,0,0,0,0,0  c0,0,0,0,0,0s0,0,0,0c0,0,0,0,0,0c0,0,0,0,0,0c0,0,0,0,0,0c0,0,0,0,0,0c0,0,0,0,0,0c-0.52,0.01-0.78,0.7-0.52,1.08  C98.78,25.31,99.35,25.19,99.47,24.63z M93.16,24.23c0.01,0.01,0.03,0,0.04,0c0.06-0.02,0.11-0.05,0.16-0.07  c0.01,0,0.01-0.01,0.02-0.01c-0.04-0.05-0.06-0.1-0.1-0.15c-0.01-0.02-0.03-0.03-0.04-0.03c-0.02,0-0.02,0-0.04,0.02  c-0.03,0.02-0.06,0.04-0.09,0.06c0.01,0.05,0.01,0.09,0.02,0.14C93.14,24.21,93.15,24.23,93.16,24.23z M95.78,28.2  c0.09-0.32-0.06-0.6-0.33-0.62c-0.47-0.01-0.62,0.58-0.47,0.85C95.17,28.77,95.66,28.62,95.78,28.2z M102.7,21.12  c0.05-0.3-0.09-0.75-0.48-0.79c0,0,0,0,0,0c0,0,0,0,0,0c0,0,0,0,0,0s0,0,0,0c0,0,0,0,0,0s0,0,0,0c0,0,0,0,0,0c0,0,0,0,0,0  c-0.53,0.02-0.74,0.83-0.43,1.22C102.07,21.91,102.61,21.66,102.7,21.12z M96.91,20.77L96.91,20.77c0.01-0.03-0.02-0.1-0.05-0.11  c-0.01,0-0.03,0.01-0.05,0.02c-0.04,0.02-0.07,0.05-0.1,0.07c0.02,0.07,0.04,0.15,0.06,0.22C96.9,20.79,96.9,20.79,96.91,20.77z   M91.73,31.83c0.02-0.06,0.03-0.11-0.01-0.22c-0.05-0.15-0.13-0.28-0.19-0.43c-0.12,0.15-0.27,0.27-0.36,0.45  c-0.08,0.16-0.06,0.27-0.02,0.33C91.28,32.21,91.64,32.09,91.73,31.83z M102.62,28.49L102.62,28.49c0.05-0.47-0.18-1.15-0.84-1.2  c-0.82-0.01-1.3,1.18-0.76,1.87C101.55,29.83,102.53,29.43,102.62,28.49z M99.98,17.74c0.01,0,0.02,0,0.05-0.03  c0.05-0.04,0.1-0.1,0.15-0.14c0.01,0,0.01-0.01,0.02-0.01c-0.04-0.05-0.06-0.12-0.1-0.17c-0.03-0.04-0.04-0.04-0.06-0.04  c0,0,0,0,0,0c0,0,0,0,0,0c0,0,0,0,0,0c0,0,0,0,0,0c0,0,0,0,0,0c0,0,0,0,0,0c0,0,0,0,0,0c0,0,0,0,0,0c-0.02,0-0.03,0-0.07,0.03  c-0.04,0.04-0.08,0.08-0.12,0.12c0.03,0.06,0.04,0.12,0.07,0.18C99.94,17.72,99.97,17.74,99.98,17.74z M104.59,1.02  c0,0-0.05-0.01-0.08-0.01c0.08,0.01,0.16,0.02,0.24,0.03C104.7,1.04,104.64,1.03,104.59,1.02z M98.97,32.29  c0.06-0.42-0.14-1.07-0.76-1.14c0,0,0,0,0,0c0,0,0,0,0,0s0,0,0,0c0,0,0,0,0,0c0,0,0,0,0,0c0,0,0,0,0,0s0,0,0,0s0,0,0,0  c-0.86,0.02-1.24,1.13-0.79,1.75C97.93,33.59,98.85,33.11,98.97,32.29z M104.57,1.03c-0.02-0.01-0.04-0.01-0.07-0.02  c0.06,0.02,0.13,0.04,0.19,0.05C104.66,1.05,104.62,1.04,104.57,1.03z M108.96,1.21c0.01,0,0.28,0.03,0.31,0.03  c-0.06-0.01-0.11-0.02-0.17-0.02C109.06,1.21,108.96,1.21,108.96,1.21z M109.2,1.01c-0.04-0.01-0.07-0.01-0.11-0.01  c-0.02,0-0.2,0-0.2,0C108.92,1.01,109.18,1.02,109.2,1.01z M109.13,1.44c-0.1-0.02-0.54-0.06-0.54-0.06c0,0,0.84,0.14,0.91,0.13  C109.47,1.5,109.35,1.48,109.13,1.44z M109.41,1.76L109.41,1.76L109.41,1.76L109.41,1.76C109.41,1.76,109.41,1.76,109.41,1.76  L109.41,1.76C109.41,1.76,109.41,1.76,109.41,1.76c-0.04-0.02-0.28-0.08-0.49-0.12c-0.22-0.04-0.58-0.11-0.65-0.1  C108.28,1.55,109.3,1.77,109.41,1.76L109.41,1.76z M111.67,3.88c0.01-0.07-0.38-0.28-0.46-0.32c-0.34-0.18-0.79-0.37-0.89-0.36  c0,0-0.01,0-0.01,0.01C110.32,3.33,111.57,3.95,111.67,3.88z M109.38,3.53C109.38,3.53,109.38,3.53,109.38,3.53  C109.38,3.53,109.38,3.53,109.38,3.53C109.38,3.53,109.38,3.53,109.38,3.53L109.38,3.53C109.38,3.53,109.38,3.53,109.38,3.53  C109.38,3.53,109.38,3.53,109.38,3.53C109.37,3.53,109.37,3.53,109.38,3.53C109.37,3.53,109.37,3.53,109.38,3.53  c-0.08,0.07,0.74,0.61,0.86,0.58c0.06-0.01-0.07-0.15-0.29-0.3C109.76,3.69,109.47,3.52,109.38,3.53  C109.38,3.53,109.38,3.53,109.38,3.53z M113.63,3.14c-0.04-0.06-0.41-0.2-0.77-0.32c-0.44-0.14-1-0.29-1.09-0.27c0,0,0,0,0,0.01  C111.85,2.67,113.58,3.21,113.63,3.14z M112.8,3.55c-0.01-0.06-0.34-0.22-0.66-0.35c-0.41-0.16-0.94-0.34-1.04-0.32  c0,0,0,0.01,0,0.01C111.15,2.97,112.7,3.64,112.8,3.55z M109.09,1.99c-0.03-0.02-0.27-0.09-0.47-0.14  c-0.27-0.07-0.61-0.15-0.66-0.14h0h0v0h0h0v0h0c0,0,0,0,0,0C107.97,1.71,109.03,2.02,109.09,1.99z M106.11,2.41  c0,0,0.07,0.06,0.08,0.06c0,0-0.01-0.03-0.02-0.04c-0.04-0.04-0.08-0.07-0.12-0.1C106.07,2.35,106.09,2.38,106.11,2.41  C106.11,2.41,106.11,2.41,106.11,2.41z M106.16,8.69c-0.02,0.05-0.02,0.1-0.04,0.15c0.03,0.03,0.06,0.07,0.09,0.1  c0.01,0.01,0.03,0.02,0.04,0.02c0.02,0,0.03-0.02,0.03-0.04c0.02-0.04,0.03-0.08,0.05-0.12v0c0,0,0-0.01,0.01-0.01  c-0.04-0.04-0.07-0.08-0.11-0.11c-0.02-0.02-0.03-0.02-0.03-0.02C106.19,8.64,106.17,8.65,106.16,8.69z M104.6,1.02  c-0.03,0-0.06,0-0.09-0.01c0.12,0.01,0.23,0.02,0.35,0.03C104.77,1.03,104.69,1.03,104.6,1.02z M107.41,14.47  c-0.02-0.26-0.18-0.65-0.53-0.67c0,0-0.01,0-0.01,0c-0.43,0.04-0.51,0.85-0.11,1.17C107.07,15.22,107.46,15,107.41,14.47z   M104.65,1.02c-0.05,0-0.1,0-0.14,0c0.09,0,0.17,0.01,0.26,0.01C104.73,1.02,104.69,1.02,104.65,1.02z M108.56,2.18  c-0.04-0.03-0.24-0.11-0.41-0.16c-0.22-0.07-0.49-0.16-0.53-0.15c0,0,0,0,0,0C107.62,1.88,108.51,2.22,108.56,2.18z M107.62,2.19  c-0.07-0.04-0.38-0.15-0.4-0.15c0.01,0.03,0.56,0.28,0.61,0.28C107.83,2.31,107.79,2.29,107.62,2.19z M106.99,4.31  c-0.03-0.1-0.03-0.1-0.04-0.11c-0.01-0.03-0.05-0.06-0.06-0.06c-0.01,0,0,0.06,0,0.06c0.01,0.01,0.02,0.02,0.03,0.04  C106.94,4.26,106.97,4.28,106.99,4.31z M107.01,2.4c-0.04-0.03-0.08-0.06-0.12-0.09c-0.03-0.02-0.08-0.05-0.09-0.05c0,0,0,0,0,0  c0.01,0.01,0.05,0.05,0.05,0.05C106.91,2.34,106.96,2.37,107.01,2.4z M106.95,6.42c0,0,0.01,0.01,0.01,0  c0.01,0,0.01-0.01,0.02-0.02c0.01-0.02,0.01-0.05,0.02-0.07c0,0,0-0.01,0-0.01c-0.03-0.02-0.05-0.04-0.08-0.05  c-0.01-0.01-0.02-0.01-0.02-0.01c-0.01,0-0.01,0.01-0.01,0.03c0,0.03,0,0.05,0,0.08C106.92,6.39,106.93,6.41,106.95,6.42z"></path>	<g>		<path class="st1" d="M34.07,60.17c-1.77,1.44-3.89,2.56-6.38,3.36c-2.48,0.81-5.22,1.22-8.19,1.22c-2.82,0-5.43-0.41-7.84-1.22   c-2.41-0.81-4.5-1.94-6.27-3.41c-3.2-2.66-4.81-6.05-4.81-10.14c0-2,0.41-3.85,1.23-5.56c0.82-1.7,2.03-3.21,3.62-4.52   c1.77-1.46,3.86-2.61,6.29-3.42c2.42-0.82,5.02-1.23,7.79-1.23c3.66,0,6.86,0.56,9.57,1.67c2.71,1.12,4.93,2.76,6.65,4.95   l-7.03,2.46c-1.15-1.21-2.5-2.12-4.06-2.74c-1.56-0.62-3.28-0.92-5.17-0.92c-1.82,0-3.48,0.24-4.98,0.71   c-1.5,0.48-2.79,1.14-3.86,1.96c-1.07,0.84-1.9,1.82-2.5,2.95c-0.58,1.13-0.88,2.35-0.88,3.69c0,2.92,1.36,5.29,4.07,7.08   c1.05,0.69,2.27,1.24,3.67,1.66c1.4,0.41,2.9,0.62,4.52,0.62c1.41,0,2.76-0.14,4.01-0.42c1.27-0.29,2.42-0.68,3.46-1.22   c1.04-0.52,1.95-1.15,2.73-1.87c0.78-0.72,1.4-1.5,1.87-2.35H18.07v-5.39h20.99v1.61C39.06,53.97,37.4,57.46,34.07,60.17"></path>		<polygon class="st1" points="68.7,63.94 49.83,44.06 49.71,44.06 49.71,63.94 42.94,63.94 42.94,36.1 50.82,36.1 69.71,56.02    69.87,56.02 69.87,36.1 76.63,36.1 76.63,63.94   "></polygon>		<path class="st1" d="M113.15,49.5c1.38,0.76,2.45,1.67,3.2,2.71c0.75,1.04,1.12,2.29,1.12,3.75c0,1.15-0.24,2.22-0.73,3.18   c-0.49,0.97-1.19,1.82-2.1,2.53c-0.91,0.72-2.01,1.27-3.31,1.67c-1.3,0.4-2.76,0.6-4.4,0.6H82.66V36.1h23.49   c1.59,0,3.08,0.29,4.48,0.88c1.4,0.59,2.56,1.4,3.48,2.43c1.25,1.39,1.88,2.97,1.88,4.74c0,1.16-0.23,2.16-0.69,3.02   C114.84,48.03,114.13,48.8,113.15,49.5 M108.33,46.18c0.55-0.54,0.83-1.22,0.83-2.04c0-0.81-0.28-1.46-0.84-1.97   c-0.57-0.5-1.3-0.76-2.19-0.76h-16.7v5.58h16.95C107.13,46.98,107.78,46.71,108.33,46.18 M109.52,57.83   c0.71-0.52,1.06-1.27,1.06-2.22c0-0.97-0.36-1.77-1.07-2.4c-0.72-0.62-1.72-0.93-3-0.93H89.43v6.34h16.95   C107.77,58.63,108.82,58.37,109.52,57.83"></path>	</g></g></svg>