<svg xmlns="http://www.w3.org/2000/svg" xmlns:xlink="http://www.w3.org/1999/xlink" id="Layer_1" x="0px" y="0px" viewBox="0 0 190 100" style="enable-background:new 0 0 190 100;" xml:space="preserve"><style type="text/css">	.st0{fill:url(#SVGID_1_);}	.st1{fill:#12284C;}</style><linearGradient id="SVGID_1_" gradientUnits="userSpaceOnUse" x1="102.0124" y1="119.3922" x2="161.8383" y2="33.952">	<stop offset="0.5323" style="stop-color:#2B388F"></stop>	<stop offset="1" style="stop-color:#00A8EA"></stop></linearGradient><path class="st0" d="M171,21.3c0.4-0.3,1.4,0.7,2,1.5c0.9,1.2,1.1,2.1,0.5,2C172.8,24.7,170.5,22,171,21.3z M171.9,30.7 c0.9,0.3,1.1-1,0.3-2.4c-0.5-0.9-1.6-2.1-2.3-1.8c0,0,0,0,0,0C168.9,27.1,170.4,30.2,171.9,30.7z M176.5,27.2c0.5,0,0.1-1.1-0.7-2.3 c-0.6-0.8-1.5-1.8-1.8-1.5C173.7,24.2,175.9,27.1,176.5,27.2z M173.7,21.1c-0.6-0.7-1.5-1.5-1.6-1.3c-0.1,0.6,2.1,3.1,2.6,3.2 C175,23.1,174.5,22.1,173.7,21.1z M165.1,27.1c-0.4-0.8-1.4-1.9-2.3-1.7c0,0,0,0,0,0c0,0,0,0,0,0c0,0,0,0,0,0c0,0,0,0,0,0 c0,0,0,0,0,0c0,0,0,0,0,0c0,0,0,0,0,0c0,0,0,0,0,0c-0.1,0.1-0.3,0.1-0.4,0.3c-0.7,1,0.9,3.8,2.4,3.5c0,0,0,0,0,0c0,0,0,0,0,0 c0,0,0,0,0,0c0,0,0,0,0,0c0,0,0,0,0,0c0,0,0,0,0,0c0,0,0,0,0,0c0,0,0,0,0,0C165.7,28.8,165.4,27.7,165.1,27.1z M167.8,23.9 c0.7,0.1,0.6-0.9-0.2-1.9h0c-0.6-0.7-1.6-1.7-2.2-1.5c0,0,0,0,0,0c0,0,0,0,0,0c0,0,0,0,0,0c0,0,0,0,0,0c0,0,0,0,0,0c0,0,0,0,0,0 c0,0,0,0,0,0c0,0,0,0,0,0c0,0,0,0-0.1,0C164.7,21.1,166.7,23.8,167.8,23.9z M170.2,22.5c0.6,0.1,0.3-0.9-0.6-1.9 c-0.6-0.7-1.7-1.6-2.1-1.3C167.1,19.8,169.4,22.4,170.2,22.5z M171.8,26.4C171.8,26.4,171.8,26.4,171.8,26.4 C171.8,26.4,171.8,26.4,171.8,26.4C171.8,26.4,171.8,26.4,171.8,26.4C171.8,26.4,171.8,26.4,171.8,26.4 C171.8,26.4,171.8,26.4,171.8,26.4C171.8,26.4,171.8,26.4,171.8,26.4C171.8,26.4,171.8,26.4,171.8,26.4 C171.8,26.4,171.8,26.4,171.8,26.4c0.5-0.4-0.1-1.6-0.5-2.1c-0.6-0.8-1.6-1.8-2.2-1.6c0,0-0.1,0.1-0.1,0.1 C168.5,23.6,170.6,26.9,171.8,26.4z M174.7,21.9c0,0.6,2,3.4,2.4,3.4c0.2,0-0.3-1-1.1-2.1C175.4,22.3,174.7,21.6,174.7,21.9z  M168.2,27.9c1,0.3,1.2-0.9,0.4-2.2c-0.5-0.8-1.5-1.9-2.3-1.7c0,0-0.1,0-0.1,0C165.3,24.7,166.9,27.5,168.2,27.9z M165.1,12.9 c-0.7-0.5-1.4-0.9-1.5-0.7c0.1,0.4,2.5,2,2.7,1.9C166.5,14,165.9,13.4,165.1,12.9z M162,14.3C162,14.3,162,14.3,162,14.3 C162,14.3,162,14.3,162,14.3C162,14.3,162,14.3,162,14.3C162,14.3,162,14.3,162,14.3C162,14.3,162,14.3,162,14.3 C162,14.3,162,14.3,162,14.3C162,14.3,162,14.3,162,14.3C162,14.3,162,14.3,162,14.3c-0.4,0.5,2.1,2.4,2.8,2.4c0.4,0,0-0.7-0.8-1.4 C163.4,14.8,162.3,14.2,162,14.3z M163.1,13.2C163.1,13.2,163.1,13.3,163.1,13.2c0,0.3,2.5,2.5,2.9,2.1c0,0,0,0,0,0c0,0,0,0,0,0 c0,0,0,0,0,0c0,0,0,0,0,0c0,0,0,0,0,0c0,0,0,0,0,0c0,0,0,0,0,0c0,0,0,0,0,0c0.1-0.2-0.5-0.8-1.1-1.3 C164.3,13.6,163.3,13.1,163.1,13.2z M159.5,11.7C159.5,11.7,159.5,11.7,159.5,11.7C159.5,11.7,159.5,11.7,159.5,11.7 C159.5,11.7,159.5,11.7,159.5,11.7C159.5,11.7,159.5,11.7,159.5,11.7C159.5,11.7,159.5,11.7,159.5,11.7 C159.5,11.7,159.5,11.7,159.5,11.7C159.5,11.7,159.5,11.7,159.5,11.7C159.5,11.7,159.5,11.7,159.5,11.7 C159.5,11.7,159.5,11.7,159.5,11.7c-0.1,0.3,2.4,2.1,2.8,1.8c0,0,0,0,0,0c0,0,0,0,0,0c0,0,0,0,0,0c0,0,0,0,0,0s0,0,0,0c0,0,0,0,0,0 c0,0,0,0,0,0c0,0,0,0,0,0c0.1-0.2-0.6-0.8-1-1.1C160.6,12,159.7,11.6,159.5,11.7z M169,17.9c-0.1,0.4,1,1.6,1,1.6 c1,1.1,1.6,1.4,1.8,1.3c0.3,0-0.1-0.9-0.9-1.8C170.2,18.5,169.2,17.7,169,17.9z M174.7,21.2C174.7,21.2,174.7,21.2,174.7,21.2 C174.7,21.2,174.7,21.2,174.7,21.2C174.7,21.2,174.7,21.2,174.7,21.2C174.7,21.2,174.7,21.2,174.7,21.2 C174.7,21.2,174.7,21.2,174.7,21.2C174.7,21.2,174.7,21.2,174.7,21.2c-0.1-0.4-0.8-1.2-1.3-1.7c-0.5-0.6-1.1-1.2-1.2-1.1 c0,0,0,0,0,0.1c0,0,0,0,0,0c0,0,0,0,0,0c0,0,0,0,0,0c0,0,0,0,0,0c0,0,0,0,0,0c0,0,0,0,0,0c0,0,0,0,0,0c0,0,0,0,0,0 C172.4,18.9,174.5,21.3,174.7,21.2C174.7,21.2,174.7,21.2,174.7,21.2C174.7,21.2,174.7,21.2,174.7,21.2 C174.7,21.2,174.7,21.2,174.7,21.2z M169.5,16.6C169.5,16.6,169.5,16.6,169.5,16.6C169.5,16.6,169.5,16.6,169.5,16.6 C169.5,16.6,169.5,16.6,169.5,16.6C169.5,16.6,169.5,16.6,169.5,16.6C169.5,16.6,169.5,16.6,169.5,16.6 C169.5,16.6,169.5,16.6,169.5,16.6C169.5,16.6,169.5,16.6,169.5,16.6C169.5,16.6,169.5,16.6,169.5,16.6c0,0.1,0,0.1,0.1,0.2 c0.5,0.7,2.5,2.8,2.6,2.4c0,0,0,0,0,0c0,0,0,0,0,0c0,0,0,0,0,0c0,0,0,0,0,0c0,0,0,0,0,0c0,0,0,0,0,0c0,0,0,0,0,0c0,0,0,0,0,0 c-0.1-0.3-0.8-1.1-1.2-1.6C170.4,16.9,169.6,16.3,169.5,16.6z M168.2,15.8c-0.6-0.5-1.6-1.2-1.7-1c-0.1,0.4,2.4,2.5,2.8,2.4 C169.6,17.2,169,16.5,168.2,15.8z M165.6,16.1C165.6,16.1,165.6,16.1,165.6,16.1c-0.1,0.3,0.6,1.1,1.3,1.8c0.2,0.2,1.3,1.1,1.6,0.9 c0,0,0,0,0,0s0,0,0,0c0,0,0,0,0,0c0,0,0,0,0,0c0,0,0,0,0,0c0,0,0,0,0,0c0,0,0,0,0,0c0,0,0,0,0,0c0.2-0.3-0.5-1.1-1-1.5 C167,16.6,165.9,15.9,165.6,16.1z M159.4,74.6c0.4-1.2-0.4-2-1.6-1.9c-1.9,0.3-2.7,2.1-2.3,3C156.1,77.2,158.8,76.5,159.4,74.6z  M145.1,73.3c0.9,1.3,3.2,0.6,3.5-1c0.1-0.7-0.4-1.8-1.8-1.8C145,70.7,144.4,72.4,145.1,73.3z M145.6,63.7c-1.2,1.2-0.6,3.3,1.4,3.3 c0,0,0,0,0,0c0,0,0,0,0,0c0,0,0,0,0,0c0,0,0,0,0,0c0,0,0,0,0,0c0,0,0,0,0,0c0,0,0,0,0,0c0,0,0,0,0,0c1.5-0.1,2-1.3,2-1.9 c0.1-1-0.5-2.1-2-2.1C146.5,63,145.9,63.2,145.6,63.7z M146.1,80.1C146.1,80.1,146.1,80.1,146.1,80.1 C146.1,80.1,146.1,80.1,146.1,80.1C146.1,80.1,146.1,80.1,146.1,80.1C146.1,80.1,146.1,80.1,146.1,80.1 C146.1,80.1,146.1,80.1,146.1,80.1C146.1,80.1,146.1,80.1,146.1,80.1C146.1,80.1,146.1,80.1,146.1,80.1 C146.1,80.1,146.1,80.1,146.1,80.1c1.2-0.1,1.7-0.9,1.8-1.3c0.1-0.6-0.1-1.5-1.5-1.5c0,0,0,0,0,0c0,0,0,0,0,0c0,0,0,0,0,0 c0,0,0,0,0,0c0,0,0,0,0,0c0,0,0,0,0,0c0,0,0,0,0,0c0,0,0,0,0,0c-0.2,0-0.8,0.1-1.3,0.6C144.2,78.7,144.4,80.1,146.1,80.1z  M153.1,60.8c0.1-1.1-0.6-2.3-2.1-2.3c0,0,0,0,0,0c0,0,0,0,0,0c0,0,0,0,0,0c0,0,0,0,0,0c0,0,0,0,0,0c0,0,0,0,0,0c0,0,0,0,0,0 c0,0,0,0,0,0c-0.1,0-0.1,0-0.2,0c-0.5,0.9-1.1,1.7-1.9,2.4c0,0.5,0.2,0.9,0.5,1.3C150.5,63.7,152.9,62.8,153.1,60.8z M127.9,44.3 c0,0.2,0.5,0.5,1.3,0.7c0.1-0.6-0.3-1.2-0.8-1.2c-0.1,0-0.1,0-0.1,0C128.1,44,127.9,44.2,127.9,44.3z M149.1,82.7 C149.1,82.7,149.1,82.7,149.1,82.7C149.1,82.7,149.1,82.7,149.1,82.7C149.1,82.7,149.1,82.7,149.1,82.7 C149.1,82.7,149.1,82.7,149.1,82.7C149.1,82.7,149.1,82.7,149.1,82.7C149.1,82.7,149.1,82.7,149.1,82.7 C149.1,82.7,149.1,82.7,149.1,82.7C149.1,82.7,149.1,82.7,149.1,82.7c1.2-0.1,1.7-0.9,1.9-1.3c0.2-0.7-0.2-1.4-1.4-1.4c0,0,0,0,0,0 c0,0,0,0,0,0c0,0,0,0,0,0c0,0,0,0,0,0c0,0,0,0,0,0c0,0,0,0,0,0c0,0,0,0,0,0c0,0,0,0,0,0c-0.6,0.1-1.1,0.3-1.5,0.7 C147.3,81.6,147.7,82.8,149.1,82.7z M141.4,46.1c0.9,0.1,1.7,0.3,2.5,0.5c0.3-0.3,0.6-0.7,0.6-1.2c0-0.1,0-0.3,0-0.4 c-0.9-0.4-1.8-0.8-2.7-1.1C141.1,44.4,141,45.3,141.4,46.1z M136.8,53.5c-0.5,0-1.1-0.1-1.6-0.1c-0.4,0-0.8,0-1.3-0.1 c0,0.3,0.2,0.6,0.4,0.8C135.1,55.2,136.5,54.7,136.8,53.5z M142.8,55c0-0.1,0-0.1,0-0.2c0-0.3-0.1-0.4-0.2-0.4 c-0.2-0.1-0.6-0.3-1.3-0.5c0,0,0,0,0,0C141.6,54.5,142.1,54.9,142.8,55z M164.7,31.1c-0.4-1.2-1.6-2.1-2.4-1.9c0,0-0.1,0-0.1,0 c-1.2,0.5-0.7,3.3,1.1,4C164.4,33.8,165.2,32.6,164.7,31.1z M164.3,63.3c0.2-1.1-0.4-2.6-2.1-2.4c-0.6,0.1-1.2,0.5-1.6,1 c-1.3,1.5-0.9,4.2,1.4,3.9c0,0,0,0,0,0c0,0,0,0,0,0c0,0,0,0,0,0c0,0,0,0,0,0c0,0,0,0,0,0c0,0,0,0,0,0c0,0,0,0,0,0c0,0,0,0,0,0 C163.6,65.5,164.2,64.1,164.3,63.3z M163.5,47.3c-0.1-1.1-0.9-2.5-2.5-2.3c0,0,0,0,0,0c0,0,0,0,0,0c0,0,0,0,0,0c0,0,0,0,0,0 c0,0,0,0,0,0c0,0,0,0,0,0s0,0,0,0c0,0,0,0,0,0c-2.1,0.5-2.4,3.2-0.9,4.5C161.5,50.8,163.6,49.5,163.5,47.3z M163.5,70.6 c0.2-1-0.1-2.2-1.7-2.1c-0.7,0.1-1.3,0.5-1.8,1.1c-1.2,1.5-0.8,3.5,1.1,3.2c0,0,0,0,0,0c0,0,0,0,0,0c0,0,0,0,0,0c0,0,0,0,0,0 c0,0,0,0,0,0c0,0,0,0,0,0c0,0,0,0,0,0c0,0,0,0,0,0C162.6,72.6,163.3,71.3,163.5,70.6z M164.4,45.4C164.4,45.4,164.4,45.4,164.4,45.4 C164.4,45.4,164.4,45.4,164.4,45.4C164.4,45.4,164.4,45.4,164.4,45.4C164.4,45.4,164.4,45.4,164.4,45.4 C164.4,45.4,164.4,45.4,164.4,45.4C164.4,45.4,164.4,45.4,164.4,45.4C164.4,45.4,164.4,45.4,164.4,45.4 C164.4,45.4,164.4,45.4,164.4,45.4c1.4-0.4,1.6-1.8,1.5-2.6c-0.2-1.1-1.1-2.5-2.5-2.3c0,0,0,0,0,0c0,0,0,0,0,0c0,0,0,0,0,0 c0,0,0,0,0,0c0,0,0,0,0,0c0,0,0,0,0,0c0,0,0,0,0,0c0,0,0,0,0,0c-0.2,0.1-0.6,0.2-1,0.6C161.1,42.7,162.2,45.7,164.4,45.4z  M161.9,77.2c0.4-1.1-0.2-1.9-1.3-1.7c-1.6,0.3-2.7,2-2.4,2.9C158.7,79.8,161.2,79,161.9,77.2z M152.1,75.4c0.2-0.7-0.2-1.8-1.7-1.7 c0,0,0,0,0,0c0,0,0,0,0,0c0,0,0,0,0,0c0,0,0,0,0,0c0,0,0,0,0,0c0,0,0,0,0,0c0,0,0,0,0,0c0,0,0,0,0,0c-1.7,0.2-2.5,1.8-1.9,2.8 C149.4,77.7,151.7,77,152.1,75.4z M155.1,78.2c0.2-0.7-0.1-1.7-1.5-1.6c0,0,0,0,0,0c0,0,0,0,0,0c0,0,0,0,0,0c0,0,0,0,0,0 c0,0,0,0,0,0c0,0,0,0,0,0c0,0,0,0,0,0c0,0,0,0,0,0c-1.7,0.3-2.5,1.7-2.1,2.6C152.2,80.4,154.6,79.7,155.1,78.2z M157.7,80.7 c0.4-0.9-0.1-1.6-1.2-1.5c-1.7,0.3-2.5,1.7-2.2,2.4C154.7,82.8,157,82.1,157.7,80.7z M156.5,13.5C156.5,13.5,156.5,13.5,156.5,13.5 C156.5,13.5,156.5,13.5,156.5,13.5C156.5,13.5,156.5,13.5,156.5,13.5C156.5,13.5,156.5,13.5,156.5,13.5 C156.5,13.5,156.5,13.5,156.5,13.5C156.5,13.5,156.5,13.5,156.5,13.5C156.5,13.5,156.5,13.5,156.5,13.5 C156.5,13.5,156.5,13.5,156.5,13.5C156.5,13.5,156.4,13.6,156.5,13.5c-0.3,0.5,1.7,2.4,2.5,2.2c0,0,0,0,0,0c0,0,0,0,0,0c0,0,0,0,0,0 c0,0,0,0,0,0c0,0,0,0,0,0c0,0,0,0,0,0c0,0,0,0,0,0c0,0,0,0,0,0c0.3-0.2-0.2-0.8-0.6-1.2C157.8,14.1,156.9,13.4,156.5,13.5z  M164.3,55.3c0-1-0.6-2.6-2.4-2.4c0,0,0,0,0,0c0,0,0,0,0,0c0,0,0,0,0,0c0,0,0,0,0,0c0,0,0,0,0,0c0,0,0,0,0,0c0,0,0,0,0,0 c0,0,0,0,0,0c-0.3,0.1-1,0.2-1.6,1c-1.3,1.7-0.4,4.4,1.8,4.1c0,0,0,0,0,0c0,0,0,0,0,0c0,0,0,0,0,0c0,0,0,0,0,0c0,0,0,0,0,0 c0,0,0,0,0,0c0,0,0,0,0,0c0,0,0,0,0,0C163.9,57.6,164.3,56.1,164.3,55.3z M155.6,91C155.6,91,155.6,91,155.6,91 C155.6,91,155.6,91,155.6,91C155.6,91,155.6,91,155.6,91C155.6,91,155.6,91,155.6,91C155.6,91,155.6,91,155.6,91 C155.6,91,155.6,91,155.6,91C155.6,91,155.6,91,155.6,91C155.6,91,155.6,91,155.6,91c0.6-0.2,1.3-0.6,1.6-0.8 c0.3-0.2,0.5-0.4,0.5-0.4c0.1-0.2,0-0.2-0.3-0.2c-0.8,0.2-1.9,0.9-2.1,1.3C155.2,91.1,155.5,91,155.6,91z M159.6,82.8 c0.3-0.6,0.4-1.4-0.9-1.3c0,0,0,0,0,0c0,0,0,0,0,0c0,0,0,0,0,0c0,0,0,0,0,0c0,0,0,0,0,0c0,0,0,0,0,0c0,0,0,0,0,0c0,0,0,0,0,0 c-1.5,0.3-2.5,1.6-2.3,2.3C156.7,84.9,158.9,84.2,159.6,82.8z M163.7,79.5c0.5-1,0.1-1.7-0.9-1.5c-1.5,0.4-2.7,2-2.4,2.9 C160.8,82,162.9,81.1,163.7,79.5z M157.3,89c0.1-0.1,0.2-0.2,0.2-0.3c0.1-0.1,0.5-0.6-0.3-0.5c0,0,0,0,0,0c0,0,0,0,0,0s0,0,0,0 c0,0,0,0,0,0c0,0,0,0,0,0c0,0,0,0,0,0c0,0,0,0,0,0s0,0,0,0c-1,0.2-2.1,1.2-2.1,1.5C155.1,90.2,156.5,89.7,157.3,89z M158.8,86.1 C158.8,86.1,158.8,86.1,158.8,86.1C158.8,86.1,158.8,86.1,158.8,86.1C158.8,86.1,158.8,86.1,158.8,86.1 C158.8,86.1,158.8,86.1,158.8,86.1C158.8,86.1,158.8,86.1,158.8,86.1C158.8,86.1,158.8,86.1,158.8,86.1 C158.8,86.1,158.8,86.1,158.8,86.1C158.8,86.1,158.8,86.1,158.8,86.1c1-0.2,1.8-1,2-1.4c0.5-0.7,0.4-1.3-0.5-1.1 c-0.7,0.1-1.5,0.7-2,1.3C157.8,85.6,157.9,86.3,158.8,86.1z M162.7,83.3C162.7,83.3,162.7,83.3,162.7,83.3 C162.7,83.3,162.7,83.3,162.7,83.3C162.7,83.3,162.7,83.3,162.7,83.3C162.7,83.3,162.7,83.3,162.7,83.3 C162.7,83.3,162.7,83.3,162.7,83.3C162.7,83.3,162.7,83.3,162.7,83.3C162.7,83.3,162.7,83.3,162.7,83.3 C162.7,83.3,162.7,83.3,162.7,83.3c1-0.3,1.8-1.2,2.2-1.6c0.5-0.7,0.6-1.6-0.5-1.4c0,0,0,0,0,0c0,0,0,0,0,0c0,0,0,0,0,0c0,0,0,0,0,0 c0,0,0,0,0,0c0,0,0,0,0,0c0,0,0,0,0,0s0,0,0,0c-1.2,0.4-2,1.5-2.1,1.6C161.8,82.6,161.6,83.5,162.7,83.3z M156.7,87.5 c0,0,0.1-0.1,0.1-0.1c0.3-0.4,0.4-0.9-0.5-0.8c0,0,0,0,0,0c0,0,0,0,0,0c0,0,0,0,0,0c0,0,0,0,0,0c0,0,0,0,0,0c0,0,0,0,0,0 c0,0,0,0,0,0c0,0,0,0,0,0c-1.1,0.2-2.1,1.1-2.1,1.7C154.2,88.9,155.9,88.4,156.7,87.5z M149.4,86.4c0.2-0.4,0-1-1-1 c-1.2,0.1-1.7,1-1.6,1.5C147.1,87.7,149,87.4,149.4,86.4z M147.6,90.4c0.2-0.3,0.1-0.7-0.6-0.6c0,0,0,0,0,0c0,0,0,0,0,0c0,0,0,0,0,0 c0,0,0,0,0,0c0,0,0,0,0,0c0,0,0,0,0,0c0,0,0,0,0,0c0,0,0,0,0,0c-0.9,0.1-1.3,0.6-1.3,0.9C145.8,91.2,147.2,91,147.6,90.4z  M153.5,83.7c0.2-0.5,0-1.3-1.1-1.2c-1.2,0.1-2.3,1.2-1.9,2C150.9,85.5,153,84.9,153.5,83.7z M167.8,58.7c0.1-1.1-0.4-2.8-2.2-2.5 c-2,0.4-2.8,3.3-1.7,4.7C165.1,62.4,167.6,61,167.8,58.7z M169.6,46c-0.2-1.4-1.2-2.6-2.5-2.4c-1.9,0.6-2,3.6-0.6,4.8 C167.7,49.4,169.9,48.8,169.6,46z M168.9,29.8c-0.4-0.9-1.5-2.1-2.4-1.9c0,0,0,0,0,0c0,0,0,0,0,0c0,0,0,0,0,0c0,0,0,0,0,0 c0,0,0,0,0,0c0,0,0,0,0,0c0,0,0,0,0,0c0,0,0,0,0,0c-1.2,0.5-0.2,3.5,1.4,4.1C169.1,32.5,169.6,31.3,168.9,29.8z M167.5,38.4 c-0.3-1.4-1.5-2.4-2.5-2.2c-0.2,0.1-0.5,0.1-0.7,0.5c-1.1,1.4,0.1,4.6,2.1,4.3c0,0,0,0,0,0c0,0,0,0,0,0c0,0,0,0,0,0c0,0,0,0,0,0 c0,0,0,0,0,0c0,0,0,0,0,0c0,0,0,0,0,0c0,0,0,0,0,0C167.7,40.5,167.7,39.1,167.5,38.4z M168.6,34c-0.3-1-1.3-2.3-2.5-2.1c0,0,0,0,0,0 c-1.4,0.5-0.8,3.5,0.8,4.4C168.2,37,169.2,35.7,168.6,34z M164.5,71.4C164.5,71.4,164.5,71.4,164.5,71.4 C164.5,71.4,164.5,71.4,164.5,71.4C164.5,71.4,164.5,71.4,164.5,71.4C164.5,71.4,164.5,71.4,164.5,71.4 C164.5,71.4,164.5,71.4,164.5,71.4C164.5,71.4,164.5,71.4,164.5,71.4C164.5,71.4,164.5,71.4,164.5,71.4 C164.5,71.4,164.5,71.4,164.5,71.4c-0.7,0.2-1.3,0.6-1.8,1.3c-1.1,1.4-0.8,3.1,0.9,2.9c0,0,0,0,0,0s0,0,0,0c0,0,0,0,0,0c0,0,0,0,0,0 s0,0,0,0s0,0,0,0c0,0,0,0,0,0c0,0,0,0,0,0c1.4-0.3,2.1-1.5,2.4-2.2C166.3,72.3,165.9,71.3,164.5,71.4z M166.7,74.1 c-1.1,0.3-1.8,1.2-2,1.6c-0.7,1.1-0.8,2.6,0.7,2.3c0,0,0,0,0,0c0,0,0,0,0,0c0,0,0,0,0,0c0,0,0,0,0,0c0,0,0,0,0,0c0,0,0,0,0,0 c0,0,0,0,0,0c0,0,0,0,0,0c1.2-0.4,2-1.5,2.3-2.1h0C168.1,74.9,167.9,73.9,166.7,74.1z M168.8,78.2c0.4-0.8,0.7-1.9-0.5-1.6 c-1.4,0.5-2.8,2.4-2.5,3.3C166,80.8,167.9,79.8,168.8,78.2z M167.3,66.4c0.2-1.1-0.2-2.5-1.8-2.3c-0.7,0.1-1.3,0.6-1.8,1.3 c-1.2,1.7-0.7,3.9,1.2,3.6c0,0,0,0,0,0c0,0,0,0,0,0c0,0,0,0,0,0c0,0,0,0,0,0c0,0,0,0,0,0c0,0,0,0,0,0c0,0,0,0,0,0c0,0,0,0,0,0 C166.5,68.6,167.1,67.2,167.3,66.4z M156.2,11.8c-0.5-0.4-1.4-0.8-1.7-0.8c0,0,0,0,0,0c0,0,0,0,0,0c0,0,0,0,0,0c0,0,0,0,0,0 c0,0,0,0,0,0c0,0,0,0,0,0c0,0,0,0,0,0c0,0,0,0,0,0c0,0,0,0,0,0c-0.2,0.2,1.9,1.9,2.5,1.7c0,0,0,0,0,0c0,0,0,0,0,0c0,0,0,0,0,0 c0,0,0,0,0,0c0,0,0,0,0,0c0,0,0,0,0,0c0,0,0,0,0,0c0,0,0,0,0,0C157.2,12.6,156.6,12.1,156.2,11.8z M146.9,84.3 c0.2-0.5-0.2-1.1-1.2-1.1c0,0,0,0,0,0c0,0,0,0,0,0c0,0,0,0,0,0c0,0,0,0,0,0c0,0,0,0,0,0c0,0,0,0,0,0c0,0,0,0,0,0c0,0,0,0,0,0 c-1.2,0.1-1.8,1-1.5,1.6C144.8,85.8,146.6,85.2,146.9,84.3z M148.4,8.7c-0.4-0.2-1-0.5-1.2-0.5c0,0,0,0,0,0c-0.1,0.2,1.6,1.1,1.8,1 C149.1,9.2,148.9,9,148.4,8.7z M149.5,39c0.8-0.1,1.5-0.8,1.4-1.8c0-0.8-0.7-1.9-1.9-1.9c-1.4,0.2-1.7,1.8-1.1,2.8 c0.5,0.2,1,0.5,1.4,0.8C149.4,38.9,149.4,38.9,149.5,39z M145.2,11.2C145.2,11.2,145.1,11.2,145.2,11.2c-0.3,0.2,0.3,1.1,0.8,1.2 c0.3,0,0.3-0.2,0-0.6C145.8,11.5,145.4,11.2,145.2,11.2z M144.5,9.1C144.5,9.1,144.5,9.1,144.5,9.1c-0.1,0.1,0.6,0.9,0.9,0.9 c0.1,0,0.1-0.2-0.2-0.4C145,9.3,144.6,9,144.5,9.1z M144.8,17.9c0.5,0.3,0.8-0.1,0.7-0.7c-0.1-0.4-0.4-0.9-0.9-0.9c0,0,0,0-0.1,0 C144,16.4,144.2,17.6,144.8,17.9z M144.4,89.4C144.4,89.4,144.4,89.4,144.4,89.4C144.4,89.4,144.4,89.4,144.4,89.4 C144.4,89.4,144.4,89.4,144.4,89.4C144.4,89.4,144.4,89.4,144.4,89.4C144.4,89.4,144.4,89.4,144.4,89.4 C144.4,89.4,144.4,89.4,144.4,89.4C144.4,89.4,144.4,89.4,144.4,89.4C144.4,89.4,144.4,89.4,144.4,89.4c0.7-0.1,1.1-0.5,1.2-0.7 c0.2-0.4-0.2-0.8-0.8-0.8c-0.6,0-0.9,0.3-1,0.4C143.4,88.8,143.5,89.4,144.4,89.4z M152.3,10.2c-0.5-0.3-1.3-0.7-1.5-0.6 c0,0,0,0,0,0c-0.2,0.2,1.8,1.4,2.2,1.4C153.2,10.9,152.9,10.6,152.3,10.2z M149.2,10.2C149.2,10.2,149.2,10.2,149.2,10.2 c-0.3,0.2,1.3,1.4,1.8,1.4c0.3,0,0.1-0.4-0.4-0.7C150.2,10.5,149.5,10.1,149.2,10.2z M148.1,13.1C148.1,13.1,148.1,13.1,148.1,13.1 C148.1,13.1,148.1,13.1,148.1,13.1C148.1,13.1,148.1,13.1,148.1,13.1C148.1,13.1,148.1,13.1,148.1,13.1 C148.1,13.1,148.1,13.1,148.1,13.1C148.1,13.1,148.1,13.1,148.1,13.1C148.1,13.1,148.1,13.1,148.1,13.1 C148.1,13.1,148.1,13.1,148.1,13.1C148.1,13.1,148.1,13.1,148.1,13.1c-0.4,0.3,0.4,1.6,1.1,1.7c0.4,0,0.5-0.3,0.1-0.8 C149.1,13.5,148.5,13,148.1,13.1z M152.8,11.8C152.7,11.8,152.7,11.8,152.8,11.8c-0.3,0.4,1.6,1.9,2.1,1.8c0.3,0,0.1-0.5-0.5-1 C154,12.2,153.1,11.7,152.8,11.8z M139.2,55.4C139.2,55.4,139.2,55.4,139.2,55.4C139.2,55.4,139.2,55.4,139.2,55.4 C139.2,55.4,139.2,55.4,139.2,55.4C139.2,55.4,139.2,55.4,139.2,55.4C139.2,55.4,139.2,55.4,139.2,55.4 C139.2,55.4,139.2,55.4,139.2,55.4C139.2,55.4,139.2,55.4,139.2,55.4C139.2,55.4,139.2,55.4,139.2,55.4c-1.2,0.1-1.7,0.9-1.7,1.8 c1.3-0.1,2.5-0.3,3.3-0.6C140.6,56.1,140.1,55.5,139.2,55.4z M121,52.2c0.1-0.2-0.1-0.5-0.4-0.6c-0.3,0-0.6,0.4-0.4,0.8 C120.5,52.7,120.9,52.6,121,52.2z M143.9,81.8c0.1-0.7-0.5-1.2-1.3-1.2c-1.2,0.1-1.8,1-1.4,1.7C141.8,83.3,143.7,82.9,143.9,81.8z  M141,87.1c0.4,0.7,1.9,0.5,2.2-0.3c0.1-0.4-0.1-0.9-1-0.9C141.1,86,140.8,86.6,141,87.1z M143.3,19.3 C143.3,19.3,143.3,19.3,143.3,19.3c-0.7,0.1-0.7,1.3-0.1,1.7c0.5,0.4,1.1,0,1-0.7C144.1,19.7,143.7,19.2,143.3,19.3z M141.3,31.1 c0.7,0.7,1.9,0.3,1.9-0.9c0-0.5-0.4-1.4-1.2-1.4C141,28.9,140.6,30.3,141.3,31.1z M144,27.6c0.8,0.6,1.7,0.1,1.6-1 c-0.1-0.8-0.7-1.4-1.3-1.4C143.3,25.4,143.2,26.9,144,27.6z M142.4,35.8C142.4,35.8,142.4,35.8,142.4,35.8 C142.4,35.8,142.4,35.8,142.4,35.8C142.4,35.8,142.4,35.8,142.4,35.8C142.4,35.8,142.4,35.8,142.4,35.8 C142.4,35.8,142.4,35.8,142.4,35.8C142.4,35.8,142.4,35.8,142.4,35.8C142.4,35.8,142.4,35.8,142.4,35.8 C142.4,35.8,142.4,35.8,142.4,35.8c-0.3,0-0.6,0.1-0.8,0.3c0.7,0.1,1.3,0.3,2,0.4C143.4,36.2,143,35.9,142.4,35.8z M141,22.6 c-0.6,0.5-0.3,1.8,0.6,1.8c0,0,0,0,0,0c0,0,0,0,0,0c0,0,0,0,0,0c0,0,0,0,0,0c0,0,0,0,0,0c0,0,0,0,0,0c0,0,0,0,0,0c0,0,0,0,0,0 c0.6-0.1,0.7-0.6,0.7-0.9c0-0.4-0.3-1-0.9-1C141.4,22.4,141.2,22.4,141,22.6z M164.8,48.2c-2.1,0.5-2.4,3.5-1,4.8 c1.5,1.4,3.6-0.1,3.5-2.4C167.2,49.1,166.1,47.9,164.8,48.2z M143.1,10c0.1,0,0.1-0.1,0-0.3c-0.1-0.1-0.2-0.3-0.4-0.3c0,0,0,0,0,0 C142.6,9.5,142.9,10,143.1,10z M156.6,9.5C156.6,9.5,156.6,9.5,156.6,9.5C156.6,9.5,156.6,9.5,156.6,9.5 C156.6,9.5,156.6,9.5,156.6,9.5C156.6,9.5,156.6,9.5,156.6,9.5C156.6,9.5,156.6,9.5,156.6,9.5C156.6,9.5,156.6,9.5,156.6,9.5 C156.6,9.5,156.6,9.5,156.6,9.5C156.6,9.5,156.6,9.5,156.6,9.5C156.6,9.5,156.6,9.5,156.6,9.5c0,0.2,2.4,1.6,2.6,1.3c0,0,0,0,0,0 s0,0,0,0c0,0,0,0,0,0c0,0,0,0,0,0c0,0,0,0,0,0c0,0,0,0,0,0c0,0,0,0,0,0c0,0,0,0,0,0c0-0.1-0.5-0.5-1.1-0.8 C157.5,9.7,156.7,9.4,156.6,9.5z M158.4,9.2c-0.6-0.3-1.3-0.5-1.4-0.4c0.1,0.2,2.2,1.2,2.4,1.1C159.6,9.8,159.1,9.5,158.4,9.2z  M158.3,12.7C158.2,12.7,158.2,12.7,158.3,12.7c-0.2,0.3,2,2.3,2.7,2c0,0,0,0,0,0c0,0,0,0,0,0c0,0,0,0,0,0c0,0,0,0,0,0c0,0,0,0,0,0 c0,0,0,0,0,0c0,0,0,0,0,0c0,0,0,0,0,0c0.2-0.2-0.5-0.8-0.9-1.1C159.5,13,158.5,12.5,158.3,12.7z M160.2,10.8 C160.2,10.8,160.2,10.8,160.2,10.8C160.2,10.8,160.2,10.8,160.2,10.8C160.2,10.8,160.2,10.8,160.2,10.8 C160.2,10.8,160.2,10.8,160.2,10.8C160.2,10.8,160.2,10.8,160.2,10.8C160.2,10.8,160.2,10.8,160.2,10.8 C160.2,10.8,160.2,10.8,160.2,10.8C160.2,10.8,160.2,10.8,160.2,10.8C160.2,10.8,160.2,10.8,160.2,10.8c0,0.2,0.8,0.7,1.4,1.1 c0.3,0.2,1.2,0.7,1.3,0.5c0,0,0,0,0,0s0,0,0,0c0,0,0,0,0,0c0,0,0,0,0,0c0,0,0,0,0,0c0,0,0,0,0,0c0,0,0,0,0,0c0,0,0,0,0,0 c0-0.2-0.7-0.7-1.2-1C161.1,11,160.3,10.7,160.2,10.8z M142.2,15c0.3,0.2,0.5-0.1,0.4-0.5c0-0.2-0.2-0.5-0.5-0.5c0,0,0,0,0,0 c0,0,0,0,0,0c0,0,0,0,0,0c0,0,0,0,0,0c0,0,0,0,0,0c0,0,0,0,0,0c0,0,0,0,0,0c0,0,0,0,0,0c0,0,0,0,0,0C141.8,14.1,141.9,14.8,142.2,15 z M149.5,92.3C149.5,92.3,149.5,92.3,149.5,92.3C149.5,92.3,149.5,92.3,149.5,92.3C149.5,92.3,149.5,92.3,149.5,92.3 C149.5,92.3,149.5,92.3,149.5,92.3C149.5,92.3,149.5,92.3,149.5,92.3C149.5,92.3,149.5,92.3,149.5,92.3 C149.5,92.3,149.5,92.3,149.5,92.3C149.5,92.3,149.5,92.3,149.5,92.3c-0.6,0.1-1.2,0.4-1.3,0.6c-0.1,0.1-0.1,0.2,0.3,0.2 c0,0,0,0,0,0s0,0,0,0c0,0,0,0,0,0c0,0,0,0,0,0s0,0,0,0c0,0,0,0,0,0c0,0,0,0,0,0c0,0,0,0,0,0c0.5-0.1,0.9-0.3,1.1-0.4 c0.1-0.1,0.2-0.1,0.2-0.2C149.9,92.4,150,92.3,149.5,92.3z M162.9,11.2c0-0.1-0.7-0.6-1.1-0.8c-0.6-0.3-1.2-0.6-1.3-0.5c0,0,0,0,0,0 C160.5,10.1,162.7,11.3,162.9,11.2z M143.1,12.4C143.1,12.4,143.1,12.4,143.1,12.4C143.1,12.4,143.1,12.4,143.1,12.4 C143.1,12.4,143.1,12.4,143.1,12.4C143.1,12.4,143.1,12.4,143.1,12.4C143.1,12.4,143.1,12.4,143.1,12.4 C143.1,12.4,143.1,12.4,143.1,12.4C143.1,12.4,143.1,12.4,143.1,12.4C143.1,12.4,143.1,12.4,143.1,12.4c0.2,0,0.1-0.4,0.1-0.4 c-0.1-0.2-0.3-0.4-0.4-0.4c0,0-0.1,0-0.1,0C142.5,11.8,142.8,12.4,143.1,12.4z M142.4,8C142.4,8,142.5,8,142.4,8c0,0,0,0-0.1-0.2 c0,0,0,0-0.2-0.1c-0.1,0-0.1,0-0.1,0c0,0,0,0,0,0C142,7.7,142.3,7.9,142.4,8z M151.4,88.2c0.3-0.4,0.1-0.9-0.8-0.8c0,0,0,0,0,0 c0,0,0,0,0,0c0,0,0,0,0,0c0,0,0,0,0,0c0,0,0,0,0,0c0,0,0,0,0,0c0,0,0,0,0,0c0,0,0,0,0,0c-0.7,0.1-1.2,0.5-1.4,0.7 c-0.4,0.5-0.5,1.1,0.5,1.1c0,0,0,0,0,0c0,0,0,0,0,0c0,0,0,0,0,0c0,0,0,0,0,0c0,0,0,0,0,0c0,0,0,0,0,0s0,0,0,0c0,0,0,0,0,0 C150.7,89,151.2,88.5,151.4,88.2z M128.8,53C128.8,53,128.8,52.9,128.8,53c-0.1-0.1-0.2-0.1-0.4-0.2c-0.6-0.1-1.1-0.2-1.7-0.4 c-0.1,0.4,0,0.8,0.2,1.1C127.6,54.3,128.7,54,128.8,53z M146.1,14.3L146.1,14.3c-0.1-0.3-0.5-0.7-0.8-0.7c-0.1,0-0.1,0-0.1,0 c-0.3,0.2,0,1.2,0.6,1.4C146.1,15.1,146.3,14.8,146.1,14.3z M146.3,24.2c0.8,0.5,1.5-0.1,1.3-1c-0.1-0.7-0.7-1.3-1.3-1.3 c0,0-0.1,0-0.1,0C145.4,22.1,145.3,23.6,146.3,24.2z M166,18.5c-0.7-0.7-1.7-1.4-2.1-1.2c0,0,0,0-0.1,0c-0.4,0.6,1.9,2.9,2.8,2.9 C167.2,20.2,166.9,19.3,166,18.5z M143,67.2C143,67.2,143,67.2,143,67.2C143,67.2,143,67.2,143,67.2C143,67.2,143,67.2,143,67.2 C143,67.2,143,67.2,143,67.2C143,67.2,143,67.2,143,67.2C143,67.2,143,67.2,143,67.2C143,67.2,143,67.2,143,67.2 C143,67.2,143,67.2,143,67.2c-1.7,0.1-2.2,1.8-1.6,2.7c0.9,1.3,3.1,0.8,3.4-0.8C144.9,68.3,144.5,67.2,143,67.2z M144.6,34.8 c0.9,0.9,2.4,0.2,2.3-1.1c0-0.6-0.5-1.7-1.6-1.7C144,32.1,143.7,33.9,144.6,34.8z M176.7,25.6C176.7,25.6,176.7,25.6,176.7,25.6 C176.7,25.6,176.7,25.6,176.7,25.6C176.7,25.6,176.7,25.6,176.7,25.6C176.7,25.6,176.7,25.6,176.7,25.6 C176.7,25.6,176.7,25.6,176.7,25.6C176.7,25.6,176.7,25.6,176.7,25.6C176.7,25.6,176.7,25.6,176.7,25.6 C176.7,25.6,176.7,25.6,176.7,25.6c0,0.1,0,0.2,0.1,0.5c0.4,1.2,2,4,2.3,3.4c0,0,0,0,0,0c0,0,0,0,0,0s0,0,0,0c0,0,0,0,0,0 c0,0,0,0,0,0c0,0,0,0,0,0c0,0,0,0,0,0c0,0,0,0,0,0c0.1-0.5-0.5-1.7-0.9-2.3C177.6,26.2,176.9,25.3,176.7,25.6z M131.5,55.6 C131.5,55.6,131.5,55.6,131.5,55.6C131.5,55.6,131.5,55.6,131.5,55.6C131.5,55.6,131.5,55.6,131.5,55.6 C131.5,55.6,131.5,55.6,131.5,55.6C131.5,55.6,131.5,55.6,131.5,55.6C131.5,55.6,131.5,55.6,131.5,55.6 C131.5,55.6,131.5,55.6,131.5,55.6C131.5,55.6,131.5,55.6,131.5,55.6c-0.7,0-1.1,0.4-1.3,0.9c0.8,0.2,1.7,0.4,2.6,0.5 C132.8,56.5,132.4,55.7,131.5,55.6z M142.9,74.3c-1.4,0-2.2,1.4-1.5,2.3c0.8,1.1,2.8,0.6,3.1-0.7C144.6,75.2,144.1,74.3,142.9,74.3z  M161.2,85.5C161.2,85.5,161.2,85.5,161.2,85.5C161.2,85.5,161.2,85.5,161.2,85.5C161.2,85.5,161.2,85.5,161.2,85.5 C161.2,85.5,161.2,85.5,161.2,85.5C161.2,85.5,161.2,85.5,161.2,85.5C161.2,85.5,161.2,85.5,161.2,85.5 C161.2,85.5,161.2,85.5,161.2,85.5C161.2,85.5,161.2,85.5,161.2,85.5c-1.1,0.3-2.4,1.5-2.4,2c0,0.6,1.6-0.2,2.4-1 c0.1-0.1,0.2-0.3,0.3-0.3C161.7,86,162.1,85.3,161.2,85.5z M172.7,75c-0.7,0.3-1.8,1.5-2.3,2.6c-0.1,0.2-0.7,1.5,0.3,1.1 c0,0,0,0,0,0c0,0,0,0,0,0c0,0,0,0,0,0c0,0,0,0,0,0c0,0,0,0,0,0c0,0,0,0,0,0c0,0,0,0,0,0c0,0,0,0,0,0c0.9-0.4,1.8-1.6,2.1-2.2 c0.1-0.1,0.2-0.3,0.2-0.4C173.3,75.7,173.6,74.7,172.7,75z M170.2,70c-2,0.8-3,3.9-1.8,4.4c0.9,0.3,2.3-0.9,2.9-2.4 C171.9,70.7,171.5,69.5,170.2,70z M153.3,90.5c-0.9,0.2-1.7,0.8-1.7,1.1c0,0.4,1.2,0,1.9-0.5c0.1-0.1,0.2-0.2,0.2-0.2 C153.7,90.7,153.9,90.4,153.3,90.5z M171.4,70.2C171.4,70.2,171.4,70.2,171.4,70.2C171.4,70.2,171.4,70.2,171.4,70.2L171.4,70.2 C171.4,70.2,171.4,70.2,171.4,70.2C171.4,70.2,171.4,70.2,171.4,70.2z M182,34.7c0,0.6,1,4.6,1.4,4.7c0.1-0.2-0.2-1.6-0.6-2.8 C182.7,36.2,182.2,34.7,182,34.7C182,34.7,182,34.7,182,34.7z M184.5,46.8c-0.1-1.3-0.3-3-0.4-4.2c-0.1-0.4-0.1-0.4-0.1-0.5 c0,0,0,0.1,0,0.1c0,0.7,0.4,4.8,0.5,5.1C184.5,47.2,184.5,47.2,184.5,46.8z M183.9,41.5c-0.1-0.4-0.1-0.8-0.2-1.2 c0.1,0.6,0.2,1.1,0.3,1.6L183.9,41.5z M184.3,46.9C184.2,46.9,184.2,47,184.3,46.9c-0.3,0.9-0.3,5-0.1,5.5c0,0,0,0,0,0 c0.2-0.3,0.3-2.1,0.3-3.2C184.5,48.8,184.5,47.3,184.3,46.9C184.3,46.9,184.3,46.9,184.3,46.9z M183.3,39.7 c-0.2-0.7-0.3-0.5-0.4-0.4c0,0,0,0,0,0c0,0,0,0,0,0c0,0,0,0,0,0c0,0,0,0,0,0c0,0,0,0,0,0c0,0,0,0,0,0s0,0,0,0c0,0,0,0,0,0 c-0.2,0.8,0.3,3.8,0.7,4.8c0.2,0.5,0.3,0.3,0.3,0.3c0,0,0,0,0,0c0,0,0,0,0,0c0,0,0,0,0,0c0,0,0,0,0,0c0,0,0,0,0,0c0,0,0,0,0,0 c0,0,0,0,0,0c0,0,0,0,0,0c0.1-0.6-0.1-2.2-0.2-3C183.7,41,183.5,40.3,183.3,39.7z M183.6,40.2c-0.2-1-0.5-2.1-0.6-2.6 C183.2,38.4,183.5,39.3,183.6,40.2z M165.4,84.3C165.4,84.3,165.4,84.3,165.4,84.3C165.4,84.3,165.4,84.3,165.4,84.3 C165.4,84.3,165.4,84.3,165.4,84.3C165.4,84.3,165.4,84.3,165.4,84.3C165.4,84.3,165.4,84.3,165.4,84.3 C165.4,84.3,165.4,84.3,165.4,84.3C165.4,84.3,165.4,84.3,165.4,84.3C165.4,84.3,165.4,84.3,165.4,84.3c-1.1,0.4-2.6,1.9-2.6,2.3 c0,0.4,1.3-0.4,2.3-1.3c0.4-0.4,0.6-0.7,0.6-0.8C165.9,84.3,165.7,84.2,165.4,84.3z M161.4,87.1c-1,0.3-2.4,1.5-2.4,1.8 c0,0.3,1.3-0.3,2.1-1c0.4-0.3,0.5-0.5,0.6-0.6C161.8,87.2,161.8,87,161.4,87.1z M162.5,21.7C162.5,21.8,162.4,21.8,162.5,21.7 c-1,0.6,0.7,3.2,2,3.5c0.8,0.1,1-0.8,0.3-1.9C164.1,22.3,163.1,21.6,162.5,21.7z M155.5,85.7c0.4-0.7,0-1.2-0.8-1.1 c-1.2,0.2-2.2,1.2-2,1.8C152.8,87.3,154.8,86.8,155.5,85.7z M169.1,78.9c-1.3,0.5-2.7,2.4-2.6,3.1c0.1,0.7,1.7-0.3,2.7-1.6 c0.1-0.2,0.2-0.4,0.3-0.5C169.9,79.1,169.7,78.7,169.1,78.9z M172.8,77.3c-1,0.5-2.3,2.3-2.6,3.1c-0.2,0.5,0.1,0.4,0.3,0.3 c0,0,0,0,0,0c0,0,0,0,0,0c0,0,0,0,0,0c0,0,0,0,0,0c0,0,0,0,0,0c0,0,0,0,0,0c0,0,0,0,0,0s0,0,0,0c0.7-0.4,1.6-1.4,2-2 c0.4-0.6,0.6-0.9,0.6-1.1C173.4,77.1,173,77.3,172.8,77.3z M165.2,82.4c-1.3,0.4-2.6,2-2.5,2.6c0.1,0.6,1.8-0.3,2.6-1.4 c0.1-0.1,0.2-0.3,0.3-0.4C165.7,83,166.2,82.1,165.2,82.4z M171.9,72.6c-1.1,0.4-1.9,1.7-2,2c-0.7,1.3-0.7,2.5,0.3,2.2c0,0,0,0,0,0 c0,0,0,0,0,0c0,0,0,0,0,0c0,0,0,0,0,0c0,0,0,0,0,0c0,0,0,0,0,0c0,0,0,0,0,0c0,0,0,0,0,0c1.1-0.4,1.9-1.7,2.2-2.3 C172.8,73.5,173,72.3,171.9,72.6z M169.2,81C169.2,81,169.2,81,169.2,81C169.2,81,169.2,81,169.2,81C169.2,81,169.2,81,169.2,81 C169.2,81,169.2,81,169.2,81C169.2,81,169.2,81,169.2,81C169.2,81,169.2,81,169.2,81C169.2,81,169.2,81,169.2,81 C169.2,81,169.2,81,169.2,81c-1.1,0.5-2.7,2.3-2.7,2.8c0,0.5,1.4-0.4,2.4-1.6c0.4-0.5,0.6-0.8,0.6-0.9C169.7,81,169.6,80.9,169.2,81 z M180.9,32.1C180.9,32.1,180.9,32,180.9,32.1C180.9,32,180.9,32,180.9,32.1C180.9,32,180.9,32,180.9,32.1 C180.9,32,180.9,32,180.9,32.1C180.9,32,180.9,32,180.9,32.1C180.9,32,180.9,32,180.9,32.1C180.9,32,180.9,32,180.9,32.1 C180.9,32,180.9,32,180.9,32.1C180.9,32,180.9,32,180.9,32.1c0-0.6-0.5-1.8-0.9-2.5c-0.4-0.8-0.9-1.7-1.1-1.7c0,0,0,0,0,0.1 C178.9,28.5,180.5,32.2,180.9,32.1z M155.1,20.4c0,0-0.1,0-0.1,0c-0.8,0.3-0.1,2.4,1.3,2.9c0.9,0.3,1.3-0.5,0.7-1.5 C156.7,21.2,155.9,20.3,155.1,20.4z M155,17.2C155,17.2,155,17.2,155,17.2C155,17.2,155,17.2,155,17.2C155,17.2,155,17.2,155,17.2 C155,17.2,155,17.2,155,17.2C155,17.2,155,17.2,155,17.2C155,17.2,155,17.2,155,17.2C155,17.2,155,17.2,155,17.2 C155,17.2,155,17.2,155,17.2c0,0-0.1,0-0.1,0.1c-0.5,0.4,0.6,2.3,1.8,2.5c0.7,0.1,0.8-0.6,0.2-1.4C156.5,17.9,155.6,17.2,155,17.2z  M154.2,14.4C154.2,14.4,154.1,14.4,154.2,14.4c-0.5,0.5,1.1,2.2,1.9,2.2c0.5,0,0.4-0.5-0.2-1.2C155.5,14.9,154.7,14.3,154.2,14.4z  M153.3,27.5C153.3,27.5,153.3,27.5,153.3,27.5C153.3,27.5,153.3,27.5,153.3,27.5C153.3,27.5,153.3,27.5,153.3,27.5 C153.3,27.5,153.3,27.5,153.3,27.5C153.3,27.5,153.3,27.5,153.3,27.5C153.3,27.5,153.3,27.5,153.3,27.5 C153.3,27.5,153.3,27.5,153.3,27.5c-0.2,0-0.4,0.1-0.7,0.4c-0.7,0.9,0.1,3.2,1.8,3.1c0,0,0,0,0,0c0,0,0,0,0,0c0,0,0,0,0,0 c0,0,0,0,0,0c0,0,0,0,0,0c0,0,0,0,0,0c0,0,0,0,0,0c0,0,0,0,0,0c1-0.2,1.1-1.2,0.9-1.8C155.2,28.5,154.4,27.4,153.3,27.5 C153.3,27.5,153.3,27.5,153.3,27.5z M157,30.4c-1.3,0.4-1.3,2.8,0.4,3.7c1.3,0.7,2.4-0.3,2-1.8c-0.2-0.8-1-2-2.3-1.9 C157.2,30.4,157.1,30.4,157,30.4z M156,27.1C156,27.1,156,27.1,156,27.1C156,27.1,156,27.1,156,27.1C156,27.1,156,27.1,156,27.1 C156,27.1,156,27.1,156,27.1C156,27.1,156,27.1,156,27.1C156,27.1,156,27.1,156,27.1C156,27.1,156,27.1,156,27.1 C156,27.1,156,27.1,156,27.1c0.9-0.2,0.8-1.2,0.6-1.7c-0.3-0.7-1.1-1.6-2-1.6c0,0,0,0,0,0c0,0,0,0,0,0c0,0,0,0,0,0c0,0,0,0,0,0 c0,0,0,0,0,0c0,0,0,0,0,0c0,0,0,0,0,0c0,0,0,0,0,0c-0.1,0-0.3,0.1-0.5,0.3C153.4,25.1,154.5,27.3,156,27.1z M160.9,22.5 C160.9,22.5,160.9,22.5,160.9,22.5C160.9,22.5,160.9,22.5,160.9,22.5C160.9,22.5,160.9,22.5,160.9,22.5 C160.9,22.5,160.9,22.5,160.9,22.5C160.9,22.5,160.9,22.5,160.9,22.5C160.9,22.5,160.9,22.5,160.9,22.5 C160.9,22.5,160.9,22.5,160.9,22.5C160.9,22.5,160.9,22.5,160.9,22.5c0.6-0.3,0.2-1.2-0.1-1.6c-0.4-0.6-1.4-1.5-2.1-1.4 c-0.1,0-0.1,0.1-0.2,0.1C158,20.3,159.7,22.7,160.9,22.5z M159.2,30.1c1.1,0.4,2-0.4,1.4-1.9c-0.3-0.7-1.1-1.8-2.2-1.7c0,0,0,0,0,0 c0,0,0,0,0,0c0,0,0,0,0,0c0,0,0,0,0,0c0,0,0,0,0,0c0,0,0,0,0,0c0,0,0,0,0,0c0,0,0,0,0,0c0,0-0.1,0-0.1,0 C157,27,157.7,29.5,159.2,30.1z M162.2,16.4c-0.6-0.5-1.6-1.2-2-1.1c-0.1,0-0.1,0.1-0.1,0.1c-0.2,0.5,2,2.7,2.8,2.5c0,0,0,0,0,0 c0,0,0,0,0,0c0,0,0,0,0,0c0,0,0,0,0,0c0,0,0,0,0,0c0,0,0,0,0,0c0,0,0,0,0,0c0,0,0,0,0,0C163.3,17.6,162.7,16.9,162.2,16.4z  M159.9,17.5c-0.5-0.5-1.5-1.3-2-1.2c0,0,0,0-0.1,0c-0.6,0.4,1.2,2.6,2.3,2.6C160.6,19,160.7,18.4,159.9,17.5L159.9,17.5z  M151.4,23.9c0.8,0.4,1.6-0.2,1.2-1.3c-0.2-0.6-0.9-1.4-1.7-1.4c0,0,0,0,0,0c0,0,0,0,0,0s0,0,0,0c0,0,0,0,0,0c0,0,0,0,0,0 c0,0,0,0,0,0c0,0,0,0,0,0c0,0,0,0,0,0c-0.1,0-0.1,0-0.2,0.1C149.9,21.7,150.3,23.4,151.4,23.9z M147.7,28.3c0,0-0.1,0-0.1,0 c-1.1,0.2-1.2,2-0.2,2.8c1,0.7,2.1,0,2-1.2C149.3,29,148.5,28.2,147.7,28.3z M148.4,21C148.4,21,148.4,21,148.4,21 C148.4,21,148.4,21,148.4,21C148.4,21,148.4,21,148.4,21C148.4,21,148.4,21,148.4,21C148.4,21,148.4,21,148.4,21 C148.4,21,148.4,21,148.4,21C148.4,21,148.4,21,148.4,21C148.4,21,148.4,21,148.4,21c0.6-0.1,0.6-0.8,0.5-1.1 c-0.2-0.4-0.6-1.1-1.3-1.1c-0.1,0-0.2,0.1-0.3,0.2C146.7,19.5,147.4,21,148.4,21z M148.2,15.8c-0.1,0-0.1,0-0.1,0 c-0.5,0.3,0.1,1.6,0.9,1.9c0.6,0.2,0.9-0.3,0.5-1C149.2,16.3,148.7,15.7,148.2,15.8z M148.7,12c0.3,0,0.2-0.3-0.2-0.7 c-0.3-0.4-0.9-0.7-1.1-0.7c0,0,0,0-0.1,0C147.1,10.9,148.2,12,148.7,12z M161.7,18.4C161.7,18.4,161.7,18.4,161.7,18.4 C161.7,18.4,161.7,18.4,161.7,18.4C161.7,18.4,161.7,18.4,161.7,18.4C161.7,18.4,161.7,18.4,161.7,18.4 C161.7,18.4,161.7,18.4,161.7,18.4C161.7,18.4,161.7,18.4,161.7,18.4C161.7,18.4,161.7,18.4,161.7,18.4 C161.7,18.4,161.7,18.4,161.7,18.4C161.7,18.4,161.6,18.4,161.7,18.4c-0.7,0.5,1.2,2.9,2.3,3c0.7,0.1,0.7-0.7-0.1-1.7 C163.3,19.1,162.3,18.2,161.7,18.4z M150.7,12.5C150.6,12.5,150.6,12.5,150.7,12.5c-0.4,0.4,1,1.8,1.7,1.8c0.3,0,0.2-0.4-0.2-0.9 C151.7,12.9,151,12.4,150.7,12.5z M153.2,19.3c-0.3-0.5-1-1.3-1.6-1.2c-0.1,0-0.2,0-0.3,0.2c-0.5,0.6,0.6,2.4,1.7,2.3c0,0,0,0,0,0 c0,0,0,0,0,0c0,0,0,0,0,0c0,0,0,0,0,0c0,0,0,0,0,0c0,0,0,0,0,0c0,0,0,0,0,0c0,0,0,0,0,0C153.5,20.4,153.3,19.6,153.2,19.3 L153.2,19.3z M151.4,15.1c-0.1,0-0.1,0-0.1,0.1c-0.4,0.3,0.6,1.9,1.5,2.1c0.6,0.1,0.7-0.4,0.2-1.1C152.6,15.7,151.9,15,151.4,15.1z  M160.8,26.3C160.8,26.3,160.8,26.3,160.8,26.3C160.8,26.3,160.8,26.3,160.8,26.3C160.8,26.3,160.8,26.3,160.8,26.3 C160.8,26.3,160.8,26.3,160.8,26.3C160.8,26.3,160.8,26.3,160.8,26.3C160.8,26.3,160.8,26.3,160.8,26.3 C160.8,26.3,160.8,26.3,160.8,26.3C160.8,26.3,160.8,26.3,160.8,26.3c0.8-0.3,0.5-1.3,0.3-1.8c-0.4-0.8-1.4-1.7-2.2-1.6c0,0,0,0,0,0 c0,0,0,0,0,0c0,0,0,0,0,0c0,0,0,0,0,0c0,0,0,0,0,0c0,0,0,0,0,0c0,0,0,0,0,0c0,0,0,0,0,0c-0.1,0-0.2,0.1-0.3,0.2 C157.9,24,159.4,26.5,160.8,26.3z M149.5,24.7c-1.1,0.3-0.9,2.1,0.2,2.8c0.9,0.5,1.9-0.1,1.6-1.3c-0.1-0.6-0.7-1.5-1.7-1.5 C149.6,24.7,149.5,24.7,149.5,24.7z M148.5,48.4c-0.2-0.7-0.8-1.4-1.9-1.4c-0.2,0-0.5,0.1-0.7,0.2c0.8,0.3,1.6,0.6,2.2,1 C148.3,48.2,148.4,48.3,148.5,48.4z M156.9,56.4L156.9,56.4L156.9,56.4L156.9,56.4z M148.9,46.4c1.3,1.2,3.2,0.2,3.2-1.5 c0-0.9-0.7-2.1-2.1-2.1C148.2,42.9,147.6,45.2,148.9,46.4z M162.5,37.6C162.5,37.6,162.5,37.6,162.5,37.6 C162.5,37.6,162.5,37.6,162.5,37.6C162.5,37.6,162.5,37.6,162.5,37.6C162.5,37.6,162.6,37.6,162.5,37.6 C162.6,37.6,162.6,37.6,162.5,37.6C162.6,37.6,162.6,37.6,162.5,37.6C162.6,37.6,162.6,37.6,162.5,37.6 C162.6,37.6,162.6,37.6,162.5,37.6c1.2-0.3,1.2-1.7,1-2.3c-0.2-0.9-1.2-2.2-2.4-2.1c-0.2,0-0.5,0.1-0.7,0.4 C159.3,35,160.5,37.9,162.5,37.6z M151.4,31.3c-1.6,0.2-1.5,2.4-0.3,3.3c1.2,0.9,2.5,0,2.3-1.5C153.3,32.4,152.6,31.3,151.4,31.3z  M135.5,43.7c-1.1,0-1.5,1-1.3,1.8c0.5,0,1.1,0,1.7,0.1c0.3,0,0.6,0,0.9,0c0-0.1,0.1-0.2,0.1-0.3C137,44.5,136.4,43.8,135.5,43.7z  M152.9,38.5C152.9,38.5,152.9,38.5,152.9,38.5C152.9,38.5,152.9,38.5,152.9,38.5C152.9,38.5,152.9,38.5,152.9,38.5 C152.9,38.5,152.9,38.5,152.9,38.5C152.9,38.5,152.9,38.5,152.9,38.5C152.9,38.5,152.9,38.5,152.9,38.5 C152.9,38.5,152.9,38.5,152.9,38.5c-0.2,0-0.7,0.1-1.1,0.6c-1,1.2-0.3,3.6,1.8,3.5c0,0,0,0,0,0c0,0,0,0,0,0c0,0,0,0,0,0c0,0,0,0,0,0 c0,0,0,0,0,0c0,0,0,0,0,0c0,0,0,0,0,0c0,0,0,0,0,0c1.4-0.2,1.6-1.4,1.6-2.1C155,39.7,154.3,38.5,152.9,38.5 C152.9,38.5,152.9,38.5,152.9,38.5z M152.8,50.2c1.4,1.2,3.5,0.1,3.5-1.8c0-1-0.7-2.3-2.3-2.3C151.8,46.5,151.6,49.1,152.8,50.2z  M155,38.2c1.3,0.9,2.9-0.1,2.6-1.8c-0.1-0.8-0.9-2.1-2.3-2c0,0,0,0,0,0c0,0,0,0,0,0c0,0,0,0,0,0c0,0,0,0,0,0c0,0,0,0,0,0 c0,0,0,0,0,0c0,0,0,0,0,0c0,0,0,0,0,0C153.6,34.7,153.6,37.2,155,38.2z M152.8,52.7c0-0.9-0.6-2.2-2.2-2.2c0.1,0.1,0.1,0.2,0.2,0.3 c0.6,1.1,0.9,2.3,0.9,3.7c0,0,0,0.1,0,0.1C152.3,54.3,152.8,53.6,152.8,52.7z M159.3,44.1c-0.1-1.4-1.2-2.4-2.4-2.3 c-1.9,0.4-2.2,2.9-0.9,4.1C157.5,47.1,159.5,46,159.3,44.1L159.3,44.1z M160.8,60c0.1-1.5-0.9-2.6-2.3-2.4c-2.2,0.4-2.9,2.9-1.8,4.2 C158.1,63.3,160.6,62.2,160.8,60z M154.8,58.8C154.8,58.8,154.8,58.8,154.8,58.8C154.8,58.8,154.8,58.8,154.8,58.8 C154.8,58.8,154.8,58.8,154.8,58.8C154.8,58.8,154.8,58.8,154.8,58.8C154.8,58.8,154.8,58.8,154.8,58.8 C154.8,58.8,154.8,58.8,154.8,58.8C154.8,58.8,154.8,58.8,154.8,58.8C154.8,58.8,154.8,58.8,154.8,58.8c1.6-0.3,2.1-1.6,2.2-2.3 c0.1-1.4-1-2.5-2.3-2.4c-0.3,0-0.8,0.1-1.4,0.7C151.8,56.2,152.5,58.9,154.8,58.8z M160.4,42C160.4,42,160.4,42,160.4,42 C160.4,42,160.4,42,160.4,42C160.4,42,160.4,42,160.4,42C160.4,42,160.4,42,160.4,42C160.4,42,160.4,42,160.4,42 C160.4,42,160.4,42,160.4,42C160.4,42,160.4,42,160.4,42C160.4,42,160.4,42,160.4,42c1.4-0.3,1.5-1.7,1.4-2.4c-0.1-1-1-2.3-2.5-2.2 c-0.4,0.1-0.7,0.3-1,0.6C157.2,39.4,158.3,42.2,160.4,42z M158,49.5C158,49.5,158,49.5,158,49.5C158,49.5,158,49.5,158,49.5 C158,49.5,158,49.5,158,49.5C158,49.5,158,49.5,158,49.5C158,49.5,158,49.5,158,49.5C158,49.5,158,49.5,158,49.5 C158,49.5,158,49.5,158,49.5C158,49.5,158,49.5,158,49.5c-0.3,0.1-0.9,0.2-1.4,0.7c-1.4,1.5-0.6,4.3,1.8,4.1c0,0,0,0,0,0 c0,0,0,0,0,0c0,0,0,0,0,0c0,0,0,0,0,0c0,0,0,0,0,0c0,0,0,0,0,0c0,0,0,0,0,0c0,0,0,0,0,0c1.6-0.3,2-1.7,2-2.5 C160.5,50.9,159.8,49.4,158,49.5z M152.8,65.8c1.1,1.6,3.8,0.7,4.1-1.4c0.1-0.9-0.3-2.4-2.1-2.3C152.8,62.4,152,64.5,152.8,65.8z  M160.5,67.7c0.3-1.3-0.7-2.4-2-2.2c-2.1,0.4-2.8,2.6-2.2,3.7C157.3,70.7,160.1,69.8,160.5,67.7z M150.8,66.5 c-2,0.2-2.6,2.2-1.9,3.2c1,1.5,3.5,0.7,3.9-1.1C153,67.4,152.1,66.4,150.8,66.5z M154,73.7C154,73.7,154,73.7,154,73.7 C154,73.7,154,73.7,154,73.7C154,73.7,154,73.7,154,73.7C154,73.7,154,73.7,154,73.7C154,73.7,154,73.7,154,73.7 C154,73.7,154,73.7,154,73.7C154,73.7,154,73.7,154,73.7C154,73.7,154,73.7,154,73.7c1.5-0.2,2.1-1.4,2.3-1.9c0.2-1-0.4-2.1-1.9-2 c-0.3,0-1.1,0.2-1.7,0.9C151.7,71.8,152,73.8,154,73.7z M147,9.1c-0.3-0.2-0.8-0.5-1-0.5c0,0,0,0,0,0c-0.1,0.2,1.1,1,1.4,1 C147.5,9.6,147.3,9.4,147,9.1z M136.8,93.3C136.8,93.3,136.7,93.3,136.8,93.3c-0.1,0-0.1,0.1-0.1,0.1c0,0,0.1,0,0.1,0c0,0,0,0,0.1,0 c0,0,0,0,0.1,0c0,0,0.1,0,0.1,0c0,0,0,0,0,0C136.9,93.3,136.9,93.3,136.8,93.3C136.8,93.3,136.8,93.3,136.8,93.3z M136.8,90.7 c0-0.1-0.1-0.3-0.5-0.3c0,0,0,0,0,0c0,0,0,0,0,0c0,0,0,0,0,0c0,0,0,0,0,0c0,0,0,0,0,0c0,0,0,0,0,0c0,0,0,0,0,0c0,0,0,0,0,0 c-0.4,0-0.5,0.2-0.4,0.4C136.1,91,136.8,91,136.8,90.7z M136.8,86.8c0-0.2-0.2-0.6-0.9-0.7c-0.7,0-1,0.5-0.6,0.9 C135.7,87.5,136.7,87.4,136.8,86.8z M140.9,65.4L140.9,65.4c0-0.3,0-0.8-0.3-1.1c-0.9,0.1-1.9,0.2-3,0.3c-0.2,0.6-0.2,1.3,0.2,1.8 C138.8,67.4,140.7,66.8,140.9,65.4z M139.1,74C139.1,74,139.1,74,139.1,74C139.1,74,139.1,74,139.1,74C139.1,74,139.1,74,139.1,74 C139.1,74,139.1,74,139.1,74C139.1,74,139.1,74,139.1,74C139.1,74,139.1,74,139.1,74C139.1,74,139.1,74,139.1,74 C139.1,74,139.1,74,139.1,74c1.1-0.1,1.6-0.9,1.6-1.3c0.1-0.8-0.5-1.6-1.6-1.7c-0.4,0-0.9,0.2-1.2,0.5 C137.1,72.3,137.6,73.9,139.1,74z M136.8,69.1c0.1-0.8-0.6-1.6-1.5-1.6c-1.4,0-1.9,1.4-1.1,2.3C135,70.8,136.7,70.3,136.8,69.1z  M135.4,77C135.4,77,135.4,77,135.4,77C135.4,77,135.4,77,135.4,77C135.4,77,135.4,77,135.4,77C135.4,77,135.4,77,135.4,77 C135.4,77,135.4,77,135.4,77C135.4,77,135.4,77,135.4,77C135.4,77,135.4,77,135.4,77C135.4,77,135.4,77,135.4,77c1,0,1.3-0.6,1.3-1 c0.1-0.5-0.3-1.3-1.4-1.4c-0.2,0-0.6,0-1,0.3C133.7,75.5,134.1,76.9,135.4,77z M135.7,82.7C135.7,82.7,135.7,82.7,135.7,82.7 C135.7,82.7,135.7,82.7,135.7,82.7C135.7,82.7,135.7,82.7,135.7,82.7C135.7,82.7,135.7,82.7,135.7,82.7 C135.7,82.7,135.7,82.7,135.7,82.7C135.7,82.7,135.7,82.7,135.7,82.7C135.7,82.7,135.7,82.7,135.7,82.7c0.8,0,1.1-0.5,1.1-0.8 c0.1-0.5-0.5-1-1.2-1.1c-0.1,0-0.5,0-0.8,0.2C134.2,81.6,134.6,82.6,135.7,82.7C135.7,82.7,135.7,82.7,135.7,82.7z M138.7,94.3 C138.7,94.3,138.7,94.3,138.7,94.3C138.7,94.3,138.8,94.3,138.7,94.3c0.1,0,0.1,0,0.2,0c0,0,0,0,0,0 C138.8,94.2,138.8,94.2,138.7,94.3C138.8,94.2,138.8,94.2,138.7,94.3z M134.1,92C134.2,92.1,134.2,92.1,134.1,92 c0.1,0.1,0.1,0.1,0.1,0.1c0,0,0,0,0,0c0,0,0.1,0,0.1,0c0,0,0,0,0,0C134.2,92,134.2,92,134.1,92C134.2,92,134.2,92,134.1,92z  M116.9,55.5C116.8,55.5,116.8,55.5,116.9,55.5c-0.1,0-0.1,0.1-0.1,0.1c0,0,0.1,0.1,0.1,0.1c0,0,0,0,0.1,0c0,0,0,0,0.1,0 c0.1,0,0.1-0.1,0.2-0.1c0,0,0,0,0,0C117,55.6,117,55.6,116.9,55.5C116.9,55.5,116.9,55.5,116.9,55.5z M140.9,95c0,0,0.1,0,0.1,0 c0,0,0,0,0,0C141,95,141,95,140.9,95C141,95,140.9,95,140.9,95z M142.3,90.6c0.1-0.2-0.1-0.5-0.7-0.5c-0.6,0-1,0.4-0.8,0.7 C141,91.3,142.1,91.1,142.3,90.6z M140.9,93.1c-0.3,0-0.5,0.2-0.4,0.3c0.1,0.2,0.6,0.1,0.7-0.1C141.3,93.2,141.2,93.1,140.9,93.1z  M142.4,94C142.4,94,142.4,94,142.4,94C142.4,94,142.4,94,142.4,94C142.4,94,142.4,94,142.4,94C142.4,94,142.4,94,142.4,94 C142.4,94,142.4,94,142.4,94C142.4,94,142.4,94,142.4,94C142.4,94,142.4,94,142.4,94C142.4,94,142.4,94,142.4,94 c-0.3,0-0.4,0.1-0.4,0.2c0,0.1,0.5,0.1,0.6-0.1c0,0,0,0,0,0C142.7,94.1,142.7,94,142.4,94z M139,83.5C139,83.5,139,83.5,139,83.5 C139,83.5,139,83.5,139,83.5C139,83.5,139,83.5,139,83.5C139,83.5,139,83.5,139,83.5C139,83.5,139,83.5,139,83.5 C139,83.5,139,83.5,139,83.5C139,83.5,139,83.5,139,83.5C139,83.5,139,83.5,139,83.5c-1,0-1.4,0.8-1,1.3c0.5,0.8,2,0.5,2.1-0.3 C140.2,84.1,140,83.6,139,83.5z M133.3,88.4C133.3,88.4,133.3,88.4,133.3,88.4C133.3,88.4,133.3,88.4,133.3,88.4 C133.3,88.4,133.3,88.4,133.3,88.4C133.3,88.4,133.3,88.4,133.3,88.4C133.3,88.4,133.3,88.4,133.3,88.4 C133.3,88.4,133.3,88.4,133.3,88.4C133.3,88.4,133.3,88.4,133.3,88.4C133.3,88.4,133.3,88.4,133.3,88.4 C133.2,88.4,133.2,88.4,133.3,88.4c-0.3,0-0.5,0.2-0.3,0.4c0.3,0.3,0.8,0.2,0.8-0.1C133.8,88.6,133.6,88.4,133.3,88.4z M138.9,91.9 c-0.2,0-0.3,0.1-0.4,0.1c-0.1,0.1,0,0.4,0.4,0.4c0,0,0,0,0,0c0,0,0,0,0,0c0,0,0,0,0,0s0,0,0,0s0,0,0,0c0,0,0,0,0,0s0,0,0,0s0,0,0,0 c0.4,0,0.4-0.2,0.4-0.2C139.3,92,139.1,91.9,138.9,91.9z M143.4,94.6c0,0,0,0-0.1,0c0,0,0,0,0,0c0,0,0,0,0,0c0,0,0,0,0,0 c0,0,0,0,0,0s0,0,0,0s0,0,0,0c0,0,0,0,0,0c0,0,0,0,0,0c-0.2,0-0.4,0.1-0.4,0.1c0,0,0,0,0.1,0c0,0,0,0,0,0c0,0,0,0,0,0c0,0,0,0,0,0 c0,0,0,0,0,0c0,0,0,0,0,0c0,0,0,0,0,0c0,0,0,0,0,0s0,0,0,0C143.2,94.7,143.3,94.7,143.4,94.6C143.3,94.6,143.4,94.6,143.4,94.6z  M140.1,94.8C140.1,94.8,140.2,94.8,140.1,94.8C140.2,94.8,140.2,94.8,140.1,94.8c0.1,0,0.1,0,0.1,0c0,0,0,0,0,0 C140.2,94.8,140.2,94.8,140.1,94.8C140.2,94.8,140.2,94.8,140.1,94.8z M139,88.3c-0.2,0-0.5,0.1-0.6,0.2c-0.4,0.3-0.1,0.9,0.6,0.9 c0,0,0,0,0,0c0,0,0,0,0,0c0,0,0,0,0,0c0,0,0,0,0,0c0,0,0,0,0,0c0,0,0,0,0,0c0,0,0,0,0,0c0,0,0,0,0,0c0.6,0,0.8-0.3,0.8-0.5 C139.8,88.7,139.6,88.3,139,88.3z M124.7,64.6c0-0.4-0.2-0.9-0.8-1c0,0,0,0,0,0c-0.7,0-1,0.8-0.5,1.4 C123.9,65.6,124.7,65.3,124.7,64.6z M125,72c0-0.3-0.3-0.8-0.8-0.8c0,0,0,0,0,0c-0.6,0-0.8,0.6-0.4,1.1C124.3,72.7,125,72.5,125,72z  M122.5,80.8C122.5,80.8,122.5,80.7,122.5,80.8c-0.1,0-0.1,0-0.2,0.1c0.1,0,0.1,0.1,0.2,0.1c0,0,0.1,0,0.1,0c0.1,0,0.1,0,0.1,0 C122.7,80.9,122.6,80.8,122.5,80.8z M126.3,83.6c-0.1,0-0.1,0.1-0.2,0.1c0,0,0,0.1,0,0.1c0,0,0.1,0.1,0.2,0.1c0,0,0,0,0.1,0 c0.1,0,0.2-0.1,0.2-0.1c0,0,0,0,0,0C126.6,83.8,126.5,83.7,126.3,83.6C126.3,83.7,126.3,83.6,126.3,83.6z M125.1,77.9 C125,77.9,125,77.9,125.1,77.9c-0.4,0-0.6,0.3-0.3,0.7c0.3,0.3,0.8,0.3,0.8-0.1C125.6,78.2,125.4,77.9,125.1,77.9z M117.4,70.8 c0,0.1-0.1,0.1-0.1,0.2c0.2,0.1,0.2,0.1,0.2,0.1c0,0,0.1,0,0.1-0.1c0,0,0-0.1,0-0.1C117.5,70.9,117.4,70.8,117.4,70.8z M117.7,47.5 c-0.1,0.1-0.2,0.1-0.2,0.2c0,0,0,0.1,0,0.1c0,0.1,0.1,0.1,0.1,0.1c0,0,0.1,0,0.1-0.1c0,0,0,0,0-0.1 C117.7,47.6,117.7,47.5,117.7,47.5z M121.2,74.5C121.2,74.5,121.2,74.6,121.2,74.5c-0.2,0.1-0.2,0.2-0.2,0.2c0,0.1,0.2,0.2,0.3,0.2 c0,0,0,0,0,0c0,0,0,0,0,0c0,0,0,0,0,0c0,0,0,0,0,0c0,0,0,0,0,0c0,0,0,0,0,0c0,0,0,0,0,0c0,0,0,0,0,0c0,0,0.1,0,0.1,0 c0.1,0,0.2-0.1,0.2-0.1c0,0,0,0,0,0C121.6,74.8,121.4,74.7,121.2,74.5C121.3,74.6,121.2,74.6,121.2,74.5z M120.4,67.4 C120.4,67.4,120.4,67.4,120.4,67.4c-0.3,0-0.5,0.4-0.2,0.7c0.3,0.3,0.7,0.2,0.7-0.2C120.9,67.7,120.7,67.5,120.4,67.4z M132.8,72.5 c0.1-0.5-0.4-1.3-1.3-1.3c-1,0-1.5,0.9-0.9,1.7C131.3,73.8,132.7,73.5,132.8,72.5z M133.4,84.3c0-0.3-0.4-0.7-0.9-0.7 c0,0-0.1,0-0.1,0c-0.6,0-0.8,0.5-0.4,0.9C132.5,85.1,133.4,84.9,133.4,84.3z M132.7,65.2c0-0.3,0-0.6-0.2-0.8 c-0.8-0.1-1.5-0.1-2.2-0.2c-0.3,0.5-0.3,1.1,0.1,1.6C131.1,66.8,132.6,66.4,132.7,65.2z M133,78.9c0-0.5-0.5-1-1.1-1 c-0.9,0-1.2,0.9-0.7,1.4C131.8,79.9,133,79.7,133,78.9z M131.2,90.3C131.2,90.4,131.2,90.4,131.2,90.3 C131.2,90.4,131.2,90.4,131.2,90.3c0.1,0.1,0.1,0.1,0.1,0.1c0,0,0,0,0,0c0,0,0.1,0,0.1,0c0,0,0,0,0,0 C131.2,90.3,131.2,90.3,131.2,90.3C131.2,90.3,131.2,90.3,131.2,90.3z M128.8,80.9C128.8,80.9,128.8,80.9,128.8,80.9 c-0.6,0-0.7,0.5-0.4,0.9c0.4,0.4,1.2,0.3,1.1-0.2C129.6,81.2,129.3,80.9,128.8,80.9z M127.9,88.3C127.9,88.3,127.9,88.3,127.9,88.3 c-0.1,0-0.1,0-0.2,0c0.2,0.1,0.2,0.1,0.2,0.1c0.1,0,0.1,0,0.1,0C128,88.4,127.9,88.3,127.9,88.3z M129.1,75.6L129.1,75.6 c0-0.5-0.4-1-1-1c-0.8,0-1.1,0.7-0.6,1.3C128.1,76.5,129,76.3,129.1,75.6z M128.8,68.7c0-0.5-0.3-1.1-1.1-1.2c-1,0-1.3,1-0.8,1.6 C127.6,69.9,128.7,69.7,128.8,68.7z M129.9,86.2C129.9,86.2,129.9,86.2,129.9,86.2C129.9,86.2,129.9,86.2,129.9,86.2 C129.9,86.2,129.9,86.2,129.9,86.2C129.9,86.2,129.9,86.2,129.9,86.2C129.9,86.2,129.9,86.2,129.9,86.2 C129.9,86.2,129.9,86.2,129.9,86.2C129.9,86.2,129.9,86.2,129.9,86.2C129.9,86.2,129.9,86.2,129.9,86.2 C129.9,86.2,129.8,86.2,129.9,86.2c-0.3,0-0.4,0.3-0.1,0.4c0.3,0.2,0.6,0.1,0.5-0.1C130.3,86.4,130.2,86.2,129.9,86.2z M139.1,77.7 c-1.3,0.1-1.8,1.1-1.2,1.9c0.8,1,2.4,0.4,2.6-0.6C140.6,78.5,140.2,77.8,139.1,77.7z M182.5,62.7L182.5,62.7l-0.1,0.3 C182.4,62.8,182.5,62.7,182.5,62.7z M176,75.6c0.2,0,1-1.3,1.7-2.3c0.3-0.4,0.9-1.5,0.9-1.7c0,0,0,0-0.1,0.1 C177.8,72.3,176,75.3,176,75.6z M177.2,74.1c-0.7,0.9-1.5,2.2-2.2,3.1C175.7,76.1,176.8,74.6,177.2,74.1z M179.5,69.2 C179.5,69.2,179.5,69.2,179.5,69.2C179.5,69.2,179.5,69.2,179.5,69.2C179.5,69.2,179.5,69.2,179.5,69.2 C179.5,69.2,179.5,69.2,179.5,69.2C179.5,69.2,179.5,69.2,179.5,69.2C179.5,69.2,179.5,69.2,179.5,69.2 C179.5,69.2,179.5,69.2,179.5,69.2C179.5,69.2,179.5,69.2,179.5,69.2c0.5-0.6,1.1-2,1.4-2.7c0.4-0.9,0.5-1.6,0.5-1.8 c0-0.3-0.1-0.2-0.2-0.1c0,0,0,0,0,0c0,0,0,0,0,0c0,0,0,0,0,0c0,0,0,0,0,0c0,0,0,0,0,0c0,0,0,0,0,0c0,0,0,0,0,0c0,0,0,0,0,0 c-0.7,0.8-1.9,3.8-1.9,4.6C179.3,69.4,179.5,69.3,179.5,69.2z M172.3,79.5c-0.9,0.6-2.8,2.8-2.7,3.1c0.2,0.1,1.3-0.9,2-1.8 c0.6-0.7,0.9-1.1,0.9-1.2C172.5,79.3,172.4,79.4,172.3,79.5z M178.9,69.1c-0.9,0.7-2.5,3.9-2.3,4.4c0.1,0.3,1.2-1,1.9-2.6 c0.3-0.6,0.5-1.1,0.6-1.5C179.3,68.8,179,69,178.9,69.1z M176.1,73.4c-1.1,0.7-2.6,3.3-2.5,3.9c0.1,0.5,1.3-0.8,2.2-2.2 c0.4-0.7,0.5-1.1,0.6-1.2C176.5,73.3,176.4,73.2,176.1,73.4z M175.6,75.7c-0.6,0.5-2.7,3.2-2.6,3.5c0,0,0,0,0,0c0,0,0.1,0,0.1-0.1 c0,0,0,0,0,0c0,0,0,0,0,0c0,0,0,0,0,0c0,0,0,0,0,0c0,0,0,0,0,0s0,0,0,0c0,0,0,0,0,0c0,0,0,0,0,0c0.5-0.4,1.3-1.4,1.8-2 c0.2-0.2,0.9-1.3,0.9-1.5C175.7,75.6,175.7,75.6,175.6,75.7z M171.7,81C171.7,81,171.7,81,171.7,81c0.8-0.9,1.8-2,2.6-2.9 c0.2-0.2,0.2-0.2,0.2-0.3c0,0,0,0-0.1,0.1C174.1,78.2,171.7,80.9,171.7,81z M175.9,70.9C175.9,70.9,175.9,70.9,175.9,70.9 C175.9,70.9,175.9,70.9,175.9,70.9C175.9,70.9,175.9,70.9,175.9,70.9C175.9,70.9,175.9,70.9,175.9,70.9 C175.9,70.9,175.9,70.9,175.9,70.9C175.9,70.9,175.9,70.9,175.9,70.9C175.9,70.9,175.9,70.9,175.9,70.9 C175.9,70.9,175.9,70.9,175.9,70.9c-1.3,0.8-2.6,3.5-2.4,4.2c0.2,0.7,1.7-0.7,2.5-2.4c0.1-0.1,0.1-0.3,0.2-0.4 C176.5,71.6,176.8,70.5,175.9,70.9z M180.7,67.2c-0.4,0.6-2.1,4.1-2.1,4.3c0-0.1,0.1-0.2,0.3-0.6l1.5-3 C180.8,67.3,180.8,67.2,180.7,67.2C180.8,67.2,180.8,67.2,180.7,67.2z M181.8,64.7l0.6-1.8c-0.3,0.7-0.8,2.3-1.2,3.4L181.8,64.7z  M184.1,55c0.1-1.1,0.3-4.1,0.4-4.9C184.4,51.6,184.3,53.5,184.1,55z M182.7,41.6C182.7,41.6,182.7,41.6,182.7,41.6 C182.7,41.6,182.7,41.6,182.7,41.6C182.7,41.6,182.7,41.6,182.7,41.6C182.7,41.6,182.7,41.6,182.7,41.6 C182.7,41.6,182.7,41.6,182.7,41.6C182.7,41.6,182.7,41.6,182.7,41.6C182.7,41.6,182.7,41.6,182.7,41.6 C182.7,41.6,182.7,41.6,182.7,41.6c0.3-0.6,0-2.2-0.2-3c-0.3-1.1-0.9-2.5-1.2-2.1c0,0.1-0.2,0.3-0.1,1c0.1,1.2,0.5,2.9,1,3.7 c0,0,0.1,0.1,0.1,0.1C182.4,41.7,182.6,41.8,182.7,41.6z M183.4,57.4c-0.1,0-0.1,0-0.2,0c-0.1,2.1-0.8,4.3-1.4,4.9 c-0.1,0-0.1-0.1-0.2-0.1c-0.3,2.3-1.3,4.4-2,4.7c-0.1,0-0.1-0.1-0.2-0.2c-0.3,2-1.7,4.4-2.6,4.4c-0.2-0.3-0.2-0.3,0.6-3.1 c-0.7,0.8-1,0.7-1.4,0.6c-0.4,3.1-2.4,4.2-2.4,4.2c0,0-1.9,0.6,0-3.3c-0.4,0.4-0.6,0.5-0.7,0.6c-1,0.6-1.5-0.1-1.5-0.1 c-0.2-0.7-0.2-0.7,0.4-3c-1.1,0.9-1.6,0.7-2.2,0.3l0,0c0,0,0,0,0,0c-0.7-1.4-0.1-2.7,0.3-3.5c-0.8,0.7-2,1.4-2.9,0.2 c-0.9-1.3-0.2-5.2,2.9-4.7c-0.4-1.2-0.4-1.9,0-3.2c-1.7,1.4-2.6,0.5-3-0.2c-0.9-1.5-0.3-5.3,2.6-4.6c-1.2-4.1,0.3-4.7,2.1-4.9 c-0.6-1.1-0.7-2.4-0.4-3.3c0,0,0-0.1,0-0.1c0.3-0.9,1-1.4,2-1.1c-0.4-0.8-1.6-3.4-0.1-4.5c0.4-0.2,1.8-0.6,2.6,3.2 c0.6-0.6,0.6-0.6,1.3-0.6c-1.3-2.6-0.7-4-0.7-4.1c0.6-1.3,1.5-0.3,2.6,2.9c0.5-0.8,0.5-0.8,1.1-0.4c-1.3-2.3-1.4-4.2-1-4.7 c0.8,0,1.4,1.6,1.6,2.3c0,0,1,3.4-0.5,2.6c0.4,0.7,0.4,0.7,1,3.1c0.1-0.5,0.1-0.5,0.4-0.7c0.2,0,0.4,0,0.5,0.2 c0,0.1,0.1,0.1,0.1,0.1c0.2,0.4,0.4,1.3,0.8,3.2c0.1-0.6,0.1-0.6,0.3-0.7c0.1,0.2,0.5,0.5,0.6,2.5c0.1,0.7,0.1,2.5-0.3,3.2 c-0.1,0-0.1,0-0.2,0c0.2,1,0.2,1.8,0,3.1c0.1-0.4,0.1-0.4,0.3-0.7c0.1,0,0.2,0,0.2-0.1C184.3,53.4,183.8,56.7,183.4,57.4z  M176.7,50.6c-0.3,0.1-0.5,0.2-0.9,0.3c0,0,0,0,0,0.1c0,0,0,0,0,0.1c0,0,0,0,0,0.1c0,0,0,0,0,0.1c0,0,0,0,0,0.1c0,0,0,0,0,0.1 c0,0,0,0,0,0.1s0,0,0,0.1c0,0,0,0,0,0.1c0,0,0,0,0,0.1c0,0,0,0,0,0.1c0,0,0,0,0,0.1c0,0,0,0,0,0.1c0,0,0,0,0,0.1c0,0,0,0,0,0.1 c0,0,0,0,0,0.1c0,0,0,0,0,0.1c0,0,0,0,0,0.1c0,0,0,0,0,0.1c0,0,0,0,0,0.1c0,0,0,0,0,0.1c0,0,0,0,0,0.1c0,0,0,0,0,0.1c0,0,0,0,0,0.1 c0,0,0,0,0,0.1s0,0,0,0.1c0,0,0,0,0,0.1c0,0,0,0,0,0.1c0,0,0,0,0,0.1c0,0,0,0,0,0.1c0,0,0,0,0,0.1c0,0,0,0,0,0.1 c0.4-0.2,0.6-0.3,0.9-0.4c0,0,0-0.1,0-0.1c0,0,0-0.1,0-0.1c0,0,0-0.1,0-0.1c0,0,0-0.1,0-0.1c0,0,0-0.1,0-0.1c0,0,0-0.1,0-0.1 c0,0,0-0.1,0-0.1c0,0,0-0.1,0-0.1c0,0,0-0.1,0-0.1c0,0,0-0.1,0-0.1c0,0,0-0.1,0-0.1c0,0,0-0.1,0-0.1c0,0,0-0.1,0-0.1 c0,0,0-0.1,0-0.1c0,0,0-0.1,0-0.1C176.7,50.7,176.7,50.7,176.7,50.6z M173.9,42.6c0.5,0.8,0.8,1.6,0.8,2.7c0.4-0.5,0.8-0.7,1.3-0.7 c-0.3-1.3-0.3-1.3-0.5-2.4c0-0.1,0-0.1,0-0.2C175.1,42.8,174.6,42.9,173.9,42.6z M173.6,56.9c0,0.3,0,0.3-0.1,1.1 c0.5-0.2,0.8-0.4,1.2-0.6c0,0,0-0.1,0-0.1c0,0,0-0.1,0-0.1c0,0,0-0.1,0-0.1c0,0,0,0,0,0c0,0,0-0.1,0-0.1c0,0,0-0.1,0-0.1 c0,0,0-0.1,0-0.1c0,0,0-0.1,0-0.1c0,0,0-0.1,0-0.1c0,0,0-0.1,0-0.1c0,0,0-0.1,0-0.1c0,0,0-0.1,0-0.1c0,0,0-0.1,0-0.1 c0,0,0-0.1,0-0.1c0,0,0-0.1,0-0.1c0,0,0-0.1,0-0.1c0,0,0-0.1,0-0.1c-0.4,0.1-0.8,0.2-1.2,0.3C173.6,56.6,173.6,56.6,173.6,56.9z  M172.4,47.4c0.5,0.8,0.6,1.6,0.6,2.7c0.6-0.6,1-0.7,1.5-0.6c-0.2-0.6-0.3-1.3-0.3-2.4c0,0,0-0.1,0-0.1 C173.6,47.5,173.1,47.6,172.4,47.4z M170.3,52.1c0.2,0.5,0.4,0.9,0.4,1.4c0,0.5,0,1-0.2,1.7c0.7-0.7,1.2-0.9,1.9-0.8 c-0.2-0.6-0.3-1.4-0.2-2.5c0-0.1,0-0.1,0-0.2C171.5,52.3,170.9,52.4,170.3,52.1z M172.4,59.9c-0.8,0.4-0.8,0.4-0.9,0.4 c-0.2,0-0.2,0-1-0.1c0.3,0.7,0.4,1.6-0.3,3.1c0.6-0.6,1.3-1.1,2.1-0.9c0,0,0,0,0,0C172.2,61.2,172.2,61.2,172.4,59.9z M174.3,65.4 C174.3,65.4,174.3,65.4,174.3,65.4c0-0.9,0-0.9,0.3-2.4c-0.5,0.4-1,0.6-1.6,0.4c0.2,0.9,0,1.6-0.5,2.8 C173.2,65.6,173.7,65.3,174.3,65.4z M176.4,65.7c-0.5,0.5-0.9,0.8-1.5,0.6c0.1,0.7,0,1.4-0.7,2.7c0.7-0.7,1.2-1,1.7-0.8c0,0,0,0,0,0 C175.8,67.3,176,66.5,176.4,65.7z M177,58.8C176.9,58.8,176.9,58.8,177,58.8c-0.1,0-0.1,0-0.1,0.1c0,0,0,0-0.1,0c0,0,0,0-0.1,0 c0,0,0,0-0.1,0c0,0,0,0-0.1,0c0,0,0,0-0.1,0c0,0,0,0-0.1,0c0,0,0,0-0.1,0c0,0,0,0-0.1,0c0,0,0,0-0.1,0c0,0,0,0-0.1,0c0,0,0,0-0.1,0 c0,0,0,0-0.1,0c0,0,0,0-0.1,0c0,0,0,0-0.1,0c-0.1,0.7-0.1,1.2-0.2,1.8c0.3-0.2,0.6-0.3,1-0.5c0,0,0-0.1,0-0.1c0,0,0-0.1,0-0.1 c0,0,0-0.1,0-0.1c0,0,0-0.1,0-0.1c0,0,0-0.1,0-0.1c0,0,0-0.1,0-0.1c0,0,0-0.1,0-0.1c0,0,0-0.1,0-0.1c0,0,0-0.1,0-0.1 c0,0,0-0.1,0-0.1c0,0,0-0.1,0-0.1c0,0,0-0.1,0-0.1c0,0,0-0.1,0-0.1c0,0,0-0.1,0-0.1c0,0,0-0.1,0-0.1C177,58.8,177,58.8,177,58.8z  M180.4,43.9c0.3,0.7,0.4,1.4,0.5,2.4c0.2-0.5,0.4-0.6,0.8-0.5c-0.2-0.7-0.4-1.3-0.5-2.6c0,0,0-0.1,0-0.1 C181,43.9,180.7,43.9,180.4,43.9z M180.7,56.9C180.6,56.9,180.6,56.9,180.7,56.9C180.6,56.9,180.6,56.9,180.7,56.9 c-0.1,0.1-0.1,0.1-0.1,0.1c0,0,0,0,0,0c0,0,0,0,0,0c0,0,0,0,0,0c0,0,0,0,0,0c0,0,0,0,0,0c0,0,0,0,0,0c0,0,0,0,0,0c0,0,0,0,0,0 c0,0,0,0,0,0c0,0,0,0,0,0c0,0,0,0,0,0c0,0,0,0,0,0c0,0.6-0.1,1.1-0.2,1.7c0.2-0.1,0.4-0.2,0.7-0.4c0,0,0,0,0,0 C180.7,58,180.7,57.5,180.7,56.9C180.7,56.8,180.7,56.8,180.7,56.9z M179.8,49.1c0,0,0,0.1,0,0.1c0,0,0,0.1,0,0.1c0,0,0,0.1,0,0.1 c0,0,0,0.1,0,0.1c0,0,0,0.1,0,0.1c0,0,0,0.1,0,0.1c0,0,0,0.1,0,0.1c0,0,0,0.1,0,0.1c0,0,0,0.1,0,0.1c0,0,0,0.1,0,0.1 c0,0,0,0.1,0,0.1c0,0,0,0.1,0,0.1c0,0,0,0.1,0,0.1c0,0,0,0.1,0,0.1c0,0,0,0.1,0,0.1c0,0,0,0.1,0,0.1c0,0,0,0,0,0c0,0,0,0,0,0 c0,0,0,0,0,0c0,0,0,0,0,0c0,0,0,0,0,0c0,0,0,0,0,0c0,0,0,0,0,0c0,0,0,0,0,0c0,0,0,0,0,0c0,0,0,0,0,0c0,0,0,0,0,0c0,0,0,0,0,0 c0,0,0,0,0,0c0,0,0,0,0,0c0,0,0,0,0,0c0,0,0,0,0,0c0-0.2-0.1-0.9-0.1-1.7c0,0,0,0,0-0.1C180.2,48.8,180,48.9,179.8,49.1z  M177.8,40.9c0.4,0.8,0.7,1.5,0.8,2.5c0.3-0.5,0.6-0.7,1-0.6c-0.3-0.6-0.5-1.4-0.7-2.6c0,0,0-0.1,0-0.1 C178.8,40.9,178.4,41.1,177.8,40.9z M178.3,55.5C178.3,55.5,178.3,55.5,178.3,55.5C178.3,55.6,178.3,55.6,178.3,55.5 c0,0.1,0,0.1,0,0.1c0,0,0,0,0,0c0,0,0,0,0,0s0,0,0,0c0,0,0,0,0,0c0,0,0,0,0,0c0,0,0,0,0,0c0,0,0,0,0,0c0,0,0,0,0,0c0,0,0,0,0,0 c0,0,0,0,0,0c0,0,0,0,0,0c0,0,0,0,0,0c0,0,0,0,0,0c0,0,0,0,0,0c0,0,0,0,0,0c0,0,0,0,0,0c0,0,0,0,0,0c0,0,0,0,0,0c0,0,0,0,0,0 c0,0,0,0,0,0c0,0,0,0,0,0c0,0,0,0,0,0c0,0,0,0,0,0c0,0,0,0,0,0c0,0,0,0,0,0c0,0,0,0,0,0c0,0,0,0,0,0c0,0,0,0,0,0c0,0,0,0,0,0 s0,0,0,0c0,0,0,0,0,0c0,0,0,0,0,0c0,0,0,0,0,0c0,0,0,0,0,0c0,0,0,0,0,0c0,0,0,0,0,0c0,0,0,0,0,0c0,0,0,0,0,0c0,0,0,0,0,0 c0,0,0,0,0,0c0,0,0,0,0,0c0,0,0,0,0,0c0,0,0,0,0,0c0,0,0,0,0,0c0,0,0,0,0,0c0,0,0,0,0,0c0,0,0,0,0,0c0,0,0,0,0,0c0,0,0,0,0,0 c0,0,0,0,0,0s0,0,0,0s0,0,0,0c0,0,0,0,0,0c0,0,0,0,0,0c0,0,0,0,0,0c0,0,0,0,0,0c0,0,0,0,0,0c0,0,0,0,0,0c0,0,0,0,0,0c0,0,0,0,0,0 c0,0,0,0,0,0c0,0,0,0,0,0c0,0,0,0,0,0c0,0,0,0,0,0c0,0,0,0,0,0c0,0,0,0,0,0c0,0,0,0,0,0c0,0,0,0,0,0c0,0,0,0,0,0c0,0,0,0,0,0 c0,0,0,0,0,0c0,0,0,0,0,0c0,0,0,0,0,0c0,0,0,0,0,0c0,0,0,0,0,0c0,0,0,0,0,0c0,0,0,0,0,0c0,0,0,0,0,0c0,0,0,0,0,0c0,0,0,0,0,0 c0,0,0,0,0,0c0,0,0,0,0,0c0,0,0,0,0,0c0,0,0,0,0,0c0,0,0,0,0,0c0,0,0,0,0,0c0,0,0,0,0,0s0,0,0,0c0,0,0,0,0,0c0,0,0,0,0,0 c0,0,0,0,0,0c0,0,0,0,0,0C178.3,55.4,178.3,55.4,178.3,55.5C178.3,55.4,178.3,55.4,178.3,55.5C178.3,55.5,178.3,55.5,178.3,55.5z  M177.2,46c0.1,0.6,0.3,1.1,0.4,1.8c0,0,0,0,0.1,0c0,0,0,0,0.1,0c0,0,0,0,0.1,0c0,0,0,0,0.1,0c0,0,0,0,0.1,0c0,0,0,0,0.1,0 c0,0,0,0,0.1,0c0,0,0,0,0.1,0c0,0,0,0,0.1,0c0,0,0,0,0.1,0c0,0,0,0,0.1,0c0,0,0,0,0.1,0c0,0,0,0,0.1,0c0,0,0,0,0.1,0s0,0,0.1,0 c0,0,0,0,0.1,0c0-0.2-0.1-0.9-0.2-1.7c0,0,0-0.1,0-0.1c0,0,0,0-0.1,0c0,0,0,0-0.1,0c0,0,0,0-0.1,0c0,0,0,0-0.1,0c0,0,0,0-0.1,0 c0,0,0,0-0.1,0c0,0,0,0-0.1,0c0,0,0,0-0.1,0c0,0,0,0-0.1,0c0,0,0,0-0.1,0c0,0,0,0-0.1,0c0,0,0,0-0.1,0c0,0,0,0-0.1,0c0,0,0,0-0.1,0 C177.3,45.9,177.3,46,177.2,46C177.3,46,177.2,46,177.2,46z M178.4,63.5C178.4,63.5,178.4,63.5,178.4,63.5c0.1-0.7,0.2-1.2,0.3-1.9 c0,0,0,0-0.1,0c0,0,0,0-0.1,0c0,0,0,0-0.1,0c0,0,0,0-0.1,0c0,0,0,0-0.1,0c0,0,0,0-0.1,0c0,0,0,0-0.1,0c0,0,0,0-0.1,0c0,0,0,0-0.1,0 c0,0,0,0-0.1,0c0,0,0,0-0.1,0c0,0,0,0-0.1,0c0,0,0,0-0.1,0c0,0,0,0-0.1,0c0,0,0,0-0.1,0c0,0,0,0-0.1,0c-0.1,0.7-0.3,1.3-0.4,2 C177.5,63.9,177.9,63.5,178.4,63.5z M179.9,63.8c-0.4,0.6-0.8,0.8-1.1,0.7c-0.1,0.9-0.3,1.6-0.8,2.8c0.6-0.8,1-1.1,1.3-0.8 c0,0,0,0,0,0C179.3,65.7,179.5,64.8,179.9,63.8z M181.9,59c-0.3,0.6-0.6,0.8-0.9,0.8c0,0.8-0.2,1.6-0.5,2.5c0.4-0.6,0.7-0.9,0.9-0.6 c0,0,0,0,0,0C181.5,60.9,181.6,60.2,181.9,59z M182.2,53.6c-0.1-0.9-0.1-1.6,0-2.2c-0.2,0.3-0.4,0.5-0.6,0.7c0,0,0,0.1,0,0.1 c0,0,0,0.1,0,0.1c0,0,0,0.1,0,0.1c0,0,0,0.1,0,0.1c0,0,0,0.1,0,0.1c0,0,0,0.1,0,0.1c0,0,0,0.1,0,0.1c0,0,0,0.1,0,0.1 c0,0,0,0.1,0,0.1c0,0,0,0.1,0,0.1c0,0,0,0.1,0,0.1c0,0,0,0.1,0,0.1c0,0,0,0.1,0,0.1c0,0,0,0,0,0c0,0,0,0.1,0,0.1c0,0,0,0.1,0,0.1 c0,0,0,0.1,0,0.1C181.7,53.9,181.9,53.8,182.2,53.6C182.2,53.6,182.2,53.6,182.2,53.6z M182.3,46.8c0.2,0.8,0.3,1.5,0.3,2.5 c0.4-0.5,0.4-0.5,0.7-0.5c-0.2-0.8-0.3-1.5-0.3-2.9h0c0,0,0-0.1,0-0.1C182.8,46.7,182.5,46.8,182.3,46.8z M183.3,53.8 c-0.3,1-0.5,1-0.7,1c0,0.9,0,1.7-0.2,2.6c0.4-0.6,0.4-0.6,0.7-0.6c0,0,0,0,0,0C183.1,56,183.2,55.1,183.3,53.8z M184.1,55 c-0.2,0.7-1,4.8-0.9,5.2c0-0.1,0.1-0.1,0.2-0.7l0.4-2.1l0.3-1.7C184.2,55,184.1,54.9,184.1,55C184.1,54.9,184.1,55,184.1,55z  M183.1,59.8C183,59.8,183,59.8,183.1,59.8C183,59.9,183,59.9,183.1,59.8C183,59.9,183,59.9,183.1,59.8 C183,59.9,183,59.9,183.1,59.8C183,59.9,183,59.9,183.1,59.8C183,59.9,183,59.9,183.1,59.8C183,59.9,183,59.9,183.1,59.8 C183,59.9,183,59.9,183.1,59.8C183,59.9,183,59.9,183.1,59.8c-0.6,1-1.7,4.7-1.5,5.1c0.2-0.1,0.7-1.6,1.1-2.9 C182.8,61.5,183.2,60.1,183.1,59.8C183.1,59.8,183.1,59.8,183.1,59.8z M181.2,66.3l-0.3,0.8C180.9,66.9,181,66.6,181.2,66.3z  M171.2,41.2L171.2,41.2c-0.3-1.3-1.3-2.4-2.4-2.2c-1.8,0.7-1.4,4.1,0.3,5c0.7,0.4,1.8,0.2,2.2-0.8c0,0,0-0.1,0-0.1 C171.4,42.7,171.4,42,171.2,41.2z M169.5,67.4C169.5,67.4,169.5,67.4,169.5,67.4c-0.5-0.3-0.7-0.4-1.3-0.3c-1.7,0.4-3,2.8-2.3,4.2 c0.7,1.4,3,0.2,3.7-1.9C169.9,68.6,169.8,68.2,169.5,67.4C169.6,67.5,169.6,67.4,169.5,67.4L169.5,67.4 C169.5,67.4,169.5,67.4,169.5,67.4z M149,91.6c0.1-0.2,0.2-0.5-0.4-0.4c-0.7,0.1-1.3,0.5-1.3,0.8C147.2,92.4,148.5,92.2,149,91.6 C149,91.6,149,91.6,149,91.6z M143.2,94.8l0.2,0c0,0,0,0,0,0C143.3,94.8,143.3,94.8,143.2,94.8z M147.9,94.1l0.7-0.2 c0,0,0.1,0,0.2-0.1c0.4-0.1,0.5-0.1,0.5-0.2c0,0,0,0-0.1,0C148.9,93.8,148,94.1,147.9,94.1z M149.8,93.2 C149.8,93.2,149.8,93.2,149.8,93.2C149.8,93.2,149.8,93.2,149.8,93.2C149.8,93.2,149.8,93.2,149.8,93.2 C149.8,93.2,149.8,93.2,149.8,93.2C149.8,93.2,149.8,93.2,149.8,93.2C149.8,93.2,149.8,93.2,149.8,93.2 C149.8,93.2,149.8,93.2,149.8,93.2C149.8,93.2,149.8,93.2,149.8,93.2c-0.5,0.1-1.2,0.4-1.3,0.5c-0.1,0.1,0.1,0,0.2,0c0,0,0,0,0,0 c0,0,0,0,0,0c0,0,0,0,0,0c0,0,0,0,0,0c0,0,0,0,0,0c0,0,0,0,0,0c0,0,0,0,0,0c0,0,0,0,0,0c0.3-0.1,0.8-0.2,1-0.3 c0.2-0.1,0.3-0.2,0.3-0.2C150,93.1,149.8,93.2,149.8,93.2z M153,92.5c-0.5,0.1-1.7,0.6-1.8,0.7c0,0,0,0,0,0c0.1,0,0.8-0.2,1.3-0.4 c0.4-0.1,0.6-0.2,0.6-0.3C153.1,92.5,153.1,92.5,153,92.5z M152.8,89.7c0.2-0.3,0.3-0.7-0.5-0.6c-0.9,0.1-1.7,0.8-1.7,1.2 C150.5,90.9,152.1,90.5,152.8,89.7C152.8,89.7,152.8,89.7,152.8,89.7z M143.7,91.6c-0.5,0-0.9,0.3-0.9,0.6c0.1,0.4,1.1,0.3,1.4-0.1 C144.4,91.8,144.1,91.6,143.7,91.6z M145.6,93.1C145.6,93.1,145.6,93.1,145.6,93.1c0.1-0.2,0.1-0.3-0.3-0.3c-0.3,0-0.7,0.2-0.8,0.3 c-0.1,0.1-0.1,0.3,0.3,0.3c0,0,0,0,0,0c0,0,0,0,0,0c0,0,0,0,0,0c0,0,0,0,0,0c0,0,0,0,0,0c0,0,0,0,0,0c0,0,0,0,0,0c0,0,0,0,0,0 C145.2,93.4,145.4,93.2,145.6,93.1L145.6,93.1z M146.4,94.2c-0.4,0.1-0.8,0.2-0.9,0.2c0,0,0,0,0,0C145.5,94.5,146,94.4,146.4,94.2 c0.1,0.1,0.1,0,0.1,0C146.5,94.2,146.5,94.2,146.4,94.2z M146.4,93.8c0,0,0.1-0.1-0.2-0.1c-0.4,0-0.9,0.3-0.9,0.4c0,0.1,0.7,0,1-0.2 C146.3,93.8,146.4,93.8,146.4,93.8z M168.9,83c0.1-0.2-0.1-0.1-0.2-0.1c-0.9,0.5-2.8,2.4-2.7,2.6c0.2,0.1,1.3-0.8,2.1-1.5v0 C168.6,83.4,168.8,83.1,168.9,83z M164.7,86.9C164.7,86.8,164.7,86.8,164.7,86.9C164.8,86.8,164.8,86.8,164.7,86.9 C164.8,86.8,164.8,86.8,164.7,86.9C164.8,86.8,164.8,86.8,164.7,86.9C164.8,86.8,164.8,86.8,164.7,86.9 C164.8,86.8,164.8,86.8,164.7,86.9C164.8,86.8,164.8,86.8,164.7,86.9C164.8,86.8,164.8,86.8,164.7,86.9 C164.8,86.8,164.8,86.8,164.7,86.9c0.5-0.3,1.2-0.8,1.8-1.3c0.1-0.1,1.1-0.8,1.1-0.9c0,0,0,0-0.1,0.1 C166.9,85,164.7,86.8,164.7,86.9z M165.1,86c0.1-0.1-0.1-0.1-0.2,0c-0.9,0.4-2.6,1.8-2.6,2c0,0.2,1.1-0.5,2-1.2 C164.8,86.4,165,86.1,165.1,86z M168.3,84.1c0.2-0.1,1-0.9,1.8-1.6c0.1-0.1,1.1-1,1.1-1.2c0,0,0,0-0.1,0.1 C170.6,81.8,168.3,84,168.3,84.1z M153.7,91.7c0.1-0.1,0.1-0.2-0.2-0.1c-0.6,0.1-1.7,0.7-1.8,0.9c0,0.2,1-0.2,1.6-0.5 C153.6,91.9,153.7,91.8,153.7,91.7z M163.6,87.4c-0.4,0.2-2.6,1.6-2.7,1.7c0.1,0,1.1-0.6,1.8-1c0.1-0.1,0.9-0.6,1-0.7c0,0,0,0,0,0 C163.7,87.4,163.7,87.4,163.6,87.4z M161.1,88.6c0.1-0.1-0.1-0.1-0.2,0c-0.7,0.2-2.4,1.4-2.4,1.6c0.1,0.1,1.2-0.5,1.9-0.9 C160.8,88.9,161,88.7,161.1,88.6z M156.9,90.8C156.9,90.8,156.9,90.8,156.9,90.8C156.9,90.8,156.9,90.8,156.9,90.8 C156.9,90.8,156.9,90.8,156.9,90.8C156.9,90.8,156.9,90.8,156.9,90.8C156.9,90.8,156.9,90.8,156.9,90.8 C156.9,90.8,156.9,90.8,156.9,90.8C156.9,90.8,156.9,90.8,156.9,90.8C156.9,90.8,156.9,90.8,156.9,90.8c-0.7,0.2-2,1-2.2,1.1 c0,0,0,0,0,0c0.1,0,1-0.4,1.6-0.7c0.2-0.1,0.7-0.4,0.7-0.5C157,90.7,157,90.7,156.9,90.8z M153.5,92.6l1-0.4c0.1,0,0.2-0.1,0.3-0.1 c0.2-0.1,0.8-0.3,0.8-0.4c0,0,0,0-0.1,0C155.3,91.8,153.5,92.6,153.5,92.6z M159.7,89.8C159.7,89.8,159.7,89.8,159.7,89.8 C159.7,89.8,159.7,89.8,159.7,89.8C159.7,89.8,159.7,89.8,159.7,89.8C159.7,89.8,159.7,89.8,159.7,89.8 C159.7,89.8,159.7,89.8,159.7,89.8C159.7,89.8,159.7,89.8,159.7,89.8C159.7,89.8,159.7,89.8,159.7,89.8 C159.7,89.8,159.7,89.8,159.7,89.8c-0.4,0.2-2.4,1.2-2.5,1.3c0,0,0,0,0.1,0c0,0,0,0,0,0c0,0,0,0,0,0c0,0,0,0,0,0c0,0,0,0,0,0 s0,0,0,0c0,0,0,0,0,0c0,0,0,0,0,0c0,0,0,0,0,0c0.3-0.1,1-0.4,1.6-0.7c0.1-0.1,0.8-0.4,0.9-0.5c0,0,0,0,0,0 C159.7,89.8,159.7,89.8,159.7,89.8z M164.4,11.2c-0.1-0.1-0.6-0.4-1.1-0.7c-0.2-0.1-0.7-0.4-0.8-0.5c0,0,0,0,0,0 C162.6,10.1,164.3,11.1,164.4,11.2z M153.6,7.1c0.1,0.1,1.8,0.7,1.9,0.7c0,0,0,0,0,0c-0.1-0.1-0.5-0.3-0.9-0.4 C154.3,7.2,153.7,7,153.6,7.1z M156.8,11.2c1.2,0.7,1.5,0.7,1.6,0.7c0.3,0-0.2-0.5-1-0.9c-0.6-0.4-1.5-0.7-1.6-0.6 C155.6,10.5,156.8,11.2,156.8,11.2z M153.5,6.5C153.5,6.5,153.5,6.5,153.5,6.5C153.5,6.5,153.5,6.5,153.5,6.5 C153.5,6.5,153.5,6.5,153.5,6.5L153.5,6.5C153.5,6.5,153.5,6.5,153.5,6.5L153.5,6.5c0.1,0.1,1.2,0.4,1.3,0.4c0-0.1-0.4-0.2-0.6-0.2 C153.9,6.5,153.5,6.4,153.5,6.5C153.5,6.5,153.5,6.5,153.5,6.5L153.5,6.5C153.5,6.5,153.5,6.5,153.5,6.5z M153.2,5.9c0,0,0,0-0.2,0 c0.2,0.1,0.2,0.1,0.5,0.1C153.3,6,153.2,5.9,153.2,5.9z M155.3,9.5c0.1,0-0.3-0.3-0.9-0.6c-0.6-0.3-1.4-0.5-1.5-0.5 C152.8,8.6,155,9.6,155.3,9.5z M153.4,7.7c0,0.1,0.8,0.4,1.2,0.6c0.4,0.1,1,0.4,1.1,0.3c0-0.1-0.5-0.3-1-0.5 C154.1,7.9,153.5,7.7,153.4,7.7C153.4,7.7,153.4,7.7,153.4,7.7z M158.9,8C158.9,8,158.9,8,158.9,8C158.9,8,158.9,8,158.9,8 C158.9,8,158.9,8,158.9,8C158.9,8,158.9,8,158.9,8C158.9,8,158.9,8,158.9,8C158.9,8,158.9,8,158.9,8C158.9,8,158.9,8,158.9,8 c0.1,0.1,1.2,0.6,1.3,0.6c0,0,0,0,0,0c0,0,0,0,0,0c0,0,0,0,0,0c0,0,0,0,0,0c0,0,0,0,0,0c0,0,0,0,0,0c0,0,0,0,0,0c0,0,0,0,0,0 c0,0,0,0,0,0c-0.1-0.1-0.5-0.3-0.8-0.4C159.3,8.2,159,8,158.9,8C158.9,8,158.9,8,158.9,8C158.9,8,158.9,8,158.9,8z M157.8,7.7 C157.8,7.7,157.8,7.7,157.8,7.7c-0.1-0.1-0.4-0.2-0.7-0.3c-0.3-0.1-0.6-0.2-0.7-0.2c0,0,0,0,0,0c0,0,0,0,0,0 C156.5,7.2,157.7,7.7,157.8,7.7z M160,8.9C160,8.9,160,8.9,160,8.9c0.2,0.2,1.8,1,2,1c0,0,0,0,0,0c-0.1-0.1-0.6-0.4-1.1-0.6 C160.5,9.1,160.1,8.9,160,8.9C160,8.9,160,8.9,160,8.9z M156.9,7.9C156.9,7.9,156.9,7.9,156.9,7.9c0.2,0.2,2,0.9,2,0.9 c0-0.1-0.5-0.3-1-0.5C157.6,8.1,157,7.9,156.9,7.9z M147.3,5.6c0,0-0.3-0.1-0.3-0.1c-0.2,0-0.2,0-0.7-0.1 C147.2,5.6,147.3,5.6,147.3,5.6z M151.2,8.1c0-0.1-0.5-0.3-0.9-0.4c-0.5-0.2-1.2-0.4-1.3-0.4c0,0,0,0,0,0 C149.1,7.5,151.2,8.3,151.2,8.1z M146.8,5.2c0,0-0.1,0-0.1,0c0,0-0.1,0-0.1,0C146.6,5.2,146.8,5.2,146.8,5.2 C146.8,5.2,146.8,5.2,146.8,5.2z M154.4,10.3c0.2,0-0.2-0.4-0.9-0.7c-0.6-0.3-1.4-0.6-1.6-0.6c0,0,0,0,0,0 C151.9,9.2,154,10.3,154.4,10.3z M171.6,39.6C171.6,39.6,171.6,39.6,171.6,39.6C171.6,39.6,171.6,39.6,171.6,39.6 C171.6,39.6,171.6,39.6,171.6,39.6C171.6,39.6,171.6,39.6,171.6,39.6C171.6,39.6,171.6,39.6,171.6,39.6 C171.6,39.6,171.6,39.6,171.6,39.6C171.6,39.6,171.6,39.6,171.6,39.6C171.6,39.6,171.6,39.6,171.6,39.6c1.1-0.5,0.9-2,0.7-2.8 c-0.3-1.1-1.3-2.4-2.5-2.2c0,0,0,0,0,0c0,0,0,0,0,0c0,0,0,0,0,0c0,0,0,0,0,0c0,0,0,0,0,0c0,0,0,0,0,0c0,0,0,0,0,0c0,0,0,0,0,0 c-0.1,0.1-0.4,0.2-0.6,0.5C168.4,36.7,169.8,40,171.6,39.6z M150.3,8.7c0.1,0-0.2-0.2-0.7-0.5c-0.5-0.2-1.2-0.5-1.3-0.4c0,0,0,0,0,0 C148.3,8,150.1,8.8,150.3,8.7z M150,6.4c0.1,0.1,1.7,0.5,1.8,0.5c0-0.1-0.4-0.2-0.8-0.3C150.5,6.5,150,6.4,150,6.4z M150.1,5.9 c0,0,0.9,0.3,1.1,0.2c0,0,0,0,0,0c0,0-0.4-0.1-0.5-0.2C150.5,6,150.1,5.9,150.1,5.9z M151.7,7.5c0-0.1-0.4-0.2-0.9-0.4 c-0.5-0.2-1.1-0.3-1.2-0.3c0,0,0,0,0,0c0,0.1,1.1,0.4,1.1,0.4C151.1,7.4,151.6,7.6,151.7,7.5z M150.3,5.5 C150.2,5.5,150.2,5.5,150.3,5.5L150.3,5.5c-0.2,0-0.3-0.1-0.3-0.1c0.1,0,0.1,0,0.2,0C150.1,5.5,150.2,5.5,150.3,5.5z M174.7,29 c0.8,0.2,0.7-1-0.2-2.4c-0.5-0.9-1.5-1.9-2.1-1.6C171.8,25.5,173.5,28.7,174.7,29z M178.2,36.2c0.8,0.2,0.9-1.2,0.2-2.8 c-0.4-1-1.3-2.3-2-1.9c0,0,0,0,0,0c0,0,0,0,0,0c0,0,0,0,0,0c0,0,0,0,0,0c0,0,0,0,0,0c0,0,0,0,0,0c0,0,0,0,0,0c0,0,0,0,0,0 C175.6,32.3,177.1,35.9,178.2,36.2z M177.6,31.6c0.7,0.2,0.5-1.1-0.2-2.5c-0.5-0.9-1.4-2.1-1.9-1.7c0,0,0,0,0,0c0,0,0,0,0,0 c0,0,0,0,0,0c0,0,0,0,0,0c0,0,0,0,0,0c0,0,0,0,0,0c0,0,0,0,0,0c0,0,0,0,0,0C175,28.1,176.7,31.3,177.6,31.6z M180.1,34.2 c0.5,0.2,0.3-1.2-0.3-2.7c-0.5-1.1-1.3-2.1-1.6-1.8c0,0,0,0,0,0c0,0,0,0,0,0c0,0,0,0,0,0c0,0,0,0,0,0c0,0,0,0,0,0c0,0,0,0,0,0 c0,0,0,0,0,0c0,0,0,0,0,0C177.8,30.5,179.4,33.9,180.1,34.2z M182.2,34.6C182.2,34.5,182.1,34.5,182.2,34.6 C182.1,34.5,182.1,34.5,182.2,34.6C182.1,34.5,182.1,34.5,182.2,34.6C182.1,34.5,182.1,34.5,182.2,34.6 C182.1,34.5,182.1,34.5,182.2,34.6C182.1,34.5,182.1,34.5,182.2,34.6C182.1,34.5,182.1,34.5,182.2,34.6 C182.1,34.5,182.1,34.5,182.2,34.6C182.1,34.5,182.1,34.5,182.2,34.6c-0.1-0.2-0.1-0.2-0.1-0.3l-0.1-0.2c-0.4-1-0.9-2.4-1.3-3.4 c-0.1-0.3-0.2-0.3-0.2-0.4c0,0,0,0.1,0,0.1C180.6,30.7,182,34.3,182.2,34.6z M182,36.8c0.4,0.2,0.2-1.2-0.4-2.8 c-0.4-1.2-1-2.2-1.2-1.8C180.2,33.1,181.5,36.5,182,36.8z M147.6,6.1c0,0-0.3-0.1-0.6-0.2c-0.2,0-0.7-0.1-0.7-0.1 C146.2,5.8,147.5,6.1,147.6,6.1z M172.6,32.5c-0.4-0.9-1.4-2.3-2.4-2c0,0,0,0,0,0c0,0,0,0,0,0c0,0,0,0,0,0c0,0,0,0,0,0c0,0,0,0,0,0 c0,0,0,0,0,0c0,0,0,0,0,0c0,0,0,0,0,0c-0.1,0.1-0.3,0.1-0.4,0.4c-0.7,1.3,0.9,4.7,2.5,4.2c0,0,0,0,0,0s0,0,0,0s0,0,0,0c0,0,0,0,0,0 c0,0,0,0,0,0c0,0,0,0,0,0c0,0,0,0,0,0c0,0,0,0,0,0C173.2,34.6,172.9,33.2,172.6,32.5z M116.8,63.5C116.8,63.5,116.8,63.5,116.8,63.5 c-0.1,0-0.1,0.1-0.1,0.1c0,0,0,0.1,0.1,0.2c0,0,0,0,0,0c0,0,0,0,0,0c0.1,0,0.1,0,0.2-0.1c0,0,0,0,0,0 C117,63.6,116.9,63.6,116.8,63.5C116.8,63.5,116.8,63.5,116.8,63.5z M175.7,33.4C175.7,33.4,175.7,33.4,175.7,33.4 C175.7,33.4,175.7,33.4,175.7,33.4C175.7,33.4,175.7,33.4,175.7,33.4C175.7,33.4,175.7,33.4,175.7,33.4 C175.7,33.4,175.7,33.4,175.7,33.4C175.7,33.4,175.7,33.4,175.7,33.4C175.7,33.4,175.7,33.4,175.7,33.4 C175.7,33.4,175.7,33.4,175.7,33.4c0.6-0.5,0.2-1.9-0.2-2.6c-0.5-1-1.5-2.2-2.2-1.9c-0.1,0.1-0.1,0.1-0.2,0.3 C172.6,30.4,174.4,34,175.7,33.4z M179,27.2l-0.3-0.5c0.1,0.2,0.2,0.5,0.4,0.7L179,27.2z M166.7,13.6c0.1,0.3,2.3,2.1,2.6,2.1 c0.1-0.1-0.6-0.8-1.3-1.3C167.3,13.9,166.6,13.5,166.7,13.6z M163.4,11.1c0.1,0.2,2.2,1.6,2.4,1.5c0,0,0,0,0,0c0,0,0,0,0,0 c0,0,0,0,0,0c0,0,0,0,0,0c0,0,0,0,0,0c0,0,0,0,0,0c0,0,0,0,0,0s0,0,0,0s0,0,0,0c-0.1-0.2-0.7-0.6-1.2-0.9 C164.1,11.3,163.5,11,163.4,11.1C163.4,11,163.4,11,163.4,11.1z M171.7,17.5c0-0.1-0.7-0.8-1.3-1.4c-0.1-0.1-1-0.9-1.1-0.9 c0,0,0,0,0,0C169.5,15.6,171.5,17.5,171.7,17.5z M168.2,14.1C168.2,14.1,168.2,14.1,168.2,14.1C168.2,14.1,168.2,14.1,168.2,14.1 C168.2,14.1,168.2,14.1,168.2,14.1C168.2,14.1,168.2,14.1,168.2,14.1C168.2,14.1,168.2,14.1,168.2,14.1 C168.2,14.1,168.2,14.1,168.2,14.1C168.2,14.1,168.2,14.1,168.2,14.1C168.2,14.1,168.2,14.1,168.2,14.1 C168.2,14.1,168.2,14.1,168.2,14.1c-0.3-0.3-0.9-0.8-1.3-1.1c0,0-0.9-0.7-1-0.7c0,0,0,0,0,0C166.2,12.6,168.1,14.1,168.2,14.1z  M171.3,16.9C171.3,16.9,171.3,16.9,171.3,16.9l2.2,2.4C173.3,19,172.7,18.4,171.3,16.9z M176.6,23.3c0,0,0-0.1-0.4-0.6l-1.2-1.6 c-0.3-0.4-0.6-0.8-0.7-0.8c0,0,0,0,0,0.1C174.5,20.6,176.4,23.2,176.6,23.3z M178.7,26.8c-0.1-0.1-0.1-0.3-0.2-0.4L178.7,26.8z  M179.1,27.5l1,2C179.9,28.9,179.5,28.2,179.1,27.5z M179,27.6c0-0.2-0.6-1.3-1.2-2.2c-0.1-0.2-0.9-1.4-1.1-1.4c0,0,0,0,0,0.1 C176.9,24.3,178.8,27.5,179,27.6z M175.6,38C175.6,38,175.6,38,175.6,38C175.6,38,175.6,38,175.6,38C175.6,38,175.6,38,175.6,38 C175.6,38,175.6,38,175.6,38C175.6,38,175.6,38,175.6,38C175.6,38,175.6,38,175.6,38C175.6,38,175.6,38,175.6,38 C175.6,38,175.6,38,175.6,38c0.8-0.5,0.5-2,0.3-2.8c-0.4-1.1-1.4-2.4-2.3-2.1c-0.1,0.1-0.2,0.2-0.4,0.4 C172.6,35,174.1,38.5,175.6,38z M140.3,33.9c0.1-0.6-0.3-1.4-1.2-1.5c-1,0-1.5,1.5-0.8,2.3C139,35.5,140.2,35,140.3,33.9z  M139.9,26.8L139.9,26.8c0-0.4-0.2-1.1-0.8-1.1c-0.8,0-1.1,1.2-0.5,1.8C139,28,139.8,27.6,139.9,26.8z M137,17.7 c0-0.1,0.1-0.2,0.1-0.3c0,0,0-0.1,0-0.1c0-0.1-0.1-0.2-0.1-0.2c0,0-0.2,0.1-0.2,0.2c0,0,0,0,0,0.1C136.9,17.5,136.9,17.6,137,17.7z  M139.5,20.3c0-0.4-0.2-0.7-0.5-0.7c-0.5,0-0.6,0.8-0.3,1.1C139,21.1,139.5,20.9,139.5,20.3z M137,23.5c0-0.3-0.1-0.7-0.4-0.7 c0,0,0,0,0,0c0,0,0,0,0,0s0,0,0,0c0,0,0,0,0,0c0,0,0,0,0,0c0,0,0,0,0,0s0,0,0,0c0,0,0,0,0,0c-0.5,0-0.7,0.8-0.4,1.1 C136.4,24.2,136.9,24,137,23.5z M138.9,14.5c-0.1,0-0.1,0.1-0.1,0.2c0,0,0.1,0.2,0.1,0.2c0,0,0,0,0.1,0c0.1,0,0.1-0.1,0.1-0.1 c0,0,0,0,0,0C139.1,14.6,139,14.6,138.9,14.5C138.9,14.5,138.9,14.5,138.9,14.5z M138.7,5C138.7,5,138.7,5,138.7,5c0,0,0.1,0,0.1,0 C138.8,5,138.8,5,138.7,5z M138.8,5c0,0-0.1,0-0.1,0C138.7,5,138.8,5,138.8,5C138.8,5,138.8,5,138.8,5z M138.7,5 C138.7,5,138.7,5,138.7,5c0,0,0.1,0,0.2,0.1C138.8,5.1,138.8,5,138.7,5z M134,26.7c0.1-0.3,0-0.7-0.4-0.7c0,0,0,0,0,0c0,0,0,0,0,0 c0,0,0,0,0,0c0,0,0,0,0,0c0,0,0,0,0,0c0,0,0,0,0,0c0,0,0,0,0,0c0,0,0,0,0,0c-0.5,0-0.7,0.6-0.5,1C133.4,27.3,133.9,27.2,134,26.7z  M126.9,33.3c0-0.1,0-0.1,0-0.2c0-0.1-0.1-0.3-0.2-0.4c-0.1,0.1-0.3,0.3-0.3,0.4c-0.1,0.1-0.1,0.2,0,0.3 C126.5,33.7,126.9,33.6,126.9,33.3z M130.7,30c0.1-0.3-0.1-0.6-0.3-0.6c-0.4,0-0.6,0.5-0.4,0.8C130.1,30.5,130.5,30.4,130.7,30z  M128.2,26.3C128.3,26.3,128.3,26.3,128.2,26.3c0.1,0,0.1,0,0.2-0.1c0,0,0,0,0,0c0,0-0.1-0.1-0.1-0.1c0,0,0,0,0,0c0,0,0,0,0,0 c0,0-0.1,0-0.1,0.1C128.2,26.2,128.2,26.3,128.2,26.3C128.2,26.3,128.2,26.3,128.2,26.3z M122.8,36.7 C122.9,36.7,122.9,36.7,122.8,36.7c0.1-0.1,0.2-0.1,0.2-0.1c0,0,0,0,0,0c0,0,0,0-0.1-0.1c-0.1,0-0.1-0.1-0.1-0.1c0,0,0,0-0.1,0 c0,0-0.1,0.1-0.1,0.1C122.8,36.6,122.8,36.6,122.8,36.7C122.8,36.7,122.8,36.7,122.8,36.7z M138.7,5C138.7,5,138.7,5,138.7,5 c0,0,0.1,0,0.1,0C138.8,5,138.8,5,138.7,5z M134.5,20.4C134.5,20.4,134.5,20.4,134.5,20.4c0.1-0.1,0.1-0.1,0.2-0.2c0,0,0,0,0,0 c0,0-0.1-0.1-0.1-0.2c0,0,0,0-0.1,0c0,0,0,0,0,0s0,0,0,0c0,0,0,0,0,0c0,0,0,0,0,0s0,0,0,0c0,0,0,0,0,0c0,0,0,0,0,0s0,0,0,0 c0,0,0,0-0.1,0c0,0-0.1,0.1-0.1,0.1C134.4,20.2,134.4,20.3,134.5,20.4C134.5,20.4,134.5,20.4,134.5,20.4z M136.9,30.2 c0-0.4-0.2-1.1-0.8-1.1c-0.7,0-1.2,1.1-0.7,1.7C136,31.5,136.9,31.1,136.9,30.2z M133.6,33.7c0.1-0.4-0.1-1-0.7-1c0,0,0,0,0,0 c0,0,0,0,0,0c0,0,0,0,0,0c0,0,0,0,0,0c0,0,0,0,0,0c0,0,0,0,0,0c0,0,0,0,0,0c0,0,0,0,0,0c-0.8,0-1.1,1-0.7,1.6 C132.6,34.9,133.5,34.5,133.6,33.7z M131.7,23.2c0,0,0-0.1,0-0.1C131.6,23.1,131.6,23.1,131.7,23.2c-0.1-0.1-0.2,0-0.2,0 c0,0.1,0,0.1,0.1,0.2C131.7,23.2,131.7,23.2,131.7,23.2z M140.9,10C140.9,10,140.9,10,140.9,10C140.9,10,140.9,10,140.9,10 C141,9.9,141,9.9,140.9,10C141,9.9,141,9.9,140.9,10c0-0.1,0-0.1,0-0.1c0,0,0,0,0,0c0,0,0,0,0,0C140.9,9.9,140.9,9.9,140.9,10 C140.9,9.9,140.9,10,140.9,10z M142.9,5.4c-0.1,0-0.5-0.1-0.5-0.1c0,0,0.8,0.1,0.8,0.1C143.2,5.5,143.1,5.4,142.9,5.4z M142.8,5.2 c0,0,0.3,0,0.3,0c-0.1,0-0.1,0-0.2,0C142.9,5.2,142.8,5.2,142.8,5.2z M143,5c0,0-0.1,0-0.1,0c0,0-0.2,0-0.2,0C142.7,5,143,5,143,5z  M142.9,5.9c0,0-0.3-0.1-0.4-0.1c-0.3-0.1-0.6-0.1-0.6-0.1h0h0v0c0,0,0,0,0,0l0,0c0,0,0,0,0,0C141.9,5.7,142.8,5.9,142.9,5.9z  M143.2,5.7L143.2,5.7L143.2,5.7C143.2,5.7,143.2,5.7,143.2,5.7C143.2,5.7,143.2,5.7,143.2,5.7c0,0-0.3-0.1-0.5-0.1 c-0.2,0-0.5-0.1-0.6-0.1C142.1,5.5,143.1,5.7,143.2,5.7L143.2,5.7z M146.3,6.7c-0.4-0.1-0.9-0.3-1-0.2c0,0,0,0,0,0 C145.4,6.5,147,7,147,7C147,6.9,146.7,6.8,146.3,6.7z M143.1,7.3C143.1,7.3,143.1,7.3,143.1,7.3C143.1,7.3,143.1,7.3,143.1,7.3 L143.1,7.3C143.1,7.3,143.1,7.3,143.1,7.3C143.1,7.3,143.1,7.3,143.1,7.3C143.1,7.3,143.1,7.3,143.1,7.3L143.1,7.3 C143.1,7.3,143.1,7.3,143.1,7.3c-0.1,0.1,0.7,0.6,0.8,0.5c0.1,0-0.1-0.1-0.3-0.3v0C143.5,7.5,143.2,7.3,143.1,7.3L143.1,7.3z  M146.3,7.3c0-0.1-0.3-0.2-0.6-0.3c-0.4-0.2-0.9-0.3-1-0.3c0,0,0,0,0,0C144.8,6.8,146.2,7.4,146.3,7.3z M145.2,7.6 c0-0.1-0.4-0.3-0.4-0.3C144.5,7.2,144.1,7,144,7c0,0,0,0,0,0C144,7.1,145.2,7.7,145.2,7.6z M141.5,6.1c-0.1,0-0.4-0.1-0.4-0.1 c0,0,0.5,0.3,0.6,0.3C141.7,6.2,141.7,6.2,141.5,6.1z M140.2,12.1c0,0,0,0.1,0,0.1c0,0,0.1,0.1,0.1,0.1c0,0,0,0,0,0c0,0,0,0,0,0 c0,0,0-0.1,0-0.1c0,0,0,0,0,0C140.3,12.1,140.3,12.1,140.2,12.1C140.2,12,140.2,12,140.2,12.1C140.2,12,140.2,12,140.2,12.1z  M140.1,6.3C140.1,6.3,140.2,6.3,140.1,6.3C140.2,6.3,140.2,6.3,140.1,6.3L140.1,6.3C140.2,6.3,140.1,6.3,140.1,6.3 C140.1,6.2,140.1,6.3,140.1,6.3C140.1,6.3,140.1,6.3,140.1,6.3z M141.3,17.4c0-0.2-0.2-0.6-0.5-0.6c0,0,0,0,0,0 c-0.4,0-0.5,0.8-0.1,1.1C141,18.1,141.4,17.9,141.3,17.4z M138.8,5c0,0-0.1,0-0.1,0c0.1,0,0.2,0,0.2,0C138.9,5,138.8,5,138.8,5z  M141,8c0-0.1,0-0.1,0-0.1c0,0,0-0.1-0.1-0.1c0,0,0,0.1,0,0.1C140.9,7.9,140.9,8,141,8C140.9,8,140.9,8,141,8z M141,6.3 c0,0-0.1-0.1-0.1-0.1c0,0-0.1,0-0.1,0c0,0,0,0,0,0c0,0,0,0,0,0C140.9,6.2,140.9,6.3,141,6.3z M138.8,5C138.7,5,138.7,5,138.8,5 c0,0,0.1,0,0.2,0C138.9,5,138.8,5,138.8,5z M142.4,6.1c0,0-0.2-0.1-0.4-0.1c-0.2-0.1-0.5-0.1-0.5-0.1c0,0,0,0,0,0 C141.5,5.8,142.3,6.1,142.4,6.1z M147.5,6.5c0,0-0.4-0.2-0.7-0.2c-0.4-0.1-0.9-0.2-0.9-0.2C145.8,6.1,147.4,6.6,147.5,6.5z"></path><g>	<path class="st1" d="M29.7,62.8l-6.3-9H11.7v9H5.5V37.3h20.9c1.5,0,2.8,0.2,4,0.6c1.2,0.4,2.2,1,3,1.7c0.8,0.7,1.5,1.6,1.9,2.6  c0.5,1,0.7,2.2,0.7,3.4c0,4.1-1.9,6.6-5.8,7.7l6.5,9.5H29.7z M28.8,48c0.7-0.6,1.1-1.5,1.1-2.5c0-1-0.4-1.8-1.1-2.4  c-0.7-0.6-1.8-0.9-3.1-0.9h-14v6.8h14C27.1,48.9,28.1,48.6,28.8,48z"></path>	<path class="st1" d="M73.7,62.8h-7.3l-5.5-19.3h-0.1l-5.4,19.3h-7.3l-8.8-25.6h6.8L51.7,56h0.1L57,37.3h7.8L70,56h0.1l5.6-18.7h6.8  L73.7,62.8z"></path>	<path class="st1" d="M87.6,62.8V37.3h27.7v4.9H93.8v5.3h14.9v4.9H93.8v5.6h22.5v4.9H87.6z"></path>	<path class="st1" d="M140.6,42.3c-1.8-0.5-3.8-0.7-5.8-0.7c-2.7,0-4.7,0.2-6.1,0.7c-1.4,0.5-2,1.1-2,2c0,0.9,0.7,1.5,2.2,1.8  c0.6,0.1,1.3,0.2,2,0.3c0.7,0.1,1.5,0.1,2.3,0.2c0.8,0,1.7,0.1,2.6,0.1c0.9,0,1.9,0.1,2.8,0.2c2,0.2,3.7,0.5,5.2,0.8  c1.5,0.4,2.7,0.8,3.7,1.4c1,0.6,1.7,1.3,2.2,2.2c0.5,0.9,0.7,2,0.7,3.2c0,2.8-1.3,4.9-3.8,6.5s-6.2,2.3-11.1,2.3  c-3.2,0-6.2-0.4-8.9-1.1c-2.4-0.7-4.7-1.7-6.9-3.1c-0.4-0.3-0.5-0.9-0.2-1.3l2.8-3.4c2.2,1.3,4.4,2.3,6.6,3c2.2,0.6,4.5,1,6.9,1  c2.6,0,4.6-0.3,6-1c1.4-0.7,2.1-1.5,2.1-2.6c0-0.6-0.2-1-0.6-1.3c-0.4-0.3-1-0.5-1.7-0.7c-0.8-0.2-1.7-0.3-2.8-0.3  c-1.1,0-2.3-0.1-3.7-0.2c-2.5-0.1-4.7-0.3-6.5-0.6c-1.9-0.3-3.4-0.8-4.6-1.4c-1.2-0.6-2.2-1.4-2.8-2.3c-0.6-0.9-0.9-2-0.9-3.3  c0-2.5,1.2-4.5,3.6-6c2.4-1.5,6-2.2,10.6-2.2c5.8,0,10.5,1.1,14.2,3.2c0.5,0.3,0.5,0.9,0.2,1.3l-2.9,3.3  C144.3,43.5,142.5,42.8,140.6,42.3z"></path></g></svg>